%TF.GenerationSoftware,KiCad,Pcbnew,8.0.2*%
%TF.CreationDate,2024-05-31T22:22:53+03:00*%
%TF.ProjectId,mobrob,6d6f6272-6f62-42e6-9b69-6361645f7063,rev?*%
%TF.SameCoordinates,PX7bfa480PY6422c40*%
%TF.FileFunction,Copper,L4,Bot*%
%TF.FilePolarity,Positive*%
%FSLAX46Y46*%
G04 Gerber Fmt 4.6, Leading zero omitted, Abs format (unit mm)*
G04 Created by KiCad (PCBNEW 8.0.2) date 2024-05-31 22:22:53*
%MOMM*%
%LPD*%
G01*
G04 APERTURE LIST*
%TA.AperFunction,ComponentPad*%
%ADD10R,2.400000X2.400000*%
%TD*%
%TA.AperFunction,ComponentPad*%
%ADD11C,2.400000*%
%TD*%
%TA.AperFunction,ComponentPad*%
%ADD12C,0.800000*%
%TD*%
%TA.AperFunction,ComponentPad*%
%ADD13C,6.400000*%
%TD*%
%TA.AperFunction,ComponentPad*%
%ADD14R,2.000000X2.000000*%
%TD*%
%TA.AperFunction,ComponentPad*%
%ADD15C,2.000000*%
%TD*%
%TA.AperFunction,ComponentPad*%
%ADD16R,1.800000X1.800000*%
%TD*%
%TA.AperFunction,ComponentPad*%
%ADD17C,1.800000*%
%TD*%
%TA.AperFunction,ComponentPad*%
%ADD18R,1.700000X1.700000*%
%TD*%
%TA.AperFunction,ComponentPad*%
%ADD19O,1.700000X1.700000*%
%TD*%
%TA.AperFunction,ComponentPad*%
%ADD20R,2.000000X1.905000*%
%TD*%
%TA.AperFunction,ComponentPad*%
%ADD21O,2.000000X1.905000*%
%TD*%
%TA.AperFunction,ComponentPad*%
%ADD22R,1.600000X1.600000*%
%TD*%
%TA.AperFunction,ComponentPad*%
%ADD23O,1.600000X1.600000*%
%TD*%
%TA.AperFunction,ViaPad*%
%ADD24C,0.800000*%
%TD*%
%TA.AperFunction,ViaPad*%
%ADD25C,1.200000*%
%TD*%
%TA.AperFunction,Conductor*%
%ADD26C,0.300000*%
%TD*%
%TA.AperFunction,Conductor*%
%ADD27C,1.500000*%
%TD*%
G04 APERTURE END LIST*
D10*
%TO.P,J2,1,Pin_1*%
%TO.N,Net-(D1-A)*%
X65600000Y5700000D03*
D11*
%TO.P,J2,2,Pin_2*%
%TO.N,Net-(D3-A)*%
X69100000Y5700000D03*
%TD*%
D12*
%TO.P,H3,1,1*%
%TO.N,GND*%
X92600000Y49000000D03*
X93302944Y50697056D03*
X93302944Y47302944D03*
X95000000Y51400000D03*
D13*
X95000000Y49000000D03*
D12*
X95000000Y46600000D03*
X96697056Y50697056D03*
X96697056Y47302944D03*
X97400000Y49000000D03*
%TD*%
D14*
%TO.P,C1,1*%
%TO.N,+12V*%
X86632323Y14000000D03*
D15*
%TO.P,C1,2*%
%TO.N,GND*%
X91632323Y14000000D03*
%TD*%
D12*
%TO.P,H2,1,1*%
%TO.N,GND*%
X92600000Y5000000D03*
X93302944Y6697056D03*
X93302944Y3302944D03*
X95000000Y7400000D03*
D13*
X95000000Y5000000D03*
D12*
X95000000Y2600000D03*
X96697056Y6697056D03*
X96697056Y3302944D03*
X97400000Y5000000D03*
%TD*%
D16*
%TO.P,D9,1,K*%
%TO.N,Net-(D9-K)*%
X45000000Y5000000D03*
D17*
%TO.P,D9,2,A*%
%TO.N,STATUS_LED*%
X47540000Y5000000D03*
%TD*%
D10*
%TO.P,J3,1,Pin_1*%
%TO.N,+12V*%
X94300000Y25250000D03*
D11*
%TO.P,J3,2,Pin_2*%
%TO.N,GND*%
X94300000Y28750000D03*
%TD*%
D18*
%TO.P,J8,1,VCC*%
%TO.N,+5V*%
X57780000Y49000000D03*
D19*
%TO.P,J8,2,GND*%
%TO.N,GND*%
X55240000Y49000000D03*
%TO.P,J8,3,SCL*%
%TO.N,IMU_SCL*%
X52700000Y49000000D03*
%TO.P,J8,4,SDA*%
%TO.N,IMU_SDA*%
X50160000Y49000000D03*
%TO.P,J8,5,XDA*%
%TO.N,unconnected-(J8-XDA-Pad5)*%
X47620000Y49000000D03*
%TO.P,J8,6,XCL*%
%TO.N,unconnected-(J8-XCL-Pad6)*%
X45080000Y49000000D03*
%TO.P,J8,7,AD0*%
%TO.N,unconnected-(J8-AD0-Pad7)*%
X42540000Y49000000D03*
%TO.P,J8,8,INT*%
%TO.N,unconnected-(J8-INT-Pad8)*%
X40000000Y49000000D03*
%TD*%
D10*
%TO.P,J1,1,Pin_1*%
%TO.N,Net-(D5-A)*%
X69100000Y48300000D03*
D11*
%TO.P,J1,2,Pin_2*%
%TO.N,Net-(D7-A)*%
X65600000Y48300000D03*
%TD*%
D20*
%TO.P,U2,1,IN*%
%TO.N,+12V*%
X87000000Y24460000D03*
D21*
%TO.P,U2,2,GND*%
%TO.N,GND*%
X87000000Y27000000D03*
%TO.P,U2,3,OUT*%
%TO.N,+5V*%
X87000000Y29540000D03*
%TD*%
D18*
%TO.P,J5,1,D23*%
%TO.N,IMU_SCL*%
X1980000Y39750000D03*
D19*
%TO.P,J5,2,D22*%
%TO.N,IMU_SDA*%
X4520000Y39750000D03*
%TO.P,J5,3,TX0*%
%TO.N,unconnected-(J5-TX0-Pad3)*%
X7060000Y39750000D03*
%TO.P,J5,4,RX0*%
%TO.N,unconnected-(J5-RX0-Pad4)*%
X9600000Y39750000D03*
%TO.P,J5,5,D21*%
%TO.N,UT_TRIG*%
X12140000Y39750000D03*
%TO.P,J5,6,D19*%
%TO.N,unconnected-(J5-D19-Pad6)*%
X14680000Y39750000D03*
%TO.P,J5,7,D18*%
%TO.N,unconnected-(J5-D18-Pad7)*%
X17220000Y39750000D03*
%TO.P,J5,8,D5*%
%TO.N,unconnected-(J5-D5-Pad8)*%
X19760000Y39750000D03*
%TO.P,J5,9,TX2*%
%TO.N,unconnected-(J5-TX2-Pad9)*%
X22300000Y39750000D03*
%TO.P,J5,10,RX2*%
%TO.N,unconnected-(J5-RX2-Pad10)*%
X24840000Y39750000D03*
%TO.P,J5,11,D4*%
%TO.N,UT_ECHO*%
X27380000Y39750000D03*
%TO.P,J5,12,D2*%
%TO.N,unconnected-(J5-D2-Pad12)*%
X29920000Y39750000D03*
%TO.P,J5,13,D15*%
%TO.N,unconnected-(J5-D15-Pad13)*%
X32460000Y39750000D03*
%TO.P,J5,14,GND*%
%TO.N,GND*%
X35000000Y39750000D03*
%TO.P,J5,15,3V3*%
%TO.N,+3.3V*%
X37540000Y39750000D03*
%TD*%
D12*
%TO.P,H4,1,1*%
%TO.N,GND*%
X2600000Y49000000D03*
X3302944Y50697056D03*
X3302944Y47302944D03*
X5000000Y51400000D03*
D13*
X5000000Y49000000D03*
D12*
X5000000Y46600000D03*
X6697056Y50697056D03*
X6697056Y47302944D03*
X7400000Y49000000D03*
%TD*%
D22*
%TO.P,U1,1,EN1\u002C2*%
%TO.N,EN1\u002C2*%
X58460000Y23130000D03*
D23*
%TO.P,U1,2,1A*%
%TO.N,1A*%
X61000000Y23130000D03*
%TO.P,U1,3,1Y*%
%TO.N,Net-(D1-A)*%
X63540000Y23130000D03*
%TO.P,U1,4,GND*%
%TO.N,GND*%
X66080000Y23130000D03*
%TO.P,U1,5,GND*%
X68620000Y23130000D03*
%TO.P,U1,6,2Y*%
%TO.N,Net-(D3-A)*%
X71160000Y23130000D03*
%TO.P,U1,7,2A*%
%TO.N,2A*%
X73700000Y23130000D03*
%TO.P,U1,8,VCC2*%
%TO.N,+12V*%
X76240000Y23130000D03*
%TO.P,U1,9,EN3\u002C4*%
%TO.N,EN3\u002C4*%
X76240000Y30750000D03*
%TO.P,U1,10,3A*%
%TO.N,3A*%
X73700000Y30750000D03*
%TO.P,U1,11,3Y*%
%TO.N,Net-(D5-A)*%
X71160000Y30750000D03*
%TO.P,U1,12,GND*%
%TO.N,GND*%
X68620000Y30750000D03*
%TO.P,U1,13,GND*%
X66080000Y30750000D03*
%TO.P,U1,14,4Y*%
%TO.N,Net-(D7-A)*%
X63540000Y30750000D03*
%TO.P,U1,15,4A*%
%TO.N,4A*%
X61000000Y30750000D03*
%TO.P,U1,16,VCC1*%
%TO.N,+5V*%
X58460000Y30750000D03*
%TD*%
D18*
%TO.P,J6,1,VCC*%
%TO.N,+3.3V*%
X18080000Y5000000D03*
D19*
%TO.P,J6,2,GND*%
%TO.N,GND*%
X15540000Y5000000D03*
%TO.P,J6,3,OUT*%
%TO.N,LHALL*%
X13000000Y5000000D03*
%TD*%
D14*
%TO.P,C2,1*%
%TO.N,+5V*%
X86632323Y40000000D03*
D15*
%TO.P,C2,2*%
%TO.N,GND*%
X91632323Y40000000D03*
%TD*%
D12*
%TO.P,H1,1,1*%
%TO.N,GND*%
X2600000Y5000000D03*
X3302944Y6697056D03*
X3302944Y3302944D03*
X5000000Y7400000D03*
D13*
X5000000Y5000000D03*
D12*
X5000000Y2600000D03*
X6697056Y6697056D03*
X6697056Y3302944D03*
X7400000Y5000000D03*
%TD*%
D19*
%TO.P,J4,15,VIN*%
%TO.N,+5V*%
X37560000Y14250000D03*
%TO.P,J4,14,GND*%
%TO.N,GND*%
X35020000Y14250000D03*
%TO.P,J4,13,D13*%
%TO.N,STATUS_LED*%
X32480000Y14250000D03*
%TO.P,J4,12,D12*%
%TO.N,unconnected-(J4-D12-Pad12)*%
X29940000Y14250000D03*
%TO.P,J4,11,D14*%
%TO.N,EN1\u002C2*%
X27400000Y14250000D03*
%TO.P,J4,10,D27*%
%TO.N,1A*%
X24860000Y14250000D03*
%TO.P,J4,9,D26*%
%TO.N,2A*%
X22320000Y14250000D03*
%TO.P,J4,8,D25*%
%TO.N,EN3\u002C4*%
X19780000Y14250000D03*
%TO.P,J4,7,D33*%
%TO.N,3A*%
X17240000Y14250000D03*
%TO.P,J4,6,D32*%
%TO.N,4A*%
X14700000Y14250000D03*
%TO.P,J4,5,D35*%
%TO.N,unconnected-(J4-D35-Pad5)*%
X12160000Y14250000D03*
%TO.P,J4,4,D34*%
%TO.N,unconnected-(J4-D34-Pad4)*%
X9620000Y14250000D03*
%TO.P,J4,3,VN*%
%TO.N,RHALL*%
X7080000Y14250000D03*
%TO.P,J4,2,VP*%
%TO.N,LHALL*%
X4540000Y14250000D03*
D18*
%TO.P,J4,1,EN*%
%TO.N,unconnected-(J4-EN-Pad1)*%
X2000000Y14250000D03*
%TD*%
%TO.P,J7,1,VCC*%
%TO.N,+3.3V*%
X18080000Y49000000D03*
D19*
%TO.P,J7,2,GND*%
%TO.N,GND*%
X15540000Y49000000D03*
%TO.P,J7,3,OUT*%
%TO.N,RHALL*%
X13000000Y49000000D03*
%TD*%
D18*
%TO.P,J9,1,VCC*%
%TO.N,+5V*%
X33080000Y49000000D03*
D19*
%TO.P,J9,2,TRIG*%
%TO.N,UT_TRIG*%
X30540000Y49000000D03*
%TO.P,J9,3,ECHO*%
%TO.N,UT_ECHO*%
X28000000Y49000000D03*
%TO.P,J9,4,GND*%
%TO.N,GND*%
X25460000Y49000000D03*
%TD*%
D24*
%TO.N,GND*%
X62250000Y33250000D03*
X85250000Y27000000D03*
X55000000Y13500000D03*
X92000000Y28750000D03*
X66750000Y25000000D03*
X79750000Y13500000D03*
X68000000Y28750000D03*
X69250000Y20250000D03*
X79750000Y12500000D03*
X65500000Y32500000D03*
X55000000Y40340000D03*
X66750000Y40250000D03*
X92000000Y27750000D03*
X88750000Y27000000D03*
X69250000Y21500000D03*
X55000000Y41340000D03*
X72500000Y20250000D03*
X69250000Y28750000D03*
X69250000Y32500000D03*
X79750000Y41340000D03*
X65500000Y28750000D03*
X66750000Y21500000D03*
X65500000Y25000000D03*
X92000000Y29750000D03*
X68000000Y20250000D03*
X66750000Y28750000D03*
X68000000Y21500000D03*
X69250000Y25000000D03*
X68000000Y13500000D03*
X55000000Y12500000D03*
X68000000Y25000000D03*
X68000000Y40250000D03*
X37750000Y5000000D03*
X66750000Y32500000D03*
X65500000Y33750000D03*
X68000000Y32500000D03*
X79750000Y40340000D03*
X68000000Y33750000D03*
X78737500Y8000000D03*
X65500000Y21500000D03*
X69250000Y33750000D03*
X65500000Y20250000D03*
X66750000Y13500000D03*
X66750000Y20250000D03*
X66750000Y33750000D03*
%TO.N,+5V*%
X87250000Y37250000D03*
X84250000Y29000000D03*
X87500000Y31250000D03*
X87500000Y32250000D03*
X84250000Y30000000D03*
X85250000Y29000000D03*
X87250000Y38250000D03*
X86000000Y37250000D03*
X85250000Y30000000D03*
X86000000Y38250000D03*
X86500000Y31250000D03*
X86500000Y32250000D03*
X77737500Y5000000D03*
D25*
%TO.N,+12V*%
X54250000Y17000000D03*
X80500000Y17000000D03*
%TD*%
D26*
%TO.N,+3.3V*%
X13425000Y15635000D02*
X37540000Y39750000D01*
X13425000Y9655000D02*
X13425000Y15635000D01*
X18080000Y5000000D02*
X13425000Y9655000D01*
%TO.N,RHALL*%
X8325000Y44325000D02*
X13000000Y49000000D01*
X8325000Y15495000D02*
X7080000Y14250000D01*
X8325000Y44325000D02*
X8325000Y15495000D01*
%TO.N,+3.3V*%
X24080000Y43000000D02*
X34290000Y43000000D01*
X34290000Y43000000D02*
X37540000Y39750000D01*
X18080000Y49000000D02*
X24080000Y43000000D01*
%TO.N,2A*%
X34570000Y26500000D02*
X22320000Y14250000D01*
X70330000Y26500000D02*
X34570000Y26500000D01*
X73700000Y23130000D02*
X70330000Y26500000D01*
%TO.N,4A*%
X29200000Y28750000D02*
X14700000Y14250000D01*
X59000000Y28750000D02*
X29200000Y28750000D01*
X61000000Y30750000D02*
X59000000Y28750000D01*
%TO.N,3A*%
X30990000Y28000000D02*
X17240000Y14250000D01*
X70950000Y28000000D02*
X30990000Y28000000D01*
X73700000Y30750000D02*
X70950000Y28000000D01*
%TO.N,EN3\u002C4*%
X32780000Y27250000D02*
X19780000Y14250000D01*
X72740000Y27250000D02*
X32780000Y27250000D01*
X76240000Y30750000D02*
X72740000Y27250000D01*
%TO.N,1A*%
X58380000Y25750000D02*
X36360000Y25750000D01*
X61000000Y23130000D02*
X58380000Y25750000D01*
X36360000Y25750000D02*
X24860000Y14250000D01*
%TO.N,EN1\u002C2*%
X38150000Y25000000D02*
X27400000Y14250000D01*
X56590000Y25000000D02*
X38150000Y25000000D01*
X58460000Y23130000D02*
X56590000Y25000000D01*
D27*
%TO.N,+12V*%
X54250000Y17000000D02*
X80250000Y17000000D01*
%TD*%
M02*
