M48
; DRILL file {KiCad 8.0.2} date 2024-05-31T22:22:50+0300
; FORMAT={-:-/ absolute / metric / decimal}
; #@! TF.CreationDate,2024-05-31T22:22:50+03:00
; #@! TF.GenerationSoftware,Kicad,Pcbnew,8.0.2
; #@! TF.FileFunction,MixedPlating,1,4
FMAT,2
METRIC
; #@! TA.AperFunction,Plated,PTH,ViaDrill
T1C0.400
; #@! TA.AperFunction,Plated,PTH,ViaDrill
T2C0.500
; #@! TA.AperFunction,Plated,PTH,ComponentDrill
T3C0.500
; #@! TA.AperFunction,Plated,PTH,ComponentDrill
T4C0.800
; #@! TA.AperFunction,Plated,PTH,ComponentDrill
T5C0.900
; #@! TA.AperFunction,Plated,PTH,ComponentDrill
T6C1.000
; #@! TA.AperFunction,Plated,PTH,ComponentDrill
T7C1.100
; #@! TA.AperFunction,Plated,PTH,ComponentDrill
T8C1.200
; #@! TA.AperFunction,Plated,PTH,ComponentDrill
T9C3.200
%
G90
G05
T1
X37.75Y5.0
X55.0Y41.34
X55.0Y40.34
X55.0Y13.5
X55.0Y12.5
X62.25Y33.25
X65.5Y33.75
X65.5Y32.5
X65.5Y28.75
X65.5Y25.0
X65.5Y21.5
X65.5Y20.25
X66.75Y40.25
X66.75Y33.75
X66.75Y32.5
X66.75Y28.75
X66.75Y25.0
X66.75Y21.5
X66.75Y20.25
X66.75Y13.5
X68.0Y40.25
X68.0Y33.75
X68.0Y32.5
X68.0Y28.75
X68.0Y25.0
X68.0Y21.5
X68.0Y20.25
X68.0Y13.5
X69.25Y33.75
X69.25Y32.5
X69.25Y28.75
X69.25Y25.0
X69.25Y21.5
X69.25Y20.25
X72.5Y20.25
X77.737Y5.0
X78.737Y8.0
X79.75Y41.34
X79.75Y40.34
X79.75Y13.5
X79.75Y12.5
X84.25Y30.0
X84.25Y29.0
X85.25Y30.0
X85.25Y29.0
X85.25Y27.0
X86.0Y38.25
X86.0Y37.25
X86.5Y32.25
X86.5Y31.25
X87.25Y38.25
X87.25Y37.25
X87.5Y32.25
X87.5Y31.25
X88.75Y27.0
X92.0Y29.75
X92.0Y28.75
X92.0Y27.75
T2
X54.25Y17.0
X80.5Y17.0
T3
X2.6Y49.0
X2.6Y5.0
X3.303Y50.697
X3.303Y47.303
X3.303Y6.697
X3.303Y3.303
X5.0Y51.4
X5.0Y46.6
X5.0Y7.4
X5.0Y2.6
X6.697Y50.697
X6.697Y47.303
X6.697Y6.697
X6.697Y3.303
X7.4Y49.0
X7.4Y5.0
X92.6Y49.0
X92.6Y5.0
X93.303Y50.697
X93.303Y47.303
X93.303Y6.697
X93.303Y3.303
X95.0Y51.4
X95.0Y46.6
X95.0Y7.4
X95.0Y2.6
X96.697Y50.697
X96.697Y47.303
X96.697Y6.697
X96.697Y3.303
X97.4Y49.0
X97.4Y5.0
T4
X58.46Y30.75
X58.46Y23.13
X61.0Y30.75
X61.0Y23.13
X63.54Y30.75
X63.54Y23.13
X66.08Y30.75
X66.08Y23.13
X68.62Y30.75
X68.62Y23.13
X71.16Y30.75
X71.16Y23.13
X73.7Y30.75
X73.7Y23.13
X76.24Y30.75
X76.24Y23.13
T5
X45.0Y5.0
X47.54Y5.0
T6
X1.98Y39.75
X2.0Y14.25
X4.52Y39.75
X4.54Y14.25
X7.06Y39.75
X7.08Y14.25
X9.6Y39.75
X9.62Y14.25
X12.14Y39.75
X12.16Y14.25
X13.0Y49.0
X13.0Y5.0
X14.68Y39.75
X14.7Y14.25
X15.54Y49.0
X15.54Y5.0
X17.22Y39.75
X17.24Y14.25
X18.08Y49.0
X18.08Y5.0
X19.76Y39.75
X19.78Y14.25
X22.3Y39.75
X22.32Y14.25
X24.84Y39.75
X24.86Y14.25
X25.46Y49.0
X27.38Y39.75
X27.4Y14.25
X28.0Y49.0
X29.92Y39.75
X29.94Y14.25
X30.54Y49.0
X32.46Y39.75
X32.48Y14.25
X33.08Y49.0
X35.0Y39.75
X35.02Y14.25
X37.54Y39.75
X37.56Y14.25
X40.0Y49.0
X42.54Y49.0
X45.08Y49.0
X47.62Y49.0
X50.16Y49.0
X52.7Y49.0
X55.24Y49.0
X57.78Y49.0
X86.632Y40.0
X86.632Y14.0
X91.632Y40.0
X91.632Y14.0
T7
X87.0Y29.54
X87.0Y27.0
X87.0Y24.46
T8
X65.6Y48.3
X65.6Y5.7
X69.1Y48.3
X69.1Y5.7
X94.3Y28.75
X94.3Y25.25
T9
X5.0Y49.0
X5.0Y5.0
X95.0Y49.0
X95.0Y5.0
M30
