%TF.GenerationSoftware,KiCad,Pcbnew,8.0.2*%
%TF.CreationDate,2024-05-31T22:22:53+03:00*%
%TF.ProjectId,mobrob,6d6f6272-6f62-42e6-9b69-6361645f7063,rev?*%
%TF.SameCoordinates,PX7bfa480PY6422c40*%
%TF.FileFunction,Copper,L2,Inr*%
%TF.FilePolarity,Positive*%
%FSLAX46Y46*%
G04 Gerber Fmt 4.6, Leading zero omitted, Abs format (unit mm)*
G04 Created by KiCad (PCBNEW 8.0.2) date 2024-05-31 22:22:53*
%MOMM*%
%LPD*%
G01*
G04 APERTURE LIST*
%TA.AperFunction,ComponentPad*%
%ADD10R,2.400000X2.400000*%
%TD*%
%TA.AperFunction,ComponentPad*%
%ADD11C,2.400000*%
%TD*%
%TA.AperFunction,ComponentPad*%
%ADD12C,0.800000*%
%TD*%
%TA.AperFunction,ComponentPad*%
%ADD13C,6.400000*%
%TD*%
%TA.AperFunction,ComponentPad*%
%ADD14R,2.000000X2.000000*%
%TD*%
%TA.AperFunction,ComponentPad*%
%ADD15C,2.000000*%
%TD*%
%TA.AperFunction,ComponentPad*%
%ADD16R,1.800000X1.800000*%
%TD*%
%TA.AperFunction,ComponentPad*%
%ADD17C,1.800000*%
%TD*%
%TA.AperFunction,ComponentPad*%
%ADD18R,1.700000X1.700000*%
%TD*%
%TA.AperFunction,ComponentPad*%
%ADD19O,1.700000X1.700000*%
%TD*%
%TA.AperFunction,ComponentPad*%
%ADD20R,2.000000X1.905000*%
%TD*%
%TA.AperFunction,ComponentPad*%
%ADD21O,2.000000X1.905000*%
%TD*%
%TA.AperFunction,ComponentPad*%
%ADD22R,1.600000X1.600000*%
%TD*%
%TA.AperFunction,ComponentPad*%
%ADD23O,1.600000X1.600000*%
%TD*%
%TA.AperFunction,ViaPad*%
%ADD24C,0.800000*%
%TD*%
%TA.AperFunction,ViaPad*%
%ADD25C,1.200000*%
%TD*%
G04 APERTURE END LIST*
D10*
%TO.N,Net-(D1-A)*%
%TO.C,J2*%
X65600000Y5700000D03*
D11*
%TO.N,Net-(D3-A)*%
X69100000Y5700000D03*
%TD*%
D12*
%TO.N,GND*%
%TO.C,H3*%
X92600000Y49000000D03*
X93302944Y50697056D03*
X93302944Y47302944D03*
X95000000Y51400000D03*
D13*
X95000000Y49000000D03*
D12*
X95000000Y46600000D03*
X96697056Y50697056D03*
X96697056Y47302944D03*
X97400000Y49000000D03*
%TD*%
D14*
%TO.N,+12V*%
%TO.C,C1*%
X86632323Y14000000D03*
D15*
%TO.N,GND*%
X91632323Y14000000D03*
%TD*%
D12*
%TO.N,GND*%
%TO.C,H2*%
X92600000Y5000000D03*
X93302944Y6697056D03*
X93302944Y3302944D03*
X95000000Y7400000D03*
D13*
X95000000Y5000000D03*
D12*
X95000000Y2600000D03*
X96697056Y6697056D03*
X96697056Y3302944D03*
X97400000Y5000000D03*
%TD*%
D16*
%TO.N,Net-(D9-K)*%
%TO.C,D9*%
X45000000Y5000000D03*
D17*
%TO.N,STATUS_LED*%
X47540000Y5000000D03*
%TD*%
D10*
%TO.N,+12V*%
%TO.C,J3*%
X94300000Y25250000D03*
D11*
%TO.N,GND*%
X94300000Y28750000D03*
%TD*%
D18*
%TO.N,+5V*%
%TO.C,J8*%
X57780000Y49000000D03*
D19*
%TO.N,GND*%
X55240000Y49000000D03*
%TO.N,IMU_SCL*%
X52700000Y49000000D03*
%TO.N,IMU_SDA*%
X50160000Y49000000D03*
%TO.N,unconnected-(J8-XDA-Pad5)*%
X47620000Y49000000D03*
%TO.N,unconnected-(J8-XCL-Pad6)*%
X45080000Y49000000D03*
%TO.N,unconnected-(J8-AD0-Pad7)*%
X42540000Y49000000D03*
%TO.N,unconnected-(J8-INT-Pad8)*%
X40000000Y49000000D03*
%TD*%
D10*
%TO.N,Net-(D5-A)*%
%TO.C,J1*%
X69100000Y48300000D03*
D11*
%TO.N,Net-(D7-A)*%
X65600000Y48300000D03*
%TD*%
D20*
%TO.N,+12V*%
%TO.C,U2*%
X87000000Y24460000D03*
D21*
%TO.N,GND*%
X87000000Y27000000D03*
%TO.N,+5V*%
X87000000Y29540000D03*
%TD*%
D18*
%TO.N,IMU_SCL*%
%TO.C,J5*%
X1980000Y39750000D03*
D19*
%TO.N,IMU_SDA*%
X4520000Y39750000D03*
%TO.N,unconnected-(J5-TX0-Pad3)*%
X7060000Y39750000D03*
%TO.N,unconnected-(J5-RX0-Pad4)*%
X9600000Y39750000D03*
%TO.N,UT_TRIG*%
X12140000Y39750000D03*
%TO.N,unconnected-(J5-D19-Pad6)*%
X14680000Y39750000D03*
%TO.N,unconnected-(J5-D18-Pad7)*%
X17220000Y39750000D03*
%TO.N,unconnected-(J5-D5-Pad8)*%
X19760000Y39750000D03*
%TO.N,unconnected-(J5-TX2-Pad9)*%
X22300000Y39750000D03*
%TO.N,unconnected-(J5-RX2-Pad10)*%
X24840000Y39750000D03*
%TO.N,UT_ECHO*%
X27380000Y39750000D03*
%TO.N,unconnected-(J5-D2-Pad12)*%
X29920000Y39750000D03*
%TO.N,unconnected-(J5-D15-Pad13)*%
X32460000Y39750000D03*
%TO.N,GND*%
X35000000Y39750000D03*
%TO.N,+3.3V*%
X37540000Y39750000D03*
%TD*%
D12*
%TO.N,GND*%
%TO.C,H4*%
X2600000Y49000000D03*
X3302944Y50697056D03*
X3302944Y47302944D03*
X5000000Y51400000D03*
D13*
X5000000Y49000000D03*
D12*
X5000000Y46600000D03*
X6697056Y50697056D03*
X6697056Y47302944D03*
X7400000Y49000000D03*
%TD*%
D22*
%TO.N,EN1\u002C2*%
%TO.C,U1*%
X58460000Y23130000D03*
D23*
%TO.N,1A*%
X61000000Y23130000D03*
%TO.N,Net-(D1-A)*%
X63540000Y23130000D03*
%TO.N,GND*%
X66080000Y23130000D03*
X68620000Y23130000D03*
%TO.N,Net-(D3-A)*%
X71160000Y23130000D03*
%TO.N,2A*%
X73700000Y23130000D03*
%TO.N,+12V*%
X76240000Y23130000D03*
%TO.N,EN3\u002C4*%
X76240000Y30750000D03*
%TO.N,3A*%
X73700000Y30750000D03*
%TO.N,Net-(D5-A)*%
X71160000Y30750000D03*
%TO.N,GND*%
X68620000Y30750000D03*
X66080000Y30750000D03*
%TO.N,Net-(D7-A)*%
X63540000Y30750000D03*
%TO.N,4A*%
X61000000Y30750000D03*
%TO.N,+5V*%
X58460000Y30750000D03*
%TD*%
D18*
%TO.N,+3.3V*%
%TO.C,J6*%
X18080000Y5000000D03*
D19*
%TO.N,GND*%
X15540000Y5000000D03*
%TO.N,LHALL*%
X13000000Y5000000D03*
%TD*%
D14*
%TO.N,+5V*%
%TO.C,C2*%
X86632323Y40000000D03*
D15*
%TO.N,GND*%
X91632323Y40000000D03*
%TD*%
D12*
%TO.N,GND*%
%TO.C,H1*%
X2600000Y5000000D03*
X3302944Y6697056D03*
X3302944Y3302944D03*
X5000000Y7400000D03*
D13*
X5000000Y5000000D03*
D12*
X5000000Y2600000D03*
X6697056Y6697056D03*
X6697056Y3302944D03*
X7400000Y5000000D03*
%TD*%
D19*
%TO.N,+5V*%
%TO.C,J4*%
X37560000Y14250000D03*
%TO.N,GND*%
X35020000Y14250000D03*
%TO.N,STATUS_LED*%
X32480000Y14250000D03*
%TO.N,unconnected-(J4-D12-Pad12)*%
X29940000Y14250000D03*
%TO.N,EN1\u002C2*%
X27400000Y14250000D03*
%TO.N,1A*%
X24860000Y14250000D03*
%TO.N,2A*%
X22320000Y14250000D03*
%TO.N,EN3\u002C4*%
X19780000Y14250000D03*
%TO.N,3A*%
X17240000Y14250000D03*
%TO.N,4A*%
X14700000Y14250000D03*
%TO.N,unconnected-(J4-D35-Pad5)*%
X12160000Y14250000D03*
%TO.N,unconnected-(J4-D34-Pad4)*%
X9620000Y14250000D03*
%TO.N,RHALL*%
X7080000Y14250000D03*
%TO.N,LHALL*%
X4540000Y14250000D03*
D18*
%TO.N,unconnected-(J4-EN-Pad1)*%
X2000000Y14250000D03*
%TD*%
%TO.N,+3.3V*%
%TO.C,J7*%
X18080000Y49000000D03*
D19*
%TO.N,GND*%
X15540000Y49000000D03*
%TO.N,RHALL*%
X13000000Y49000000D03*
%TD*%
D18*
%TO.N,+5V*%
%TO.C,J9*%
X33080000Y49000000D03*
D19*
%TO.N,UT_TRIG*%
X30540000Y49000000D03*
%TO.N,UT_ECHO*%
X28000000Y49000000D03*
%TO.N,GND*%
X25460000Y49000000D03*
%TD*%
D24*
%TO.N,GND*%
X62250000Y33250000D03*
X85250000Y27000000D03*
X55000000Y13500000D03*
X92000000Y28750000D03*
X66750000Y25000000D03*
X79750000Y13500000D03*
X68000000Y28750000D03*
X69250000Y20250000D03*
X79750000Y12500000D03*
X65500000Y32500000D03*
X55000000Y40340000D03*
X66750000Y40250000D03*
X92000000Y27750000D03*
X88750000Y27000000D03*
X69250000Y21500000D03*
X55000000Y41340000D03*
X72500000Y20250000D03*
X69250000Y28750000D03*
X69250000Y32500000D03*
X79750000Y41340000D03*
X65500000Y28750000D03*
X66750000Y21500000D03*
X65500000Y25000000D03*
X92000000Y29750000D03*
X68000000Y20250000D03*
X66750000Y28750000D03*
X68000000Y21500000D03*
X69250000Y25000000D03*
X68000000Y13500000D03*
X55000000Y12500000D03*
X68000000Y25000000D03*
X68000000Y40250000D03*
X37750000Y5000000D03*
X66750000Y32500000D03*
X65500000Y33750000D03*
X68000000Y32500000D03*
X79750000Y40340000D03*
X68000000Y33750000D03*
X78737500Y8000000D03*
X65500000Y21500000D03*
X69250000Y33750000D03*
X65500000Y20250000D03*
X66750000Y13500000D03*
X66750000Y20250000D03*
X66750000Y33750000D03*
%TO.N,+5V*%
X87250000Y37250000D03*
X84250000Y29000000D03*
X87500000Y31250000D03*
X87500000Y32250000D03*
X84250000Y30000000D03*
X85250000Y29000000D03*
X87250000Y38250000D03*
X86000000Y37250000D03*
X85250000Y30000000D03*
X86000000Y38250000D03*
X86500000Y31250000D03*
X86500000Y32250000D03*
X77737500Y5000000D03*
D25*
%TO.N,+12V*%
X54250000Y17000000D03*
X80500000Y17000000D03*
%TD*%
%TA.AperFunction,Conductor*%
%TO.N,GND*%
G36*
X68299920Y23375606D02*
G01*
X68247259Y23284394D01*
X68220000Y23182661D01*
X68220000Y23077339D01*
X68247259Y22975606D01*
X68299920Y22884394D01*
X68304314Y22880000D01*
X66395686Y22880000D01*
X66400080Y22884394D01*
X66452741Y22975606D01*
X66480000Y23077339D01*
X66480000Y23182661D01*
X66452741Y23284394D01*
X66400080Y23375606D01*
X66395686Y23380000D01*
X68304314Y23380000D01*
X68299920Y23375606D01*
G37*
%TD.AperFunction*%
%TA.AperFunction,Conductor*%
G36*
X68299920Y30995606D02*
G01*
X68247259Y30904394D01*
X68220000Y30802661D01*
X68220000Y30697339D01*
X68247259Y30595606D01*
X68299920Y30504394D01*
X68304314Y30500000D01*
X66395686Y30500000D01*
X66400080Y30504394D01*
X66452741Y30595606D01*
X66480000Y30697339D01*
X66480000Y30802661D01*
X66452741Y30904394D01*
X66400080Y30995606D01*
X66395686Y31000000D01*
X68304314Y31000000D01*
X68299920Y30995606D01*
G37*
%TD.AperFunction*%
%TA.AperFunction,Conductor*%
G36*
X95002702Y53499383D02*
G01*
X95386771Y53482614D01*
X95397506Y53481674D01*
X95775971Y53431848D01*
X95786597Y53429975D01*
X96159284Y53347352D01*
X96169710Y53344558D01*
X96533765Y53229773D01*
X96543911Y53226080D01*
X96896578Y53080000D01*
X96906369Y53075434D01*
X97244942Y52899184D01*
X97254310Y52893776D01*
X97576244Y52688682D01*
X97585105Y52682477D01*
X97887930Y52450111D01*
X97896217Y52443157D01*
X98177635Y52185285D01*
X98185284Y52177636D01*
X98443156Y51896218D01*
X98450110Y51887931D01*
X98682476Y51585106D01*
X98688681Y51576245D01*
X98893775Y51254311D01*
X98899183Y51244943D01*
X99075430Y50906377D01*
X99080002Y50896573D01*
X99226075Y50543922D01*
X99229775Y50533756D01*
X99344554Y50169722D01*
X99347354Y50159273D01*
X99429971Y49786611D01*
X99431849Y49775958D01*
X99481671Y49397527D01*
X99482614Y49386751D01*
X99499382Y49002703D01*
X99499500Y48997294D01*
X99499500Y5002707D01*
X99499382Y4997298D01*
X99482614Y4613250D01*
X99481671Y4602474D01*
X99431849Y4224043D01*
X99429971Y4213390D01*
X99347354Y3840728D01*
X99344554Y3830279D01*
X99229775Y3466245D01*
X99226075Y3456079D01*
X99080002Y3103428D01*
X99075430Y3093624D01*
X98899183Y2755058D01*
X98893775Y2745690D01*
X98688681Y2423756D01*
X98682476Y2414895D01*
X98450110Y2112070D01*
X98443156Y2103783D01*
X98185284Y1822365D01*
X98177635Y1814716D01*
X97896217Y1556844D01*
X97887930Y1549890D01*
X97585105Y1317524D01*
X97576244Y1311319D01*
X97254310Y1106225D01*
X97244942Y1100817D01*
X96906376Y924570D01*
X96896572Y919998D01*
X96543921Y773925D01*
X96533755Y770225D01*
X96169721Y655446D01*
X96159272Y652646D01*
X95786610Y570029D01*
X95775957Y568151D01*
X95397526Y518329D01*
X95386750Y517386D01*
X95002703Y500618D01*
X94997294Y500500D01*
X5002706Y500500D01*
X4997297Y500618D01*
X4613249Y517386D01*
X4602473Y518329D01*
X4224042Y568151D01*
X4213389Y570029D01*
X3840727Y652646D01*
X3830278Y655446D01*
X3466244Y770225D01*
X3456078Y773925D01*
X3103427Y919998D01*
X3093623Y924570D01*
X2755057Y1100817D01*
X2745689Y1106225D01*
X2423755Y1311319D01*
X2414894Y1317524D01*
X2112069Y1549890D01*
X2103782Y1556844D01*
X1822364Y1814716D01*
X1814715Y1822365D01*
X1556843Y2103783D01*
X1549889Y2112070D01*
X1317523Y2414895D01*
X1311318Y2423756D01*
X1106224Y2745690D01*
X1100816Y2755058D01*
X924569Y3093624D01*
X919997Y3103428D01*
X773924Y3456079D01*
X770224Y3466245D01*
X655442Y3830290D01*
X652648Y3840716D01*
X570025Y4213403D01*
X568152Y4224029D01*
X518326Y4602494D01*
X517386Y4613229D01*
X500618Y4997298D01*
X500559Y5000001D01*
X1294922Y5000001D01*
X1294922Y5000000D01*
X1315219Y4612713D01*
X1375886Y4229677D01*
X1375887Y4229670D01*
X1476262Y3855064D01*
X1615244Y3493006D01*
X1791310Y3147457D01*
X2002531Y2822207D01*
X2211095Y2564650D01*
X2211096Y2564650D01*
X3705748Y4059302D01*
X3779588Y3957670D01*
X3957670Y3779588D01*
X4059300Y3705749D01*
X2564648Y2211097D01*
X2564649Y2211096D01*
X2822206Y2002532D01*
X3147456Y1791311D01*
X3493005Y1615245D01*
X3855063Y1476263D01*
X4229669Y1375888D01*
X4229676Y1375887D01*
X4612712Y1315220D01*
X4999999Y1294922D01*
X5000001Y1294922D01*
X5387287Y1315220D01*
X5770323Y1375887D01*
X5770330Y1375888D01*
X6144936Y1476263D01*
X6506994Y1615245D01*
X6852543Y1791311D01*
X7177783Y2002524D01*
X7177785Y2002525D01*
X7435349Y2211098D01*
X5940698Y3705749D01*
X6042330Y3779588D01*
X6220412Y3957670D01*
X6294251Y4059302D01*
X7788902Y2564651D01*
X7997475Y2822215D01*
X7997476Y2822217D01*
X8208689Y3147457D01*
X8384755Y3493006D01*
X8523737Y3855064D01*
X8624112Y4229670D01*
X8624113Y4229677D01*
X8684780Y4612713D01*
X8705078Y5000000D01*
X8705078Y5000001D01*
X11644341Y5000001D01*
X11644341Y5000000D01*
X11664936Y4764597D01*
X11664938Y4764587D01*
X11726094Y4536345D01*
X11726096Y4536341D01*
X11726097Y4536337D01*
X11809155Y4358219D01*
X11825965Y4322170D01*
X11825967Y4322166D01*
X11923018Y4183564D01*
X11961505Y4128599D01*
X12128599Y3961505D01*
X12225384Y3893735D01*
X12322165Y3825968D01*
X12322167Y3825967D01*
X12322170Y3825965D01*
X12536337Y3726097D01*
X12764592Y3664937D01*
X12941034Y3649500D01*
X12999999Y3644341D01*
X13000000Y3644341D01*
X13000001Y3644341D01*
X13058966Y3649500D01*
X13235408Y3664937D01*
X13463663Y3726097D01*
X13677830Y3825965D01*
X13871401Y3961505D01*
X14038495Y4128599D01*
X14168730Y4314595D01*
X14223307Y4358219D01*
X14292805Y4365413D01*
X14355160Y4333890D01*
X14371879Y4314595D01*
X14501890Y4128922D01*
X14668917Y3961895D01*
X14862421Y3826400D01*
X15076507Y3726571D01*
X15076516Y3726567D01*
X15290000Y3669366D01*
X15290000Y4566988D01*
X15347007Y4534075D01*
X15474174Y4500000D01*
X15605826Y4500000D01*
X15732993Y4534075D01*
X15790000Y4566988D01*
X15790000Y3669367D01*
X16003483Y3726567D01*
X16003492Y3726571D01*
X16217578Y3826400D01*
X16411078Y3961892D01*
X16533133Y4083947D01*
X16594456Y4117432D01*
X16664148Y4112448D01*
X16720082Y4070577D01*
X16736997Y4039599D01*
X16786202Y3907672D01*
X16786206Y3907665D01*
X16872452Y3792456D01*
X16872455Y3792453D01*
X16987664Y3706207D01*
X16987671Y3706203D01*
X17122517Y3655909D01*
X17122516Y3655909D01*
X17129444Y3655165D01*
X17182127Y3649500D01*
X18977872Y3649501D01*
X19037483Y3655909D01*
X19172331Y3706204D01*
X19287546Y3792454D01*
X19373796Y3907669D01*
X19424091Y4042517D01*
X19430500Y4102127D01*
X19430499Y5897872D01*
X19425125Y5947865D01*
X43599500Y5947865D01*
X43599500Y4052130D01*
X43599501Y4052124D01*
X43605908Y3992517D01*
X43656202Y3857672D01*
X43656206Y3857665D01*
X43742452Y3742456D01*
X43742455Y3742453D01*
X43857664Y3656207D01*
X43857671Y3656203D01*
X43992517Y3605909D01*
X43992516Y3605909D01*
X43999444Y3605165D01*
X44052127Y3599500D01*
X45947872Y3599501D01*
X46007483Y3605909D01*
X46142331Y3656204D01*
X46257546Y3742454D01*
X46343796Y3857669D01*
X46348488Y3870248D01*
X46372455Y3934507D01*
X46414326Y3990441D01*
X46479790Y4014859D01*
X46548063Y4000008D01*
X46579866Y3975157D01*
X46587302Y3967080D01*
X46588215Y3966088D01*
X46588222Y3966082D01*
X46771365Y3823536D01*
X46771371Y3823532D01*
X46771374Y3823530D01*
X46975497Y3713064D01*
X47089487Y3673932D01*
X47195015Y3637703D01*
X47195017Y3637703D01*
X47195019Y3637702D01*
X47423951Y3599500D01*
X47423952Y3599500D01*
X47656048Y3599500D01*
X47656049Y3599500D01*
X47884981Y3637702D01*
X48104503Y3713064D01*
X48308626Y3823530D01*
X48311759Y3825968D01*
X48416732Y3907672D01*
X48491784Y3966087D01*
X48648979Y4136847D01*
X48775924Y4331151D01*
X48869157Y4543700D01*
X48926134Y4768695D01*
X48941995Y4960112D01*
X48945300Y4999994D01*
X48945300Y5000007D01*
X48926135Y5231298D01*
X48926133Y5231309D01*
X48869157Y5456301D01*
X48775924Y5668849D01*
X48648983Y5863148D01*
X48648980Y5863151D01*
X48648979Y5863153D01*
X48491784Y6033913D01*
X48491779Y6033917D01*
X48491777Y6033919D01*
X48308634Y6176465D01*
X48308628Y6176469D01*
X48104504Y6286936D01*
X48104495Y6286939D01*
X47884984Y6362298D01*
X47694450Y6394092D01*
X47656049Y6400500D01*
X47423951Y6400500D01*
X47385550Y6394092D01*
X47195015Y6362298D01*
X46975504Y6286939D01*
X46975495Y6286936D01*
X46771371Y6176469D01*
X46771365Y6176465D01*
X46588222Y6033919D01*
X46588218Y6033915D01*
X46579866Y6024842D01*
X46519979Y5988852D01*
X46450141Y5990953D01*
X46392525Y6030478D01*
X46372455Y6065493D01*
X46343797Y6142329D01*
X46343793Y6142336D01*
X46257547Y6257545D01*
X46257544Y6257548D01*
X46142335Y6343794D01*
X46142328Y6343798D01*
X46007482Y6394092D01*
X46007483Y6394092D01*
X45947883Y6400499D01*
X45947881Y6400500D01*
X45947873Y6400500D01*
X45947864Y6400500D01*
X44052129Y6400500D01*
X44052123Y6400499D01*
X43992516Y6394092D01*
X43857671Y6343798D01*
X43857664Y6343794D01*
X43742455Y6257548D01*
X43742452Y6257545D01*
X43656206Y6142336D01*
X43656202Y6142329D01*
X43605908Y6007483D01*
X43599501Y5947884D01*
X43599500Y5947865D01*
X19425125Y5947865D01*
X19424091Y5957483D01*
X19423002Y5960402D01*
X19373797Y6092329D01*
X19373793Y6092336D01*
X19287547Y6207545D01*
X19287544Y6207548D01*
X19172335Y6293794D01*
X19172328Y6293798D01*
X19037482Y6344092D01*
X19037483Y6344092D01*
X18977883Y6350499D01*
X18977881Y6350500D01*
X18977873Y6350500D01*
X18977864Y6350500D01*
X17182129Y6350500D01*
X17182123Y6350499D01*
X17122516Y6344092D01*
X16987671Y6293798D01*
X16987664Y6293794D01*
X16872455Y6207548D01*
X16872452Y6207545D01*
X16786206Y6092336D01*
X16786202Y6092329D01*
X16736997Y5960402D01*
X16695126Y5904468D01*
X16629661Y5880051D01*
X16561388Y5894903D01*
X16533134Y5916054D01*
X16411082Y6038106D01*
X16217578Y6173601D01*
X16003492Y6273430D01*
X16003486Y6273433D01*
X15790000Y6330636D01*
X15790000Y5433012D01*
X15732993Y5465925D01*
X15605826Y5500000D01*
X15474174Y5500000D01*
X15347007Y5465925D01*
X15290000Y5433012D01*
X15290000Y6330636D01*
X15289999Y6330636D01*
X15076513Y6273433D01*
X15076507Y6273430D01*
X14862422Y6173601D01*
X14862420Y6173600D01*
X14668926Y6038114D01*
X14668920Y6038109D01*
X14501891Y5871080D01*
X14501890Y5871078D01*
X14371880Y5685405D01*
X14317303Y5641781D01*
X14247804Y5634588D01*
X14185450Y5666110D01*
X14168730Y5685406D01*
X14038494Y5871403D01*
X13871402Y6038494D01*
X13871395Y6038499D01*
X13677834Y6174033D01*
X13677830Y6174035D01*
X13616491Y6202638D01*
X13463663Y6273903D01*
X13463659Y6273904D01*
X13463655Y6273906D01*
X13235413Y6335062D01*
X13235403Y6335064D01*
X13000001Y6355659D01*
X12999999Y6355659D01*
X12764596Y6335064D01*
X12764586Y6335062D01*
X12536344Y6273906D01*
X12536335Y6273902D01*
X12322171Y6174036D01*
X12322169Y6174035D01*
X12128597Y6038495D01*
X11961505Y5871403D01*
X11825965Y5677831D01*
X11825964Y5677829D01*
X11726098Y5463665D01*
X11726094Y5463656D01*
X11664938Y5235414D01*
X11664936Y5235404D01*
X11644341Y5000001D01*
X8705078Y5000001D01*
X8684780Y5387288D01*
X8624113Y5770324D01*
X8624112Y5770331D01*
X8523737Y6144937D01*
X8384755Y6506995D01*
X8208689Y6852544D01*
X8146786Y6947865D01*
X63899500Y6947865D01*
X63899500Y4452130D01*
X63899501Y4452124D01*
X63905908Y4392517D01*
X63956202Y4257672D01*
X63956206Y4257665D01*
X64042452Y4142456D01*
X64042455Y4142453D01*
X64157664Y4056207D01*
X64157671Y4056203D01*
X64292517Y4005909D01*
X64292516Y4005909D01*
X64299444Y4005165D01*
X64352127Y3999500D01*
X66847872Y3999501D01*
X66907483Y4005909D01*
X67042331Y4056204D01*
X67157546Y4142454D01*
X67243796Y4257669D01*
X67294091Y4392517D01*
X67300500Y4452127D01*
X67300499Y4975146D01*
X67320183Y5042182D01*
X67372987Y5087937D01*
X67442146Y5097881D01*
X67505702Y5068856D01*
X67539927Y5020447D01*
X67563607Y4960112D01*
X67691041Y4739388D01*
X67849950Y4540123D01*
X68036783Y4366768D01*
X68247366Y4223195D01*
X68247371Y4223193D01*
X68247372Y4223192D01*
X68247373Y4223191D01*
X68369328Y4164462D01*
X68476992Y4112613D01*
X68476993Y4112613D01*
X68476996Y4112611D01*
X68720542Y4037487D01*
X68972565Y3999500D01*
X69227435Y3999500D01*
X69479458Y4037487D01*
X69723004Y4112611D01*
X69952634Y4223195D01*
X70163217Y4366768D01*
X70350050Y4540123D01*
X70508959Y4739388D01*
X70636393Y4960112D01*
X70652048Y5000000D01*
X76832040Y5000000D01*
X76851826Y4811744D01*
X76851827Y4811741D01*
X76910318Y4631723D01*
X76910321Y4631716D01*
X77004967Y4467784D01*
X77097143Y4365413D01*
X77131629Y4327112D01*
X77284765Y4215852D01*
X77284770Y4215849D01*
X77457692Y4138858D01*
X77457697Y4138856D01*
X77642854Y4099500D01*
X77642855Y4099500D01*
X77832144Y4099500D01*
X77832146Y4099500D01*
X78017303Y4138856D01*
X78190230Y4215849D01*
X78343371Y4327112D01*
X78470033Y4467784D01*
X78564679Y4631716D01*
X78623174Y4811744D01*
X78642960Y5000000D01*
X78642960Y5000001D01*
X91294922Y5000001D01*
X91294922Y5000000D01*
X91315219Y4612713D01*
X91375886Y4229677D01*
X91375887Y4229670D01*
X91476262Y3855064D01*
X91615244Y3493006D01*
X91791310Y3147457D01*
X92002531Y2822207D01*
X92211095Y2564650D01*
X92211096Y2564650D01*
X93705748Y4059302D01*
X93779588Y3957670D01*
X93957670Y3779588D01*
X94059300Y3705749D01*
X92564648Y2211097D01*
X92564649Y2211096D01*
X92822206Y2002532D01*
X93147456Y1791311D01*
X93493005Y1615245D01*
X93855063Y1476263D01*
X94229669Y1375888D01*
X94229676Y1375887D01*
X94612712Y1315220D01*
X94999999Y1294922D01*
X95000001Y1294922D01*
X95387287Y1315220D01*
X95770323Y1375887D01*
X95770330Y1375888D01*
X96144936Y1476263D01*
X96506994Y1615245D01*
X96852543Y1791311D01*
X97177783Y2002524D01*
X97177785Y2002525D01*
X97435349Y2211098D01*
X95940698Y3705749D01*
X96042330Y3779588D01*
X96220412Y3957670D01*
X96294251Y4059302D01*
X97788902Y2564651D01*
X97997475Y2822215D01*
X97997476Y2822217D01*
X98208689Y3147457D01*
X98384755Y3493006D01*
X98523737Y3855064D01*
X98624112Y4229670D01*
X98624113Y4229677D01*
X98684780Y4612713D01*
X98705078Y5000000D01*
X98705078Y5000001D01*
X98684780Y5387288D01*
X98624113Y5770324D01*
X98624112Y5770331D01*
X98523737Y6144937D01*
X98384755Y6506995D01*
X98208689Y6852544D01*
X97997468Y7177794D01*
X97788904Y7435351D01*
X97788903Y7435352D01*
X96294251Y5940700D01*
X96220412Y6042330D01*
X96042330Y6220412D01*
X95940698Y6294252D01*
X97435350Y7788904D01*
X97435350Y7788905D01*
X97177793Y7997469D01*
X96852543Y8208690D01*
X96506994Y8384756D01*
X96144936Y8523738D01*
X95770330Y8624113D01*
X95770323Y8624114D01*
X95387287Y8684781D01*
X95000001Y8705078D01*
X94999999Y8705078D01*
X94612712Y8684781D01*
X94229676Y8624114D01*
X94229669Y8624113D01*
X93855063Y8523738D01*
X93493005Y8384756D01*
X93147456Y8208690D01*
X92822206Y7997469D01*
X92564648Y7788905D01*
X92564648Y7788904D01*
X94059301Y6294252D01*
X93957670Y6220412D01*
X93779588Y6042330D01*
X93705748Y5940700D01*
X92211096Y7435352D01*
X92211095Y7435352D01*
X92002531Y7177794D01*
X91791310Y6852544D01*
X91615244Y6506995D01*
X91476262Y6144937D01*
X91375887Y5770331D01*
X91375886Y5770324D01*
X91315219Y5387288D01*
X91294922Y5000001D01*
X78642960Y5000001D01*
X78623174Y5188256D01*
X78564679Y5368284D01*
X78470033Y5532216D01*
X78343371Y5672888D01*
X78343370Y5672889D01*
X78190234Y5784149D01*
X78190229Y5784152D01*
X78017307Y5861143D01*
X78017302Y5861145D01*
X77858478Y5894903D01*
X77832146Y5900500D01*
X77642854Y5900500D01*
X77616522Y5894903D01*
X77457697Y5861145D01*
X77457692Y5861143D01*
X77284770Y5784152D01*
X77284765Y5784149D01*
X77131629Y5672889D01*
X77004966Y5532215D01*
X76910321Y5368285D01*
X76910318Y5368278D01*
X76865811Y5231298D01*
X76851826Y5188256D01*
X76832040Y5000000D01*
X70652048Y5000000D01*
X70729508Y5197363D01*
X70786222Y5445843D01*
X70800905Y5641781D01*
X70805268Y5699996D01*
X70805268Y5700005D01*
X70790440Y5897873D01*
X70786222Y5954157D01*
X70729508Y6202637D01*
X70636393Y6439888D01*
X70508959Y6660612D01*
X70350050Y6859877D01*
X70163217Y7033232D01*
X69952634Y7176805D01*
X69952630Y7176807D01*
X69952627Y7176809D01*
X69952626Y7176810D01*
X69723006Y7287388D01*
X69723008Y7287388D01*
X69479466Y7362511D01*
X69479462Y7362512D01*
X69479458Y7362513D01*
X69358231Y7380786D01*
X69227440Y7400500D01*
X69227435Y7400500D01*
X68972565Y7400500D01*
X68972559Y7400500D01*
X68815609Y7376843D01*
X68720542Y7362513D01*
X68720539Y7362512D01*
X68720533Y7362511D01*
X68476992Y7287388D01*
X68247373Y7176810D01*
X68247372Y7176809D01*
X68036782Y7033232D01*
X67849952Y6859879D01*
X67849950Y6859877D01*
X67691041Y6660612D01*
X67563608Y6439891D01*
X67539927Y6379553D01*
X67497110Y6324339D01*
X67431240Y6301039D01*
X67363230Y6317050D01*
X67314672Y6367289D01*
X67300499Y6424856D01*
X67300499Y6947871D01*
X67300498Y6947877D01*
X67300497Y6947884D01*
X67294091Y7007483D01*
X67284487Y7033232D01*
X67243797Y7142329D01*
X67243793Y7142336D01*
X67157547Y7257545D01*
X67157544Y7257548D01*
X67042335Y7343794D01*
X67042328Y7343798D01*
X66907482Y7394092D01*
X66907483Y7394092D01*
X66847883Y7400499D01*
X66847881Y7400500D01*
X66847873Y7400500D01*
X66847864Y7400500D01*
X64352129Y7400500D01*
X64352123Y7400499D01*
X64292516Y7394092D01*
X64157671Y7343798D01*
X64157664Y7343794D01*
X64042455Y7257548D01*
X64042452Y7257545D01*
X63956206Y7142336D01*
X63956202Y7142329D01*
X63905908Y7007483D01*
X63899501Y6947884D01*
X63899501Y6947877D01*
X63899500Y6947865D01*
X8146786Y6947865D01*
X7997468Y7177794D01*
X7788904Y7435351D01*
X7788903Y7435352D01*
X6294251Y5940700D01*
X6220412Y6042330D01*
X6042330Y6220412D01*
X5940698Y6294252D01*
X7435350Y7788904D01*
X7435350Y7788905D01*
X7177793Y7997469D01*
X6852543Y8208690D01*
X6506994Y8384756D01*
X6144936Y8523738D01*
X5770330Y8624113D01*
X5770323Y8624114D01*
X5387287Y8684781D01*
X5000001Y8705078D01*
X4999999Y8705078D01*
X4612712Y8684781D01*
X4229676Y8624114D01*
X4229669Y8624113D01*
X3855063Y8523738D01*
X3493005Y8384756D01*
X3147456Y8208690D01*
X2822206Y7997469D01*
X2564648Y7788905D01*
X2564648Y7788904D01*
X4059301Y6294252D01*
X3957670Y6220412D01*
X3779588Y6042330D01*
X3705748Y5940700D01*
X2211096Y7435352D01*
X2211095Y7435352D01*
X2002531Y7177794D01*
X1791310Y6852544D01*
X1615244Y6506995D01*
X1476262Y6144937D01*
X1375887Y5770331D01*
X1375886Y5770324D01*
X1315219Y5387288D01*
X1294922Y5000001D01*
X500559Y5000001D01*
X500500Y5002707D01*
X500500Y13059898D01*
X520185Y13126937D01*
X572989Y13172692D01*
X642147Y13182636D01*
X705703Y13153611D01*
X723762Y13134214D01*
X792454Y13042454D01*
X838643Y13007877D01*
X907664Y12956207D01*
X907671Y12956203D01*
X1042517Y12905909D01*
X1042516Y12905909D01*
X1049444Y12905165D01*
X1102127Y12899500D01*
X2897872Y12899501D01*
X2957483Y12905909D01*
X3092331Y12956204D01*
X3207546Y13042454D01*
X3293796Y13157669D01*
X3342810Y13289084D01*
X3384681Y13345016D01*
X3450145Y13369434D01*
X3518418Y13354583D01*
X3546673Y13333431D01*
X3668599Y13211505D01*
X3751280Y13153611D01*
X3862165Y13075968D01*
X3862167Y13075967D01*
X3862170Y13075965D01*
X4076337Y12976097D01*
X4304592Y12914937D01*
X4481034Y12899500D01*
X4539999Y12894341D01*
X4540000Y12894341D01*
X4540001Y12894341D01*
X4598966Y12899500D01*
X4775408Y12914937D01*
X5003663Y12976097D01*
X5217830Y13075965D01*
X5411401Y13211505D01*
X5578495Y13378599D01*
X5708425Y13564158D01*
X5763002Y13607783D01*
X5832500Y13614977D01*
X5894855Y13583454D01*
X5911575Y13564158D01*
X6041500Y13378605D01*
X6041505Y13378599D01*
X6208599Y13211505D01*
X6291280Y13153611D01*
X6402165Y13075968D01*
X6402167Y13075967D01*
X6402170Y13075965D01*
X6616337Y12976097D01*
X6844592Y12914937D01*
X7021034Y12899500D01*
X7079999Y12894341D01*
X7080000Y12894341D01*
X7080001Y12894341D01*
X7138966Y12899500D01*
X7315408Y12914937D01*
X7543663Y12976097D01*
X7757830Y13075965D01*
X7951401Y13211505D01*
X8118495Y13378599D01*
X8248425Y13564158D01*
X8303002Y13607783D01*
X8372500Y13614977D01*
X8434855Y13583454D01*
X8451575Y13564158D01*
X8581500Y13378605D01*
X8581505Y13378599D01*
X8748599Y13211505D01*
X8831280Y13153611D01*
X8942165Y13075968D01*
X8942167Y13075967D01*
X8942170Y13075965D01*
X9156337Y12976097D01*
X9384592Y12914937D01*
X9561034Y12899500D01*
X9619999Y12894341D01*
X9620000Y12894341D01*
X9620001Y12894341D01*
X9678966Y12899500D01*
X9855408Y12914937D01*
X10083663Y12976097D01*
X10297830Y13075965D01*
X10491401Y13211505D01*
X10658495Y13378599D01*
X10788425Y13564158D01*
X10843002Y13607783D01*
X10912500Y13614977D01*
X10974855Y13583454D01*
X10991575Y13564158D01*
X11121500Y13378605D01*
X11121505Y13378599D01*
X11288599Y13211505D01*
X11371280Y13153611D01*
X11482165Y13075968D01*
X11482167Y13075967D01*
X11482170Y13075965D01*
X11696337Y12976097D01*
X11924592Y12914937D01*
X12101034Y12899500D01*
X12159999Y12894341D01*
X12160000Y12894341D01*
X12160001Y12894341D01*
X12218966Y12899500D01*
X12395408Y12914937D01*
X12623663Y12976097D01*
X12837830Y13075965D01*
X13031401Y13211505D01*
X13198495Y13378599D01*
X13328425Y13564158D01*
X13383002Y13607783D01*
X13452500Y13614977D01*
X13514855Y13583454D01*
X13531575Y13564158D01*
X13661500Y13378605D01*
X13661505Y13378599D01*
X13828599Y13211505D01*
X13911280Y13153611D01*
X14022165Y13075968D01*
X14022167Y13075967D01*
X14022170Y13075965D01*
X14236337Y12976097D01*
X14464592Y12914937D01*
X14641034Y12899500D01*
X14699999Y12894341D01*
X14700000Y12894341D01*
X14700001Y12894341D01*
X14758966Y12899500D01*
X14935408Y12914937D01*
X15163663Y12976097D01*
X15377830Y13075965D01*
X15571401Y13211505D01*
X15738495Y13378599D01*
X15868425Y13564158D01*
X15923002Y13607783D01*
X15992500Y13614977D01*
X16054855Y13583454D01*
X16071575Y13564158D01*
X16201500Y13378605D01*
X16201505Y13378599D01*
X16368599Y13211505D01*
X16451280Y13153611D01*
X16562165Y13075968D01*
X16562167Y13075967D01*
X16562170Y13075965D01*
X16776337Y12976097D01*
X17004592Y12914937D01*
X17181034Y12899500D01*
X17239999Y12894341D01*
X17240000Y12894341D01*
X17240001Y12894341D01*
X17298966Y12899500D01*
X17475408Y12914937D01*
X17703663Y12976097D01*
X17917830Y13075965D01*
X18111401Y13211505D01*
X18278495Y13378599D01*
X18408425Y13564158D01*
X18463002Y13607783D01*
X18532500Y13614977D01*
X18594855Y13583454D01*
X18611575Y13564158D01*
X18741500Y13378605D01*
X18741505Y13378599D01*
X18908599Y13211505D01*
X18991280Y13153611D01*
X19102165Y13075968D01*
X19102167Y13075967D01*
X19102170Y13075965D01*
X19316337Y12976097D01*
X19544592Y12914937D01*
X19721034Y12899500D01*
X19779999Y12894341D01*
X19780000Y12894341D01*
X19780001Y12894341D01*
X19838966Y12899500D01*
X20015408Y12914937D01*
X20243663Y12976097D01*
X20457830Y13075965D01*
X20651401Y13211505D01*
X20818495Y13378599D01*
X20948425Y13564158D01*
X21003002Y13607783D01*
X21072500Y13614977D01*
X21134855Y13583454D01*
X21151575Y13564158D01*
X21281500Y13378605D01*
X21281505Y13378599D01*
X21448599Y13211505D01*
X21531280Y13153611D01*
X21642165Y13075968D01*
X21642167Y13075967D01*
X21642170Y13075965D01*
X21856337Y12976097D01*
X22084592Y12914937D01*
X22261034Y12899500D01*
X22319999Y12894341D01*
X22320000Y12894341D01*
X22320001Y12894341D01*
X22378966Y12899500D01*
X22555408Y12914937D01*
X22783663Y12976097D01*
X22997830Y13075965D01*
X23191401Y13211505D01*
X23358495Y13378599D01*
X23488425Y13564158D01*
X23543002Y13607783D01*
X23612500Y13614977D01*
X23674855Y13583454D01*
X23691575Y13564158D01*
X23821500Y13378605D01*
X23821505Y13378599D01*
X23988599Y13211505D01*
X24071280Y13153611D01*
X24182165Y13075968D01*
X24182167Y13075967D01*
X24182170Y13075965D01*
X24396337Y12976097D01*
X24624592Y12914937D01*
X24801034Y12899500D01*
X24859999Y12894341D01*
X24860000Y12894341D01*
X24860001Y12894341D01*
X24918966Y12899500D01*
X25095408Y12914937D01*
X25323663Y12976097D01*
X25537830Y13075965D01*
X25731401Y13211505D01*
X25898495Y13378599D01*
X26028425Y13564158D01*
X26083002Y13607783D01*
X26152500Y13614977D01*
X26214855Y13583454D01*
X26231575Y13564158D01*
X26361500Y13378605D01*
X26361505Y13378599D01*
X26528599Y13211505D01*
X26611280Y13153611D01*
X26722165Y13075968D01*
X26722167Y13075967D01*
X26722170Y13075965D01*
X26936337Y12976097D01*
X27164592Y12914937D01*
X27341034Y12899500D01*
X27399999Y12894341D01*
X27400000Y12894341D01*
X27400001Y12894341D01*
X27458966Y12899500D01*
X27635408Y12914937D01*
X27863663Y12976097D01*
X28077830Y13075965D01*
X28271401Y13211505D01*
X28438495Y13378599D01*
X28568425Y13564158D01*
X28623002Y13607783D01*
X28692500Y13614977D01*
X28754855Y13583454D01*
X28771575Y13564158D01*
X28901500Y13378605D01*
X28901505Y13378599D01*
X29068599Y13211505D01*
X29151280Y13153611D01*
X29262165Y13075968D01*
X29262167Y13075967D01*
X29262170Y13075965D01*
X29476337Y12976097D01*
X29704592Y12914937D01*
X29881034Y12899500D01*
X29939999Y12894341D01*
X29940000Y12894341D01*
X29940001Y12894341D01*
X29998966Y12899500D01*
X30175408Y12914937D01*
X30403663Y12976097D01*
X30617830Y13075965D01*
X30811401Y13211505D01*
X30978495Y13378599D01*
X31108425Y13564158D01*
X31163002Y13607783D01*
X31232500Y13614977D01*
X31294855Y13583454D01*
X31311575Y13564158D01*
X31441500Y13378605D01*
X31441505Y13378599D01*
X31608599Y13211505D01*
X31691280Y13153611D01*
X31802165Y13075968D01*
X31802167Y13075967D01*
X31802170Y13075965D01*
X32016337Y12976097D01*
X32244592Y12914937D01*
X32421034Y12899500D01*
X32479999Y12894341D01*
X32480000Y12894341D01*
X32480001Y12894341D01*
X32538966Y12899500D01*
X32715408Y12914937D01*
X32943663Y12976097D01*
X33157830Y13075965D01*
X33351401Y13211505D01*
X33518495Y13378599D01*
X33648730Y13564595D01*
X33703307Y13608219D01*
X33772805Y13615413D01*
X33835160Y13583890D01*
X33851879Y13564595D01*
X33981890Y13378922D01*
X34148917Y13211895D01*
X34342421Y13076400D01*
X34556507Y12976571D01*
X34556516Y12976567D01*
X34770000Y12919366D01*
X34770000Y13816988D01*
X34827007Y13784075D01*
X34954174Y13750000D01*
X35085826Y13750000D01*
X35212993Y13784075D01*
X35270000Y13816988D01*
X35270000Y12919367D01*
X35483483Y12976567D01*
X35483492Y12976571D01*
X35697578Y13076400D01*
X35891082Y13211895D01*
X36058105Y13378918D01*
X36188119Y13564595D01*
X36242696Y13608219D01*
X36312195Y13615412D01*
X36374549Y13583890D01*
X36391269Y13564595D01*
X36521505Y13378599D01*
X36688599Y13211505D01*
X36771280Y13153611D01*
X36882165Y13075968D01*
X36882167Y13075967D01*
X36882170Y13075965D01*
X37096337Y12976097D01*
X37324592Y12914937D01*
X37501034Y12899500D01*
X37559999Y12894341D01*
X37560000Y12894341D01*
X37560001Y12894341D01*
X37618966Y12899500D01*
X37795408Y12914937D01*
X38023663Y12976097D01*
X38237830Y13075965D01*
X38431401Y13211505D01*
X38598495Y13378599D01*
X38734035Y13572170D01*
X38833903Y13786337D01*
X38895063Y14014592D01*
X38915659Y14250000D01*
X38895063Y14485408D01*
X38833903Y14713663D01*
X38734035Y14927829D01*
X38728731Y14935405D01*
X38649986Y15047865D01*
X85131823Y15047865D01*
X85131823Y12952130D01*
X85131824Y12952124D01*
X85138231Y12892517D01*
X85188525Y12757672D01*
X85188529Y12757665D01*
X85274775Y12642456D01*
X85274778Y12642453D01*
X85389987Y12556207D01*
X85389994Y12556203D01*
X85524840Y12505909D01*
X85524839Y12505909D01*
X85531767Y12505165D01*
X85584450Y12499500D01*
X87680195Y12499501D01*
X87739806Y12505909D01*
X87874654Y12556204D01*
X87989869Y12642454D01*
X88076119Y12757669D01*
X88126414Y12892517D01*
X88132823Y12952127D01*
X88132822Y14000006D01*
X90127182Y14000006D01*
X90127182Y13999995D01*
X90147708Y13752271D01*
X90147710Y13752262D01*
X90208735Y13511283D01*
X90308589Y13283636D01*
X90408887Y13130118D01*
X91149360Y13870591D01*
X91166398Y13807007D01*
X91232224Y13692993D01*
X91325316Y13599901D01*
X91439330Y13534075D01*
X91502913Y13517038D01*
X90762265Y12776391D01*
X90809091Y12739945D01*
X90809093Y12739944D01*
X91027708Y12621636D01*
X91027719Y12621631D01*
X91262829Y12540917D01*
X91508030Y12500000D01*
X91756616Y12500000D01*
X92001816Y12540917D01*
X92236926Y12621631D01*
X92236937Y12621636D01*
X92455551Y12739943D01*
X92455554Y12739945D01*
X92502379Y12776391D01*
X91761732Y13517038D01*
X91825316Y13534075D01*
X91939330Y13599901D01*
X92032422Y13692993D01*
X92098248Y13807007D01*
X92115285Y13870591D01*
X92855757Y13130118D01*
X92956054Y13283631D01*
X93055910Y13511283D01*
X93116935Y13752262D01*
X93116937Y13752271D01*
X93137464Y13999995D01*
X93137464Y14000006D01*
X93116937Y14247730D01*
X93116935Y14247739D01*
X93055910Y14488718D01*
X92956054Y14716370D01*
X92855757Y14869884D01*
X92115285Y14129411D01*
X92098248Y14192993D01*
X92032422Y14307007D01*
X91939330Y14400099D01*
X91825316Y14465925D01*
X91761733Y14482963D01*
X92502380Y15223610D01*
X92502379Y15223611D01*
X92455552Y15260057D01*
X92236937Y15378365D01*
X92236926Y15378370D01*
X92001816Y15459084D01*
X91756616Y15500000D01*
X91508030Y15500000D01*
X91262829Y15459084D01*
X91027719Y15378370D01*
X91027713Y15378368D01*
X90809084Y15260051D01*
X90762265Y15223612D01*
X90762265Y15223610D01*
X91502913Y14482963D01*
X91439330Y14465925D01*
X91325316Y14400099D01*
X91232224Y14307007D01*
X91166398Y14192993D01*
X91149360Y14129411D01*
X90408887Y14869884D01*
X90308590Y14716368D01*
X90208735Y14488718D01*
X90147710Y14247739D01*
X90147708Y14247730D01*
X90127182Y14000006D01*
X88132822Y14000006D01*
X88132822Y15047872D01*
X88126414Y15107483D01*
X88121343Y15121078D01*
X88076120Y15242329D01*
X88076116Y15242336D01*
X87989870Y15357545D01*
X87989867Y15357548D01*
X87874658Y15443794D01*
X87874651Y15443798D01*
X87739805Y15494092D01*
X87739806Y15494092D01*
X87680206Y15500499D01*
X87680204Y15500500D01*
X87680196Y15500500D01*
X87680187Y15500500D01*
X85584452Y15500500D01*
X85584446Y15500499D01*
X85524839Y15494092D01*
X85389994Y15443798D01*
X85389987Y15443794D01*
X85274778Y15357548D01*
X85274775Y15357545D01*
X85188529Y15242336D01*
X85188525Y15242329D01*
X85138231Y15107483D01*
X85131824Y15047884D01*
X85131824Y15047877D01*
X85131823Y15047865D01*
X38649986Y15047865D01*
X38598494Y15121403D01*
X38431402Y15288494D01*
X38431395Y15288499D01*
X38237834Y15424033D01*
X38237830Y15424035D01*
X38195457Y15443794D01*
X38023663Y15523903D01*
X38023659Y15523904D01*
X38023655Y15523906D01*
X37795413Y15585062D01*
X37795403Y15585064D01*
X37560001Y15605659D01*
X37559999Y15605659D01*
X37324596Y15585064D01*
X37324586Y15585062D01*
X37096344Y15523906D01*
X37096335Y15523902D01*
X36882171Y15424036D01*
X36882169Y15424035D01*
X36688597Y15288495D01*
X36521508Y15121406D01*
X36391269Y14935405D01*
X36336692Y14891781D01*
X36267193Y14884588D01*
X36204839Y14916110D01*
X36188119Y14935406D01*
X36058113Y15121074D01*
X36058108Y15121080D01*
X35891082Y15288106D01*
X35697578Y15423601D01*
X35483492Y15523430D01*
X35483486Y15523433D01*
X35270000Y15580636D01*
X35270000Y14683012D01*
X35212993Y14715925D01*
X35085826Y14750000D01*
X34954174Y14750000D01*
X34827007Y14715925D01*
X34770000Y14683012D01*
X34770000Y15580636D01*
X34769999Y15580636D01*
X34556513Y15523433D01*
X34556507Y15523430D01*
X34342422Y15423601D01*
X34342420Y15423600D01*
X34148926Y15288114D01*
X34148920Y15288109D01*
X33981891Y15121080D01*
X33981890Y15121078D01*
X33851880Y14935405D01*
X33797303Y14891781D01*
X33727804Y14884588D01*
X33665450Y14916110D01*
X33648730Y14935406D01*
X33518494Y15121403D01*
X33351402Y15288494D01*
X33351395Y15288499D01*
X33157834Y15424033D01*
X33157830Y15424035D01*
X33115457Y15443794D01*
X32943663Y15523903D01*
X32943659Y15523904D01*
X32943655Y15523906D01*
X32715413Y15585062D01*
X32715403Y15585064D01*
X32480001Y15605659D01*
X32479999Y15605659D01*
X32244596Y15585064D01*
X32244586Y15585062D01*
X32016344Y15523906D01*
X32016335Y15523902D01*
X31802171Y15424036D01*
X31802169Y15424035D01*
X31608597Y15288495D01*
X31441505Y15121403D01*
X31311575Y14935842D01*
X31256998Y14892217D01*
X31187500Y14885023D01*
X31125145Y14916546D01*
X31108425Y14935842D01*
X30978494Y15121403D01*
X30811402Y15288494D01*
X30811395Y15288499D01*
X30617834Y15424033D01*
X30617830Y15424035D01*
X30575457Y15443794D01*
X30403663Y15523903D01*
X30403659Y15523904D01*
X30403655Y15523906D01*
X30175413Y15585062D01*
X30175403Y15585064D01*
X29940001Y15605659D01*
X29939999Y15605659D01*
X29704596Y15585064D01*
X29704586Y15585062D01*
X29476344Y15523906D01*
X29476335Y15523902D01*
X29262171Y15424036D01*
X29262169Y15424035D01*
X29068597Y15288495D01*
X28901505Y15121403D01*
X28771575Y14935842D01*
X28716998Y14892217D01*
X28647500Y14885023D01*
X28585145Y14916546D01*
X28568425Y14935842D01*
X28438494Y15121403D01*
X28271402Y15288494D01*
X28271395Y15288499D01*
X28077834Y15424033D01*
X28077830Y15424035D01*
X28035457Y15443794D01*
X27863663Y15523903D01*
X27863659Y15523904D01*
X27863655Y15523906D01*
X27635413Y15585062D01*
X27635403Y15585064D01*
X27400001Y15605659D01*
X27399999Y15605659D01*
X27164596Y15585064D01*
X27164586Y15585062D01*
X26936344Y15523906D01*
X26936335Y15523902D01*
X26722171Y15424036D01*
X26722169Y15424035D01*
X26528597Y15288495D01*
X26361505Y15121403D01*
X26231575Y14935842D01*
X26176998Y14892217D01*
X26107500Y14885023D01*
X26045145Y14916546D01*
X26028425Y14935842D01*
X25898494Y15121403D01*
X25731402Y15288494D01*
X25731395Y15288499D01*
X25537834Y15424033D01*
X25537830Y15424035D01*
X25495457Y15443794D01*
X25323663Y15523903D01*
X25323659Y15523904D01*
X25323655Y15523906D01*
X25095413Y15585062D01*
X25095403Y15585064D01*
X24860001Y15605659D01*
X24859999Y15605659D01*
X24624596Y15585064D01*
X24624586Y15585062D01*
X24396344Y15523906D01*
X24396335Y15523902D01*
X24182171Y15424036D01*
X24182169Y15424035D01*
X23988597Y15288495D01*
X23821505Y15121403D01*
X23691575Y14935842D01*
X23636998Y14892217D01*
X23567500Y14885023D01*
X23505145Y14916546D01*
X23488425Y14935842D01*
X23358494Y15121403D01*
X23191402Y15288494D01*
X23191395Y15288499D01*
X22997834Y15424033D01*
X22997830Y15424035D01*
X22955457Y15443794D01*
X22783663Y15523903D01*
X22783659Y15523904D01*
X22783655Y15523906D01*
X22555413Y15585062D01*
X22555403Y15585064D01*
X22320001Y15605659D01*
X22319999Y15605659D01*
X22084596Y15585064D01*
X22084586Y15585062D01*
X21856344Y15523906D01*
X21856335Y15523902D01*
X21642171Y15424036D01*
X21642169Y15424035D01*
X21448597Y15288495D01*
X21281505Y15121403D01*
X21151575Y14935842D01*
X21096998Y14892217D01*
X21027500Y14885023D01*
X20965145Y14916546D01*
X20948425Y14935842D01*
X20818494Y15121403D01*
X20651402Y15288494D01*
X20651395Y15288499D01*
X20457834Y15424033D01*
X20457830Y15424035D01*
X20415457Y15443794D01*
X20243663Y15523903D01*
X20243659Y15523904D01*
X20243655Y15523906D01*
X20015413Y15585062D01*
X20015403Y15585064D01*
X19780001Y15605659D01*
X19779999Y15605659D01*
X19544596Y15585064D01*
X19544586Y15585062D01*
X19316344Y15523906D01*
X19316335Y15523902D01*
X19102171Y15424036D01*
X19102169Y15424035D01*
X18908597Y15288495D01*
X18741505Y15121403D01*
X18611575Y14935842D01*
X18556998Y14892217D01*
X18487500Y14885023D01*
X18425145Y14916546D01*
X18408425Y14935842D01*
X18278494Y15121403D01*
X18111402Y15288494D01*
X18111395Y15288499D01*
X17917834Y15424033D01*
X17917830Y15424035D01*
X17875457Y15443794D01*
X17703663Y15523903D01*
X17703659Y15523904D01*
X17703655Y15523906D01*
X17475413Y15585062D01*
X17475403Y15585064D01*
X17240001Y15605659D01*
X17239999Y15605659D01*
X17004596Y15585064D01*
X17004586Y15585062D01*
X16776344Y15523906D01*
X16776335Y15523902D01*
X16562171Y15424036D01*
X16562169Y15424035D01*
X16368597Y15288495D01*
X16201505Y15121403D01*
X16071575Y14935842D01*
X16016998Y14892217D01*
X15947500Y14885023D01*
X15885145Y14916546D01*
X15868425Y14935842D01*
X15738494Y15121403D01*
X15571402Y15288494D01*
X15571395Y15288499D01*
X15377834Y15424033D01*
X15377830Y15424035D01*
X15335457Y15443794D01*
X15163663Y15523903D01*
X15163659Y15523904D01*
X15163655Y15523906D01*
X14935413Y15585062D01*
X14935403Y15585064D01*
X14700001Y15605659D01*
X14699999Y15605659D01*
X14464596Y15585064D01*
X14464586Y15585062D01*
X14236344Y15523906D01*
X14236335Y15523902D01*
X14022171Y15424036D01*
X14022169Y15424035D01*
X13828597Y15288495D01*
X13661505Y15121403D01*
X13531575Y14935842D01*
X13476998Y14892217D01*
X13407500Y14885023D01*
X13345145Y14916546D01*
X13328425Y14935842D01*
X13198494Y15121403D01*
X13031402Y15288494D01*
X13031395Y15288499D01*
X12837834Y15424033D01*
X12837830Y15424035D01*
X12795457Y15443794D01*
X12623663Y15523903D01*
X12623659Y15523904D01*
X12623655Y15523906D01*
X12395413Y15585062D01*
X12395403Y15585064D01*
X12160001Y15605659D01*
X12159999Y15605659D01*
X11924596Y15585064D01*
X11924586Y15585062D01*
X11696344Y15523906D01*
X11696335Y15523902D01*
X11482171Y15424036D01*
X11482169Y15424035D01*
X11288597Y15288495D01*
X11121505Y15121403D01*
X10991575Y14935842D01*
X10936998Y14892217D01*
X10867500Y14885023D01*
X10805145Y14916546D01*
X10788425Y14935842D01*
X10658494Y15121403D01*
X10491402Y15288494D01*
X10491395Y15288499D01*
X10297834Y15424033D01*
X10297830Y15424035D01*
X10255457Y15443794D01*
X10083663Y15523903D01*
X10083659Y15523904D01*
X10083655Y15523906D01*
X9855413Y15585062D01*
X9855403Y15585064D01*
X9620001Y15605659D01*
X9619999Y15605659D01*
X9384596Y15585064D01*
X9384586Y15585062D01*
X9156344Y15523906D01*
X9156335Y15523902D01*
X8942171Y15424036D01*
X8942169Y15424035D01*
X8748597Y15288495D01*
X8581505Y15121403D01*
X8451575Y14935842D01*
X8396998Y14892217D01*
X8327500Y14885023D01*
X8265145Y14916546D01*
X8248425Y14935842D01*
X8118494Y15121403D01*
X7951402Y15288494D01*
X7951395Y15288499D01*
X7757834Y15424033D01*
X7757830Y15424035D01*
X7715457Y15443794D01*
X7543663Y15523903D01*
X7543659Y15523904D01*
X7543655Y15523906D01*
X7315413Y15585062D01*
X7315403Y15585064D01*
X7080001Y15605659D01*
X7079999Y15605659D01*
X6844596Y15585064D01*
X6844586Y15585062D01*
X6616344Y15523906D01*
X6616335Y15523902D01*
X6402171Y15424036D01*
X6402169Y15424035D01*
X6208597Y15288495D01*
X6041505Y15121403D01*
X5911575Y14935842D01*
X5856998Y14892217D01*
X5787500Y14885023D01*
X5725145Y14916546D01*
X5708425Y14935842D01*
X5578494Y15121403D01*
X5411402Y15288494D01*
X5411395Y15288499D01*
X5217834Y15424033D01*
X5217830Y15424035D01*
X5175457Y15443794D01*
X5003663Y15523903D01*
X5003659Y15523904D01*
X5003655Y15523906D01*
X4775413Y15585062D01*
X4775403Y15585064D01*
X4540001Y15605659D01*
X4539999Y15605659D01*
X4304596Y15585064D01*
X4304586Y15585062D01*
X4076344Y15523906D01*
X4076335Y15523902D01*
X3862171Y15424036D01*
X3862169Y15424035D01*
X3668600Y15288497D01*
X3546673Y15166570D01*
X3485350Y15133086D01*
X3415658Y15138070D01*
X3359725Y15179942D01*
X3342810Y15210919D01*
X3293797Y15342329D01*
X3293793Y15342336D01*
X3207547Y15457545D01*
X3207544Y15457548D01*
X3092335Y15543794D01*
X3092328Y15543798D01*
X2957482Y15594092D01*
X2957483Y15594092D01*
X2897883Y15600499D01*
X2897881Y15600500D01*
X2897873Y15600500D01*
X2897864Y15600500D01*
X1102129Y15600500D01*
X1102123Y15600499D01*
X1042516Y15594092D01*
X907671Y15543798D01*
X907664Y15543794D01*
X792455Y15457548D01*
X792452Y15457545D01*
X723766Y15365792D01*
X667832Y15323921D01*
X598141Y15318937D01*
X536818Y15352423D01*
X503334Y15413746D01*
X500500Y15440103D01*
X500500Y17000001D01*
X53144785Y17000001D01*
X53144785Y17000000D01*
X53163602Y16796918D01*
X53219417Y16600753D01*
X53219422Y16600740D01*
X53310327Y16418179D01*
X53433237Y16255419D01*
X53583958Y16118020D01*
X53583960Y16118018D01*
X53683141Y16056608D01*
X53757363Y16010652D01*
X53947544Y15936976D01*
X54148024Y15899500D01*
X54148026Y15899500D01*
X54351974Y15899500D01*
X54351976Y15899500D01*
X54552456Y15936976D01*
X54742637Y16010652D01*
X54916041Y16118019D01*
X55066764Y16255421D01*
X55189673Y16418179D01*
X55280582Y16600750D01*
X55336397Y16796917D01*
X55355215Y17000000D01*
X55355215Y17000001D01*
X79394785Y17000001D01*
X79394785Y17000000D01*
X79413602Y16796918D01*
X79469417Y16600753D01*
X79469422Y16600740D01*
X79560327Y16418179D01*
X79683237Y16255419D01*
X79833958Y16118020D01*
X79833960Y16118018D01*
X79933141Y16056608D01*
X80007363Y16010652D01*
X80197544Y15936976D01*
X80398024Y15899500D01*
X80398026Y15899500D01*
X80601974Y15899500D01*
X80601976Y15899500D01*
X80802456Y15936976D01*
X80992637Y16010652D01*
X81166041Y16118019D01*
X81316764Y16255421D01*
X81439673Y16418179D01*
X81530582Y16600750D01*
X81586397Y16796917D01*
X81605215Y17000000D01*
X81586397Y17203083D01*
X81530582Y17399250D01*
X81439673Y17581821D01*
X81316764Y17744579D01*
X81316762Y17744582D01*
X81166041Y17881981D01*
X81166039Y17881983D01*
X80992642Y17989345D01*
X80992635Y17989349D01*
X80897546Y18026186D01*
X80802456Y18063024D01*
X80601976Y18100500D01*
X80398024Y18100500D01*
X80197544Y18063024D01*
X80197541Y18063024D01*
X80197541Y18063023D01*
X80007364Y17989349D01*
X80007357Y17989345D01*
X79833960Y17881983D01*
X79833958Y17881981D01*
X79683237Y17744582D01*
X79560327Y17581822D01*
X79469422Y17399261D01*
X79469417Y17399248D01*
X79413602Y17203083D01*
X79394785Y17000001D01*
X55355215Y17000001D01*
X55336397Y17203083D01*
X55280582Y17399250D01*
X55189673Y17581821D01*
X55066764Y17744579D01*
X55066762Y17744582D01*
X54916041Y17881981D01*
X54916039Y17881983D01*
X54742642Y17989345D01*
X54742635Y17989349D01*
X54647546Y18026186D01*
X54552456Y18063024D01*
X54351976Y18100500D01*
X54148024Y18100500D01*
X53947544Y18063024D01*
X53947541Y18063024D01*
X53947541Y18063023D01*
X53757364Y17989349D01*
X53757357Y17989345D01*
X53583960Y17881983D01*
X53583958Y17881981D01*
X53433237Y17744582D01*
X53310327Y17581822D01*
X53219422Y17399261D01*
X53219417Y17399248D01*
X53163602Y17203083D01*
X53144785Y17000001D01*
X500500Y17000001D01*
X500500Y23977865D01*
X57159500Y23977865D01*
X57159500Y22282130D01*
X57159501Y22282124D01*
X57165908Y22222517D01*
X57216202Y22087672D01*
X57216206Y22087665D01*
X57302452Y21972456D01*
X57302455Y21972453D01*
X57417664Y21886207D01*
X57417671Y21886203D01*
X57552517Y21835909D01*
X57552516Y21835909D01*
X57559444Y21835165D01*
X57612127Y21829500D01*
X59307872Y21829501D01*
X59367483Y21835909D01*
X59502331Y21886204D01*
X59617546Y21972454D01*
X59703796Y22087669D01*
X59754091Y22222517D01*
X59757862Y22257599D01*
X59784599Y22322145D01*
X59841990Y22361994D01*
X59911816Y22364489D01*
X59971905Y22328837D01*
X59982726Y22315464D01*
X59999956Y22290857D01*
X60160858Y22129955D01*
X60160861Y22129953D01*
X60347266Y21999432D01*
X60553504Y21903261D01*
X60773308Y21844365D01*
X60935230Y21830199D01*
X60999998Y21824532D01*
X61000000Y21824532D01*
X61000002Y21824532D01*
X61056807Y21829502D01*
X61226692Y21844365D01*
X61446496Y21903261D01*
X61652734Y21999432D01*
X61839139Y22129953D01*
X62000047Y22290861D01*
X62130568Y22477266D01*
X62157618Y22535276D01*
X62203790Y22587715D01*
X62270983Y22606867D01*
X62337865Y22586652D01*
X62382382Y22535275D01*
X62409429Y22477272D01*
X62409432Y22477266D01*
X62539954Y22290859D01*
X62700858Y22129955D01*
X62700861Y22129953D01*
X62887266Y21999432D01*
X63093504Y21903261D01*
X63313308Y21844365D01*
X63475230Y21830199D01*
X63539998Y21824532D01*
X63540000Y21824532D01*
X63540002Y21824532D01*
X63596807Y21829502D01*
X63766692Y21844365D01*
X63986496Y21903261D01*
X64192734Y21999432D01*
X64379139Y22129953D01*
X64540047Y22290861D01*
X64670568Y22477266D01*
X64697895Y22535871D01*
X64744064Y22588305D01*
X64811257Y22607458D01*
X64878139Y22587243D01*
X64922657Y22535867D01*
X64949865Y22477518D01*
X65080342Y22291180D01*
X65241179Y22130343D01*
X65427517Y21999866D01*
X65633673Y21903735D01*
X65633682Y21903731D01*
X65829999Y21851128D01*
X65830000Y21851129D01*
X65830000Y22814314D01*
X65834394Y22809920D01*
X65925606Y22757259D01*
X66027339Y22730000D01*
X66132661Y22730000D01*
X66234394Y22757259D01*
X66325606Y22809920D01*
X66330000Y22814314D01*
X66330000Y21851128D01*
X66526317Y21903731D01*
X66526326Y21903735D01*
X66732482Y21999866D01*
X66918820Y22130343D01*
X67079657Y22291180D01*
X67210134Y22477519D01*
X67210135Y22477521D01*
X67237618Y22536457D01*
X67283790Y22588897D01*
X67350983Y22608049D01*
X67417864Y22587834D01*
X67462382Y22536457D01*
X67489864Y22477521D01*
X67489865Y22477519D01*
X67620342Y22291180D01*
X67781179Y22130343D01*
X67967517Y21999866D01*
X68173673Y21903735D01*
X68173682Y21903731D01*
X68369999Y21851128D01*
X68370000Y21851129D01*
X68370000Y22814314D01*
X68374394Y22809920D01*
X68465606Y22757259D01*
X68567339Y22730000D01*
X68672661Y22730000D01*
X68774394Y22757259D01*
X68865606Y22809920D01*
X68870000Y22814314D01*
X68870000Y21851128D01*
X69066317Y21903731D01*
X69066326Y21903735D01*
X69272482Y21999866D01*
X69458820Y22130343D01*
X69619657Y22291180D01*
X69750132Y22477516D01*
X69777341Y22535866D01*
X69823513Y22588305D01*
X69890707Y22607458D01*
X69957588Y22587243D01*
X70002106Y22535867D01*
X70029431Y22477268D01*
X70029432Y22477266D01*
X70159954Y22290859D01*
X70320858Y22129955D01*
X70320861Y22129953D01*
X70507266Y21999432D01*
X70713504Y21903261D01*
X70933308Y21844365D01*
X71095230Y21830199D01*
X71159998Y21824532D01*
X71160000Y21824532D01*
X71160002Y21824532D01*
X71216807Y21829502D01*
X71386692Y21844365D01*
X71606496Y21903261D01*
X71812734Y21999432D01*
X71999139Y22129953D01*
X72160047Y22290861D01*
X72290568Y22477266D01*
X72317618Y22535276D01*
X72363790Y22587715D01*
X72430983Y22606867D01*
X72497865Y22586652D01*
X72542382Y22535275D01*
X72569429Y22477272D01*
X72569432Y22477266D01*
X72699954Y22290859D01*
X72860858Y22129955D01*
X72860861Y22129953D01*
X73047266Y21999432D01*
X73253504Y21903261D01*
X73473308Y21844365D01*
X73635230Y21830199D01*
X73699998Y21824532D01*
X73700000Y21824532D01*
X73700002Y21824532D01*
X73756807Y21829502D01*
X73926692Y21844365D01*
X74146496Y21903261D01*
X74352734Y21999432D01*
X74539139Y22129953D01*
X74700047Y22290861D01*
X74830568Y22477266D01*
X74857618Y22535276D01*
X74903790Y22587715D01*
X74970983Y22606867D01*
X75037865Y22586652D01*
X75082382Y22535275D01*
X75109429Y22477272D01*
X75109432Y22477266D01*
X75239954Y22290859D01*
X75400858Y22129955D01*
X75400861Y22129953D01*
X75587266Y21999432D01*
X75793504Y21903261D01*
X76013308Y21844365D01*
X76175230Y21830199D01*
X76239998Y21824532D01*
X76240000Y21824532D01*
X76240002Y21824532D01*
X76296807Y21829502D01*
X76466692Y21844365D01*
X76686496Y21903261D01*
X76892734Y21999432D01*
X77079139Y22129953D01*
X77240047Y22290861D01*
X77370568Y22477266D01*
X77466739Y22683504D01*
X77525635Y22903308D01*
X77545468Y23130000D01*
X77525635Y23356692D01*
X77466739Y23576496D01*
X77370568Y23782734D01*
X77240047Y23969139D01*
X77240045Y23969142D01*
X77079141Y24130046D01*
X76892734Y24260568D01*
X76892732Y24260569D01*
X76686497Y24356739D01*
X76686488Y24356742D01*
X76466697Y24415634D01*
X76466693Y24415635D01*
X76466692Y24415635D01*
X76466691Y24415636D01*
X76466686Y24415636D01*
X76240002Y24435468D01*
X76239998Y24435468D01*
X76013313Y24415636D01*
X76013302Y24415634D01*
X75793511Y24356742D01*
X75793502Y24356739D01*
X75587267Y24260569D01*
X75587265Y24260568D01*
X75400858Y24130046D01*
X75239954Y23969142D01*
X75109432Y23782735D01*
X75109431Y23782733D01*
X75082382Y23724725D01*
X75036209Y23672286D01*
X74969016Y23653134D01*
X74902135Y23673350D01*
X74857618Y23724725D01*
X74830686Y23782480D01*
X74830568Y23782734D01*
X74700047Y23969139D01*
X74700045Y23969142D01*
X74539141Y24130046D01*
X74352734Y24260568D01*
X74352732Y24260569D01*
X74146497Y24356739D01*
X74146488Y24356742D01*
X73926697Y24415634D01*
X73926693Y24415635D01*
X73926692Y24415635D01*
X73926691Y24415636D01*
X73926686Y24415636D01*
X73700002Y24435468D01*
X73699998Y24435468D01*
X73473313Y24415636D01*
X73473302Y24415634D01*
X73253511Y24356742D01*
X73253502Y24356739D01*
X73047267Y24260569D01*
X73047265Y24260568D01*
X72860858Y24130046D01*
X72699954Y23969142D01*
X72569432Y23782735D01*
X72569431Y23782733D01*
X72542382Y23724725D01*
X72496209Y23672286D01*
X72429016Y23653134D01*
X72362135Y23673350D01*
X72317618Y23724725D01*
X72290686Y23782480D01*
X72290568Y23782734D01*
X72160047Y23969139D01*
X72160045Y23969142D01*
X71999141Y24130046D01*
X71812734Y24260568D01*
X71812732Y24260569D01*
X71606497Y24356739D01*
X71606488Y24356742D01*
X71386697Y24415634D01*
X71386693Y24415635D01*
X71386692Y24415635D01*
X71386691Y24415636D01*
X71386686Y24415636D01*
X71160002Y24435468D01*
X71159998Y24435468D01*
X70933313Y24415636D01*
X70933302Y24415634D01*
X70713511Y24356742D01*
X70713502Y24356739D01*
X70507267Y24260569D01*
X70507265Y24260568D01*
X70320858Y24130046D01*
X70159954Y23969142D01*
X70029433Y23782736D01*
X70029432Y23782734D01*
X70029315Y23782482D01*
X70002106Y23724133D01*
X69955933Y23671694D01*
X69888739Y23652543D01*
X69821858Y23672759D01*
X69777342Y23724135D01*
X69750135Y23782480D01*
X69750134Y23782482D01*
X69619657Y23968821D01*
X69458820Y24129658D01*
X69272482Y24260135D01*
X69066328Y24356266D01*
X68870000Y24408873D01*
X68870000Y23445686D01*
X68865606Y23450080D01*
X68774394Y23502741D01*
X68672661Y23530000D01*
X68567339Y23530000D01*
X68465606Y23502741D01*
X68374394Y23450080D01*
X68370000Y23445686D01*
X68370000Y24408873D01*
X68173671Y24356266D01*
X67967517Y24260135D01*
X67781179Y24129658D01*
X67620342Y23968821D01*
X67489865Y23782483D01*
X67462382Y23723543D01*
X67416210Y23671104D01*
X67349016Y23651952D01*
X67282135Y23672168D01*
X67237618Y23723543D01*
X67210134Y23782483D01*
X67079657Y23968821D01*
X66918820Y24129658D01*
X66732482Y24260135D01*
X66526328Y24356266D01*
X66330000Y24408873D01*
X66330000Y23445686D01*
X66325606Y23450080D01*
X66234394Y23502741D01*
X66132661Y23530000D01*
X66027339Y23530000D01*
X65925606Y23502741D01*
X65834394Y23450080D01*
X65830000Y23445686D01*
X65830000Y24408873D01*
X65633671Y24356266D01*
X65427517Y24260135D01*
X65241179Y24129658D01*
X65080342Y23968821D01*
X64949867Y23782485D01*
X64922657Y23724133D01*
X64876484Y23671694D01*
X64809290Y23652543D01*
X64742409Y23672759D01*
X64697893Y23724135D01*
X64670685Y23782482D01*
X64670568Y23782734D01*
X64540047Y23969139D01*
X64540045Y23969142D01*
X64379141Y24130046D01*
X64192734Y24260568D01*
X64192732Y24260569D01*
X63986497Y24356739D01*
X63986488Y24356742D01*
X63766697Y24415634D01*
X63766693Y24415635D01*
X63766692Y24415635D01*
X63766691Y24415636D01*
X63766686Y24415636D01*
X63540002Y24435468D01*
X63539998Y24435468D01*
X63313313Y24415636D01*
X63313302Y24415634D01*
X63093511Y24356742D01*
X63093502Y24356739D01*
X62887267Y24260569D01*
X62887265Y24260568D01*
X62700858Y24130046D01*
X62539954Y23969142D01*
X62409432Y23782735D01*
X62409431Y23782733D01*
X62382382Y23724725D01*
X62336209Y23672286D01*
X62269016Y23653134D01*
X62202135Y23673350D01*
X62157618Y23724725D01*
X62130686Y23782480D01*
X62130568Y23782734D01*
X62000047Y23969139D01*
X62000045Y23969142D01*
X61839141Y24130046D01*
X61652734Y24260568D01*
X61652732Y24260569D01*
X61446497Y24356739D01*
X61446488Y24356742D01*
X61226697Y24415634D01*
X61226693Y24415635D01*
X61226692Y24415635D01*
X61226691Y24415636D01*
X61226686Y24415636D01*
X61000002Y24435468D01*
X60999998Y24435468D01*
X60773313Y24415636D01*
X60773302Y24415634D01*
X60553511Y24356742D01*
X60553502Y24356739D01*
X60347267Y24260569D01*
X60347265Y24260568D01*
X60160858Y24130046D01*
X59999954Y23969142D01*
X59982725Y23944536D01*
X59928147Y23900912D01*
X59858648Y23893720D01*
X59796294Y23925243D01*
X59760882Y23985474D01*
X59757861Y24002409D01*
X59754091Y24037484D01*
X59703797Y24172329D01*
X59703793Y24172336D01*
X59617547Y24287545D01*
X59617544Y24287548D01*
X59502335Y24373794D01*
X59502328Y24373798D01*
X59367482Y24424092D01*
X59367483Y24424092D01*
X59307883Y24430499D01*
X59307881Y24430500D01*
X59307873Y24430500D01*
X59307864Y24430500D01*
X57612129Y24430500D01*
X57612123Y24430499D01*
X57552516Y24424092D01*
X57417671Y24373798D01*
X57417664Y24373794D01*
X57302455Y24287548D01*
X57302452Y24287545D01*
X57216206Y24172336D01*
X57216202Y24172329D01*
X57165908Y24037483D01*
X57159501Y23977884D01*
X57159500Y23977865D01*
X500500Y23977865D01*
X500500Y30750002D01*
X57154532Y30750002D01*
X57154532Y30749999D01*
X57174364Y30523314D01*
X57174366Y30523303D01*
X57233258Y30303512D01*
X57233261Y30303503D01*
X57329431Y30097268D01*
X57329432Y30097266D01*
X57459954Y29910859D01*
X57620858Y29749955D01*
X57620861Y29749953D01*
X57807266Y29619432D01*
X58013504Y29523261D01*
X58233308Y29464365D01*
X58395230Y29450199D01*
X58459998Y29444532D01*
X58460000Y29444532D01*
X58460002Y29444532D01*
X58516673Y29449491D01*
X58686692Y29464365D01*
X58906496Y29523261D01*
X59112734Y29619432D01*
X59299139Y29749953D01*
X59460047Y29910861D01*
X59590568Y30097266D01*
X59617618Y30155276D01*
X59663790Y30207715D01*
X59730983Y30226867D01*
X59797865Y30206652D01*
X59842382Y30155275D01*
X59869429Y30097272D01*
X59869432Y30097266D01*
X59999954Y29910859D01*
X60160858Y29749955D01*
X60160861Y29749953D01*
X60347266Y29619432D01*
X60553504Y29523261D01*
X60773308Y29464365D01*
X60935230Y29450199D01*
X60999998Y29444532D01*
X61000000Y29444532D01*
X61000002Y29444532D01*
X61056673Y29449491D01*
X61226692Y29464365D01*
X61446496Y29523261D01*
X61652734Y29619432D01*
X61839139Y29749953D01*
X62000047Y29910861D01*
X62130568Y30097266D01*
X62157618Y30155276D01*
X62203790Y30207715D01*
X62270983Y30226867D01*
X62337865Y30206652D01*
X62382382Y30155275D01*
X62409429Y30097272D01*
X62409432Y30097266D01*
X62539954Y29910859D01*
X62700858Y29749955D01*
X62700861Y29749953D01*
X62887266Y29619432D01*
X63093504Y29523261D01*
X63313308Y29464365D01*
X63475230Y29450199D01*
X63539998Y29444532D01*
X63540000Y29444532D01*
X63540002Y29444532D01*
X63596673Y29449491D01*
X63766692Y29464365D01*
X63986496Y29523261D01*
X64192734Y29619432D01*
X64379139Y29749953D01*
X64540047Y29910861D01*
X64670568Y30097266D01*
X64697895Y30155871D01*
X64744064Y30208305D01*
X64811257Y30227458D01*
X64878139Y30207243D01*
X64922657Y30155867D01*
X64949865Y30097518D01*
X65080342Y29911180D01*
X65241179Y29750343D01*
X65427517Y29619866D01*
X65633673Y29523735D01*
X65633682Y29523731D01*
X65829999Y29471128D01*
X65830000Y29471129D01*
X65830000Y30434314D01*
X65834394Y30429920D01*
X65925606Y30377259D01*
X66027339Y30350000D01*
X66132661Y30350000D01*
X66234394Y30377259D01*
X66325606Y30429920D01*
X66330000Y30434314D01*
X66330000Y29471128D01*
X66526317Y29523731D01*
X66526326Y29523735D01*
X66732482Y29619866D01*
X66918820Y29750343D01*
X67079657Y29911180D01*
X67210134Y30097519D01*
X67210135Y30097521D01*
X67237618Y30156457D01*
X67283790Y30208897D01*
X67350983Y30228049D01*
X67417864Y30207834D01*
X67462382Y30156457D01*
X67489864Y30097521D01*
X67489865Y30097519D01*
X67620342Y29911180D01*
X67781179Y29750343D01*
X67967517Y29619866D01*
X68173673Y29523735D01*
X68173682Y29523731D01*
X68369999Y29471128D01*
X68370000Y29471129D01*
X68370000Y30434314D01*
X68374394Y30429920D01*
X68465606Y30377259D01*
X68567339Y30350000D01*
X68672661Y30350000D01*
X68774394Y30377259D01*
X68865606Y30429920D01*
X68870000Y30434314D01*
X68870000Y29471128D01*
X69066317Y29523731D01*
X69066326Y29523735D01*
X69272482Y29619866D01*
X69458820Y29750343D01*
X69619657Y29911180D01*
X69750132Y30097516D01*
X69777341Y30155866D01*
X69823513Y30208305D01*
X69890707Y30227458D01*
X69957588Y30207243D01*
X70002106Y30155867D01*
X70029431Y30097268D01*
X70029432Y30097266D01*
X70159954Y29910859D01*
X70320858Y29749955D01*
X70320861Y29749953D01*
X70507266Y29619432D01*
X70713504Y29523261D01*
X70933308Y29464365D01*
X71095230Y29450199D01*
X71159998Y29444532D01*
X71160000Y29444532D01*
X71160002Y29444532D01*
X71216673Y29449491D01*
X71386692Y29464365D01*
X71606496Y29523261D01*
X71812734Y29619432D01*
X71999139Y29749953D01*
X72160047Y29910861D01*
X72290568Y30097266D01*
X72317618Y30155276D01*
X72363790Y30207715D01*
X72430983Y30226867D01*
X72497865Y30206652D01*
X72542382Y30155275D01*
X72569429Y30097272D01*
X72569432Y30097266D01*
X72699954Y29910859D01*
X72860858Y29749955D01*
X72860861Y29749953D01*
X73047266Y29619432D01*
X73253504Y29523261D01*
X73473308Y29464365D01*
X73635230Y29450199D01*
X73699998Y29444532D01*
X73700000Y29444532D01*
X73700002Y29444532D01*
X73756673Y29449491D01*
X73926692Y29464365D01*
X74146496Y29523261D01*
X74352734Y29619432D01*
X74539139Y29749953D01*
X74700047Y29910861D01*
X74830568Y30097266D01*
X74857618Y30155276D01*
X74903790Y30207715D01*
X74970983Y30226867D01*
X75037865Y30206652D01*
X75082382Y30155275D01*
X75109429Y30097272D01*
X75109432Y30097266D01*
X75239954Y29910859D01*
X75400858Y29749955D01*
X75400861Y29749953D01*
X75587266Y29619432D01*
X75793504Y29523261D01*
X76013308Y29464365D01*
X76175230Y29450199D01*
X76239998Y29444532D01*
X76240000Y29444532D01*
X76240002Y29444532D01*
X76296673Y29449491D01*
X76466692Y29464365D01*
X76686496Y29523261D01*
X76892734Y29619432D01*
X77079139Y29749953D01*
X77240047Y29910861D01*
X77302462Y30000000D01*
X83344540Y30000000D01*
X83364326Y29811744D01*
X83364327Y29811741D01*
X83422818Y29631723D01*
X83422820Y29631719D01*
X83422821Y29631716D01*
X83463072Y29561999D01*
X83479543Y29494099D01*
X83463072Y29438001D01*
X83422820Y29368282D01*
X83422818Y29368278D01*
X83385193Y29252478D01*
X83364326Y29188256D01*
X83344540Y29000000D01*
X83364326Y28811744D01*
X83364327Y28811741D01*
X83422818Y28631723D01*
X83422821Y28631716D01*
X83517467Y28467784D01*
X83618016Y28356113D01*
X83644129Y28327112D01*
X83797265Y28215852D01*
X83797270Y28215849D01*
X83970192Y28138858D01*
X83970197Y28138856D01*
X84155354Y28099500D01*
X84155355Y28099500D01*
X84344644Y28099500D01*
X84344646Y28099500D01*
X84529803Y28138856D01*
X84699566Y28214441D01*
X84768813Y28223725D01*
X84800430Y28214443D01*
X84970197Y28138856D01*
X85155354Y28099500D01*
X85155355Y28099500D01*
X85344644Y28099500D01*
X85344646Y28099500D01*
X85529803Y28138856D01*
X85702730Y28215849D01*
X85855871Y28327112D01*
X85897445Y28373286D01*
X85956929Y28409933D01*
X86026786Y28408604D01*
X86062479Y28390631D01*
X86090863Y28370009D01*
X86133529Y28314680D01*
X86139508Y28245066D01*
X86106903Y28183271D01*
X86090864Y28169373D01*
X86006257Y28107903D01*
X85844597Y27946243D01*
X85710211Y27761277D01*
X85606417Y27557571D01*
X85535765Y27340129D01*
X85521491Y27250000D01*
X86509252Y27250000D01*
X86487482Y27212292D01*
X86450000Y27072409D01*
X86450000Y26927591D01*
X86487482Y26787708D01*
X86509252Y26750000D01*
X85521491Y26750000D01*
X85535765Y26659872D01*
X85606417Y26442430D01*
X85710213Y26238721D01*
X85843011Y26055940D01*
X85866491Y25990134D01*
X85850666Y25922080D01*
X85800560Y25873385D01*
X85786026Y25866873D01*
X85757671Y25856298D01*
X85757664Y25856294D01*
X85642455Y25770048D01*
X85642452Y25770045D01*
X85556206Y25654836D01*
X85556202Y25654829D01*
X85505908Y25519983D01*
X85499501Y25460384D01*
X85499501Y25460377D01*
X85499500Y25460365D01*
X85499500Y23459630D01*
X85499501Y23459624D01*
X85505908Y23400017D01*
X85556202Y23265172D01*
X85556206Y23265165D01*
X85642452Y23149956D01*
X85642455Y23149953D01*
X85757664Y23063707D01*
X85757671Y23063703D01*
X85892517Y23013409D01*
X85892516Y23013409D01*
X85899444Y23012665D01*
X85952127Y23007000D01*
X88047872Y23007001D01*
X88107483Y23013409D01*
X88242331Y23063704D01*
X88357546Y23149954D01*
X88443796Y23265169D01*
X88494091Y23400017D01*
X88500500Y23459627D01*
X88500499Y25460372D01*
X88494091Y25519983D01*
X88443796Y25654831D01*
X88443795Y25654832D01*
X88443793Y25654836D01*
X88357547Y25770045D01*
X88357544Y25770048D01*
X88242335Y25856294D01*
X88242326Y25856299D01*
X88213974Y25866873D01*
X88158040Y25908743D01*
X88133622Y25974208D01*
X88148473Y26042481D01*
X88156988Y26055941D01*
X88289788Y26238724D01*
X88393582Y26442430D01*
X88464234Y26659872D01*
X88478509Y26750000D01*
X87490748Y26750000D01*
X87512518Y26787708D01*
X87550000Y26927591D01*
X87550000Y27072409D01*
X87512518Y27212292D01*
X87490748Y27250000D01*
X88478509Y27250000D01*
X88464234Y27340129D01*
X88393582Y27557571D01*
X88289788Y27761277D01*
X88155402Y27946243D01*
X87993742Y28107903D01*
X87909135Y28169374D01*
X87866470Y28224704D01*
X87860491Y28294318D01*
X87893097Y28356113D01*
X87909125Y28370001D01*
X87994066Y28431714D01*
X88155786Y28593434D01*
X88269542Y28750005D01*
X92595233Y28750005D01*
X92595233Y28749996D01*
X92614273Y28495921D01*
X92670968Y28247523D01*
X92670973Y28247506D01*
X92764058Y28010329D01*
X92764057Y28010329D01*
X92891454Y27789673D01*
X92891461Y27789662D01*
X92933452Y27737009D01*
X92933453Y27737008D01*
X93735387Y28538942D01*
X93740889Y28518409D01*
X93819881Y28381592D01*
X93931592Y28269881D01*
X94068409Y28190889D01*
X94088940Y28185388D01*
X93286813Y27383262D01*
X93447616Y27273629D01*
X93447624Y27273624D01*
X93629123Y27186220D01*
X93680983Y27139398D01*
X93699296Y27071971D01*
X93678249Y27005347D01*
X93624522Y26960679D01*
X93575322Y26950500D01*
X93052129Y26950500D01*
X93052123Y26950499D01*
X92992516Y26944092D01*
X92857671Y26893798D01*
X92857664Y26893794D01*
X92742455Y26807548D01*
X92742452Y26807545D01*
X92656206Y26692336D01*
X92656202Y26692329D01*
X92605908Y26557483D01*
X92599501Y26497884D01*
X92599501Y26497877D01*
X92599500Y26497865D01*
X92599500Y24002130D01*
X92599501Y24002124D01*
X92605908Y23942517D01*
X92656202Y23807672D01*
X92656206Y23807665D01*
X92742452Y23692456D01*
X92742455Y23692453D01*
X92857664Y23606207D01*
X92857671Y23606203D01*
X92992517Y23555909D01*
X92992516Y23555909D01*
X92999444Y23555165D01*
X93052127Y23549500D01*
X95547872Y23549501D01*
X95607483Y23555909D01*
X95742331Y23606204D01*
X95857546Y23692454D01*
X95943796Y23807669D01*
X95994091Y23942517D01*
X96000500Y24002127D01*
X96000499Y26497872D01*
X95994091Y26557483D01*
X95993193Y26559890D01*
X95943797Y26692329D01*
X95943793Y26692336D01*
X95857547Y26807545D01*
X95857544Y26807548D01*
X95742335Y26893794D01*
X95742328Y26893798D01*
X95607482Y26944092D01*
X95607483Y26944092D01*
X95547883Y26950499D01*
X95547881Y26950500D01*
X95547873Y26950500D01*
X95547865Y26950500D01*
X95024679Y26950500D01*
X94957640Y26970185D01*
X94911885Y27022989D01*
X94901941Y27092147D01*
X94930966Y27155703D01*
X94970878Y27186220D01*
X95152376Y27273624D01*
X95152377Y27273625D01*
X95313185Y27383262D01*
X94511060Y28185388D01*
X94531591Y28190889D01*
X94668408Y28269881D01*
X94780119Y28381592D01*
X94859111Y28518409D01*
X94864612Y28538941D01*
X95666544Y27737008D01*
X95666546Y27737009D01*
X95708544Y27789670D01*
X95835941Y28010329D01*
X95929026Y28247506D01*
X95929031Y28247523D01*
X95985726Y28495921D01*
X96004767Y28749996D01*
X96004767Y28750005D01*
X95985726Y29004080D01*
X95929031Y29252478D01*
X95929026Y29252495D01*
X95835941Y29489672D01*
X95835942Y29489672D01*
X95708545Y29710328D01*
X95666545Y29762994D01*
X94864612Y28961061D01*
X94859111Y28981591D01*
X94780119Y29118408D01*
X94668408Y29230119D01*
X94531591Y29309111D01*
X94511059Y29314613D01*
X95313185Y30116740D01*
X95152384Y30226372D01*
X95152376Y30226377D01*
X94922823Y30336922D01*
X94922825Y30336922D01*
X94679347Y30412025D01*
X94679341Y30412027D01*
X94427404Y30450000D01*
X94172595Y30450000D01*
X93920658Y30412027D01*
X93920652Y30412025D01*
X93677175Y30336922D01*
X93447622Y30226375D01*
X93447609Y30226368D01*
X93286813Y30116741D01*
X94088941Y29314613D01*
X94068409Y29309111D01*
X93931592Y29230119D01*
X93819881Y29118408D01*
X93740889Y28981591D01*
X93735387Y28961059D01*
X92933452Y29762994D01*
X92891457Y29710333D01*
X92764058Y29489672D01*
X92670973Y29252495D01*
X92670968Y29252478D01*
X92614273Y29004080D01*
X92595233Y28750005D01*
X88269542Y28750005D01*
X88290217Y28778462D01*
X88394048Y28982242D01*
X88464722Y29199755D01*
X88500500Y29425646D01*
X88500500Y29654354D01*
X88464722Y29880245D01*
X88464721Y29880249D01*
X88464721Y29880250D01*
X88394049Y30097756D01*
X88384376Y30116741D01*
X88290217Y30301538D01*
X88156108Y30486122D01*
X88132629Y30551928D01*
X88148454Y30619982D01*
X88164275Y30641977D01*
X88232533Y30717784D01*
X88327179Y30881716D01*
X88385674Y31061744D01*
X88405460Y31250000D01*
X88385674Y31438256D01*
X88327179Y31618284D01*
X88286927Y31688001D01*
X88270454Y31755899D01*
X88286927Y31811999D01*
X88327179Y31881716D01*
X88385674Y32061744D01*
X88405460Y32250000D01*
X88385674Y32438256D01*
X88327179Y32618284D01*
X88232533Y32782216D01*
X88105871Y32922888D01*
X88105870Y32922889D01*
X87952734Y33034149D01*
X87952729Y33034152D01*
X87779807Y33111143D01*
X87779802Y33111145D01*
X87634001Y33142135D01*
X87594646Y33150500D01*
X87405354Y33150500D01*
X87372897Y33143602D01*
X87220197Y33111145D01*
X87220192Y33111143D01*
X87050436Y33035561D01*
X86981186Y33026276D01*
X86949564Y33035561D01*
X86779807Y33111143D01*
X86779802Y33111145D01*
X86634001Y33142135D01*
X86594646Y33150500D01*
X86405354Y33150500D01*
X86372897Y33143602D01*
X86220197Y33111145D01*
X86220192Y33111143D01*
X86047270Y33034152D01*
X86047265Y33034149D01*
X85894129Y32922889D01*
X85767466Y32782215D01*
X85672821Y32618285D01*
X85672818Y32618278D01*
X85614327Y32438260D01*
X85614326Y32438256D01*
X85594540Y32250000D01*
X85614326Y32061744D01*
X85614327Y32061741D01*
X85672818Y31881723D01*
X85672820Y31881719D01*
X85672821Y31881716D01*
X85713071Y31812001D01*
X85713072Y31811999D01*
X85729543Y31744099D01*
X85713072Y31688001D01*
X85672820Y31618282D01*
X85672818Y31618278D01*
X85614327Y31438260D01*
X85614326Y31438256D01*
X85594540Y31250000D01*
X85614326Y31061744D01*
X85614327Y31061741D01*
X85624242Y31031226D01*
X85626237Y30961385D01*
X85590157Y30901552D01*
X85527456Y30870724D01*
X85480531Y30871617D01*
X85480161Y30871696D01*
X85344646Y30900500D01*
X85155354Y30900500D01*
X85122897Y30893602D01*
X84970197Y30861145D01*
X84970192Y30861143D01*
X84800436Y30785561D01*
X84731186Y30776276D01*
X84699564Y30785561D01*
X84529807Y30861143D01*
X84529802Y30861145D01*
X84384001Y30892135D01*
X84344646Y30900500D01*
X84155354Y30900500D01*
X84122897Y30893602D01*
X83970197Y30861145D01*
X83970192Y30861143D01*
X83797270Y30784152D01*
X83797265Y30784149D01*
X83644129Y30672889D01*
X83517466Y30532215D01*
X83422821Y30368285D01*
X83422818Y30368278D01*
X83370495Y30207243D01*
X83364326Y30188256D01*
X83344540Y30000000D01*
X77302462Y30000000D01*
X77370568Y30097266D01*
X77466739Y30303504D01*
X77525635Y30523308D01*
X77545468Y30750000D01*
X77525635Y30976692D01*
X77466739Y31196496D01*
X77370568Y31402734D01*
X77240047Y31589139D01*
X77240045Y31589142D01*
X77079141Y31750046D01*
X76892734Y31880568D01*
X76892732Y31880569D01*
X76686497Y31976739D01*
X76686488Y31976742D01*
X76466697Y32035634D01*
X76466693Y32035635D01*
X76466692Y32035635D01*
X76466691Y32035636D01*
X76466686Y32035636D01*
X76240002Y32055468D01*
X76239998Y32055468D01*
X76013313Y32035636D01*
X76013302Y32035634D01*
X75793511Y31976742D01*
X75793502Y31976739D01*
X75587267Y31880569D01*
X75587265Y31880568D01*
X75400858Y31750046D01*
X75239954Y31589142D01*
X75109432Y31402735D01*
X75109431Y31402733D01*
X75082382Y31344725D01*
X75036209Y31292286D01*
X74969016Y31273134D01*
X74902135Y31293350D01*
X74857618Y31344725D01*
X74830686Y31402480D01*
X74830568Y31402734D01*
X74700047Y31589139D01*
X74700045Y31589142D01*
X74539141Y31750046D01*
X74352734Y31880568D01*
X74352732Y31880569D01*
X74146497Y31976739D01*
X74146488Y31976742D01*
X73926697Y32035634D01*
X73926693Y32035635D01*
X73926692Y32035635D01*
X73926691Y32035636D01*
X73926686Y32035636D01*
X73700002Y32055468D01*
X73699998Y32055468D01*
X73473313Y32035636D01*
X73473302Y32035634D01*
X73253511Y31976742D01*
X73253502Y31976739D01*
X73047267Y31880569D01*
X73047265Y31880568D01*
X72860858Y31750046D01*
X72699954Y31589142D01*
X72569432Y31402735D01*
X72569431Y31402733D01*
X72542382Y31344725D01*
X72496209Y31292286D01*
X72429016Y31273134D01*
X72362135Y31293350D01*
X72317618Y31344725D01*
X72290686Y31402480D01*
X72290568Y31402734D01*
X72160047Y31589139D01*
X72160045Y31589142D01*
X71999141Y31750046D01*
X71812734Y31880568D01*
X71812732Y31880569D01*
X71606497Y31976739D01*
X71606488Y31976742D01*
X71386697Y32035634D01*
X71386693Y32035635D01*
X71386692Y32035635D01*
X71386691Y32035636D01*
X71386686Y32035636D01*
X71160002Y32055468D01*
X71159998Y32055468D01*
X70933313Y32035636D01*
X70933302Y32035634D01*
X70713511Y31976742D01*
X70713502Y31976739D01*
X70507267Y31880569D01*
X70507265Y31880568D01*
X70320858Y31750046D01*
X70159954Y31589142D01*
X70029433Y31402736D01*
X70029432Y31402734D01*
X70029315Y31402482D01*
X70002106Y31344133D01*
X69955933Y31291694D01*
X69888739Y31272543D01*
X69821858Y31292759D01*
X69777342Y31344135D01*
X69750135Y31402480D01*
X69750134Y31402482D01*
X69619657Y31588821D01*
X69458820Y31749658D01*
X69272482Y31880135D01*
X69066328Y31976266D01*
X68870000Y32028873D01*
X68870000Y31065686D01*
X68865606Y31070080D01*
X68774394Y31122741D01*
X68672661Y31150000D01*
X68567339Y31150000D01*
X68465606Y31122741D01*
X68374394Y31070080D01*
X68370000Y31065686D01*
X68370000Y32028873D01*
X68173671Y31976266D01*
X67967517Y31880135D01*
X67781179Y31749658D01*
X67620342Y31588821D01*
X67489865Y31402483D01*
X67462382Y31343543D01*
X67416210Y31291104D01*
X67349016Y31271952D01*
X67282135Y31292168D01*
X67237618Y31343543D01*
X67210134Y31402483D01*
X67079657Y31588821D01*
X66918820Y31749658D01*
X66732482Y31880135D01*
X66526328Y31976266D01*
X66330000Y32028873D01*
X66330000Y31065686D01*
X66325606Y31070080D01*
X66234394Y31122741D01*
X66132661Y31150000D01*
X66027339Y31150000D01*
X65925606Y31122741D01*
X65834394Y31070080D01*
X65830000Y31065686D01*
X65830000Y32028873D01*
X65633671Y31976266D01*
X65427517Y31880135D01*
X65241179Y31749658D01*
X65080342Y31588821D01*
X64949867Y31402485D01*
X64922657Y31344133D01*
X64876484Y31291694D01*
X64809290Y31272543D01*
X64742409Y31292759D01*
X64697893Y31344135D01*
X64670685Y31402482D01*
X64670568Y31402734D01*
X64540047Y31589139D01*
X64540045Y31589142D01*
X64379141Y31750046D01*
X64192734Y31880568D01*
X64192732Y31880569D01*
X63986497Y31976739D01*
X63986488Y31976742D01*
X63766697Y32035634D01*
X63766693Y32035635D01*
X63766692Y32035635D01*
X63766691Y32035636D01*
X63766686Y32035636D01*
X63540002Y32055468D01*
X63539998Y32055468D01*
X63313313Y32035636D01*
X63313302Y32035634D01*
X63093511Y31976742D01*
X63093502Y31976739D01*
X62887267Y31880569D01*
X62887265Y31880568D01*
X62700858Y31750046D01*
X62539954Y31589142D01*
X62409432Y31402735D01*
X62409431Y31402733D01*
X62382382Y31344725D01*
X62336209Y31292286D01*
X62269016Y31273134D01*
X62202135Y31293350D01*
X62157618Y31344725D01*
X62130686Y31402480D01*
X62130568Y31402734D01*
X62000047Y31589139D01*
X62000045Y31589142D01*
X61839141Y31750046D01*
X61652734Y31880568D01*
X61652732Y31880569D01*
X61446497Y31976739D01*
X61446488Y31976742D01*
X61226697Y32035634D01*
X61226693Y32035635D01*
X61226692Y32035635D01*
X61226691Y32035636D01*
X61226686Y32035636D01*
X61000002Y32055468D01*
X60999998Y32055468D01*
X60773313Y32035636D01*
X60773302Y32035634D01*
X60553511Y31976742D01*
X60553502Y31976739D01*
X60347267Y31880569D01*
X60347265Y31880568D01*
X60160858Y31750046D01*
X59999954Y31589142D01*
X59869432Y31402735D01*
X59869431Y31402733D01*
X59842382Y31344725D01*
X59796209Y31292286D01*
X59729016Y31273134D01*
X59662135Y31293350D01*
X59617618Y31344725D01*
X59590686Y31402480D01*
X59590568Y31402734D01*
X59460047Y31589139D01*
X59460045Y31589142D01*
X59299141Y31750046D01*
X59112734Y31880568D01*
X59112732Y31880569D01*
X58906497Y31976739D01*
X58906488Y31976742D01*
X58686697Y32035634D01*
X58686693Y32035635D01*
X58686692Y32035635D01*
X58686691Y32035636D01*
X58686686Y32035636D01*
X58460002Y32055468D01*
X58459998Y32055468D01*
X58233313Y32035636D01*
X58233302Y32035634D01*
X58013511Y31976742D01*
X58013502Y31976739D01*
X57807267Y31880569D01*
X57807265Y31880568D01*
X57620858Y31750046D01*
X57459954Y31589142D01*
X57329432Y31402735D01*
X57329431Y31402733D01*
X57233261Y31196498D01*
X57233258Y31196489D01*
X57174366Y30976698D01*
X57174364Y30976687D01*
X57154532Y30750002D01*
X500500Y30750002D01*
X500500Y38250000D01*
X85094540Y38250000D01*
X85114326Y38061744D01*
X85114327Y38061741D01*
X85172818Y37881723D01*
X85172820Y37881719D01*
X85172821Y37881716D01*
X85172823Y37881713D01*
X85213072Y37811999D01*
X85229543Y37744099D01*
X85213072Y37688001D01*
X85172820Y37618282D01*
X85172818Y37618278D01*
X85114327Y37438260D01*
X85114326Y37438256D01*
X85094540Y37250000D01*
X85114326Y37061744D01*
X85114327Y37061741D01*
X85172818Y36881723D01*
X85172821Y36881716D01*
X85267467Y36717784D01*
X85375000Y36598357D01*
X85394129Y36577112D01*
X85547265Y36465852D01*
X85547270Y36465849D01*
X85720192Y36388858D01*
X85720197Y36388856D01*
X85905354Y36349500D01*
X85905355Y36349500D01*
X86094644Y36349500D01*
X86094646Y36349500D01*
X86279803Y36388856D01*
X86452730Y36465849D01*
X86552115Y36538056D01*
X86617921Y36561536D01*
X86685975Y36545711D01*
X86697885Y36538056D01*
X86797265Y36465852D01*
X86797270Y36465849D01*
X86970192Y36388858D01*
X86970197Y36388856D01*
X87155354Y36349500D01*
X87155355Y36349500D01*
X87344644Y36349500D01*
X87344646Y36349500D01*
X87529803Y36388856D01*
X87702730Y36465849D01*
X87855871Y36577112D01*
X87982533Y36717784D01*
X88077179Y36881716D01*
X88135674Y37061744D01*
X88155460Y37250000D01*
X88135674Y37438256D01*
X88077179Y37618284D01*
X88036927Y37688001D01*
X88020454Y37755899D01*
X88036927Y37811999D01*
X88077179Y37881716D01*
X88135674Y38061744D01*
X88155460Y38250000D01*
X88135674Y38438256D01*
X88077179Y38618284D01*
X88072179Y38626943D01*
X88055706Y38694842D01*
X88074297Y38748563D01*
X88071870Y38749888D01*
X88076120Y38757671D01*
X88108697Y38845016D01*
X88126414Y38892517D01*
X88132823Y38952127D01*
X88132822Y40000006D01*
X90127182Y40000006D01*
X90127182Y39999995D01*
X90147708Y39752271D01*
X90147710Y39752262D01*
X90208735Y39511283D01*
X90308589Y39283636D01*
X90408887Y39130118D01*
X91149360Y39870591D01*
X91166398Y39807007D01*
X91232224Y39692993D01*
X91325316Y39599901D01*
X91439330Y39534075D01*
X91502913Y39517038D01*
X90762265Y38776391D01*
X90809091Y38739945D01*
X90809093Y38739944D01*
X91027708Y38621636D01*
X91027719Y38621631D01*
X91262829Y38540917D01*
X91508030Y38500000D01*
X91756616Y38500000D01*
X92001816Y38540917D01*
X92236926Y38621631D01*
X92236937Y38621636D01*
X92455551Y38739943D01*
X92455554Y38739945D01*
X92502379Y38776391D01*
X91761732Y39517038D01*
X91825316Y39534075D01*
X91939330Y39599901D01*
X92032422Y39692993D01*
X92098248Y39807007D01*
X92115285Y39870591D01*
X92855757Y39130118D01*
X92956054Y39283631D01*
X93055910Y39511283D01*
X93116935Y39752262D01*
X93116937Y39752271D01*
X93137464Y39999995D01*
X93137464Y40000006D01*
X93116937Y40247730D01*
X93116935Y40247739D01*
X93055910Y40488718D01*
X92956054Y40716370D01*
X92855757Y40869884D01*
X92115285Y40129411D01*
X92098248Y40192993D01*
X92032422Y40307007D01*
X91939330Y40400099D01*
X91825316Y40465925D01*
X91761733Y40482963D01*
X92502380Y41223610D01*
X92502379Y41223611D01*
X92455552Y41260057D01*
X92236937Y41378365D01*
X92236926Y41378370D01*
X92001816Y41459084D01*
X91756616Y41500000D01*
X91508030Y41500000D01*
X91262829Y41459084D01*
X91027719Y41378370D01*
X91027713Y41378368D01*
X90809084Y41260051D01*
X90762265Y41223612D01*
X90762265Y41223610D01*
X91502913Y40482963D01*
X91439330Y40465925D01*
X91325316Y40400099D01*
X91232224Y40307007D01*
X91166398Y40192993D01*
X91149360Y40129411D01*
X90408887Y40869884D01*
X90308590Y40716368D01*
X90208735Y40488718D01*
X90147710Y40247739D01*
X90147708Y40247730D01*
X90127182Y40000006D01*
X88132822Y40000006D01*
X88132822Y41047872D01*
X88126414Y41107483D01*
X88083101Y41223610D01*
X88076120Y41242329D01*
X88076116Y41242336D01*
X87989870Y41357545D01*
X87989867Y41357548D01*
X87874658Y41443794D01*
X87874651Y41443798D01*
X87739805Y41494092D01*
X87739806Y41494092D01*
X87680206Y41500499D01*
X87680204Y41500500D01*
X87680196Y41500500D01*
X87680187Y41500500D01*
X85584452Y41500500D01*
X85584446Y41500499D01*
X85524839Y41494092D01*
X85389994Y41443798D01*
X85389987Y41443794D01*
X85274778Y41357548D01*
X85274775Y41357545D01*
X85188529Y41242336D01*
X85188525Y41242329D01*
X85138231Y41107483D01*
X85131824Y41047884D01*
X85131824Y41047877D01*
X85131823Y41047865D01*
X85131823Y38952130D01*
X85131824Y38952124D01*
X85138231Y38892517D01*
X85191626Y38749359D01*
X85189377Y38748521D01*
X85201486Y38692866D01*
X85185190Y38639709D01*
X85172820Y38618285D01*
X85120157Y38456203D01*
X85114326Y38438256D01*
X85094540Y38250000D01*
X500500Y38250000D01*
X500500Y38533181D01*
X520185Y38600220D01*
X572989Y38645975D01*
X642147Y38655919D01*
X705703Y38626894D01*
X723764Y38607495D01*
X772454Y38542454D01*
X818643Y38507877D01*
X887664Y38456207D01*
X887671Y38456203D01*
X1022517Y38405909D01*
X1022516Y38405909D01*
X1029444Y38405165D01*
X1082127Y38399500D01*
X2877872Y38399501D01*
X2937483Y38405909D01*
X3072331Y38456204D01*
X3187546Y38542454D01*
X3273796Y38657669D01*
X3322810Y38789084D01*
X3364681Y38845016D01*
X3430145Y38869434D01*
X3498418Y38854583D01*
X3526673Y38833431D01*
X3648599Y38711505D01*
X3727984Y38655919D01*
X3842165Y38575968D01*
X3842167Y38575967D01*
X3842170Y38575965D01*
X4056337Y38476097D01*
X4284592Y38414937D01*
X4461034Y38399500D01*
X4519999Y38394341D01*
X4520000Y38394341D01*
X4520001Y38394341D01*
X4578966Y38399500D01*
X4755408Y38414937D01*
X4983663Y38476097D01*
X5197830Y38575965D01*
X5391401Y38711505D01*
X5558495Y38878599D01*
X5688425Y39064158D01*
X5743002Y39107783D01*
X5812500Y39114977D01*
X5874855Y39083454D01*
X5891575Y39064158D01*
X6021500Y38878605D01*
X6021505Y38878599D01*
X6188599Y38711505D01*
X6267984Y38655919D01*
X6382165Y38575968D01*
X6382167Y38575967D01*
X6382170Y38575965D01*
X6596337Y38476097D01*
X6824592Y38414937D01*
X7001034Y38399500D01*
X7059999Y38394341D01*
X7060000Y38394341D01*
X7060001Y38394341D01*
X7118966Y38399500D01*
X7295408Y38414937D01*
X7523663Y38476097D01*
X7737830Y38575965D01*
X7931401Y38711505D01*
X8098495Y38878599D01*
X8228425Y39064158D01*
X8283002Y39107783D01*
X8352500Y39114977D01*
X8414855Y39083454D01*
X8431575Y39064158D01*
X8561500Y38878605D01*
X8561505Y38878599D01*
X8728599Y38711505D01*
X8807984Y38655919D01*
X8922165Y38575968D01*
X8922167Y38575967D01*
X8922170Y38575965D01*
X9136337Y38476097D01*
X9364592Y38414937D01*
X9541034Y38399500D01*
X9599999Y38394341D01*
X9600000Y38394341D01*
X9600001Y38394341D01*
X9658966Y38399500D01*
X9835408Y38414937D01*
X10063663Y38476097D01*
X10277830Y38575965D01*
X10471401Y38711505D01*
X10638495Y38878599D01*
X10768425Y39064158D01*
X10823002Y39107783D01*
X10892500Y39114977D01*
X10954855Y39083454D01*
X10971575Y39064158D01*
X11101500Y38878605D01*
X11101505Y38878599D01*
X11268599Y38711505D01*
X11347984Y38655919D01*
X11462165Y38575968D01*
X11462167Y38575967D01*
X11462170Y38575965D01*
X11676337Y38476097D01*
X11904592Y38414937D01*
X12081034Y38399500D01*
X12139999Y38394341D01*
X12140000Y38394341D01*
X12140001Y38394341D01*
X12198966Y38399500D01*
X12375408Y38414937D01*
X12603663Y38476097D01*
X12817830Y38575965D01*
X13011401Y38711505D01*
X13178495Y38878599D01*
X13308425Y39064158D01*
X13363002Y39107783D01*
X13432500Y39114977D01*
X13494855Y39083454D01*
X13511575Y39064158D01*
X13641500Y38878605D01*
X13641505Y38878599D01*
X13808599Y38711505D01*
X13887984Y38655919D01*
X14002165Y38575968D01*
X14002167Y38575967D01*
X14002170Y38575965D01*
X14216337Y38476097D01*
X14444592Y38414937D01*
X14621034Y38399500D01*
X14679999Y38394341D01*
X14680000Y38394341D01*
X14680001Y38394341D01*
X14738966Y38399500D01*
X14915408Y38414937D01*
X15143663Y38476097D01*
X15357830Y38575965D01*
X15551401Y38711505D01*
X15718495Y38878599D01*
X15848425Y39064158D01*
X15903002Y39107783D01*
X15972500Y39114977D01*
X16034855Y39083454D01*
X16051575Y39064158D01*
X16181500Y38878605D01*
X16181505Y38878599D01*
X16348599Y38711505D01*
X16427984Y38655919D01*
X16542165Y38575968D01*
X16542167Y38575967D01*
X16542170Y38575965D01*
X16756337Y38476097D01*
X16984592Y38414937D01*
X17161034Y38399500D01*
X17219999Y38394341D01*
X17220000Y38394341D01*
X17220001Y38394341D01*
X17278966Y38399500D01*
X17455408Y38414937D01*
X17683663Y38476097D01*
X17897830Y38575965D01*
X18091401Y38711505D01*
X18258495Y38878599D01*
X18388425Y39064158D01*
X18443002Y39107783D01*
X18512500Y39114977D01*
X18574855Y39083454D01*
X18591575Y39064158D01*
X18721500Y38878605D01*
X18721505Y38878599D01*
X18888599Y38711505D01*
X18967984Y38655919D01*
X19082165Y38575968D01*
X19082167Y38575967D01*
X19082170Y38575965D01*
X19296337Y38476097D01*
X19524592Y38414937D01*
X19701034Y38399500D01*
X19759999Y38394341D01*
X19760000Y38394341D01*
X19760001Y38394341D01*
X19818966Y38399500D01*
X19995408Y38414937D01*
X20223663Y38476097D01*
X20437830Y38575965D01*
X20631401Y38711505D01*
X20798495Y38878599D01*
X20928425Y39064158D01*
X20983002Y39107783D01*
X21052500Y39114977D01*
X21114855Y39083454D01*
X21131575Y39064158D01*
X21261500Y38878605D01*
X21261505Y38878599D01*
X21428599Y38711505D01*
X21507984Y38655919D01*
X21622165Y38575968D01*
X21622167Y38575967D01*
X21622170Y38575965D01*
X21836337Y38476097D01*
X22064592Y38414937D01*
X22241034Y38399500D01*
X22299999Y38394341D01*
X22300000Y38394341D01*
X22300001Y38394341D01*
X22358966Y38399500D01*
X22535408Y38414937D01*
X22763663Y38476097D01*
X22977830Y38575965D01*
X23171401Y38711505D01*
X23338495Y38878599D01*
X23468425Y39064158D01*
X23523002Y39107783D01*
X23592500Y39114977D01*
X23654855Y39083454D01*
X23671575Y39064158D01*
X23801500Y38878605D01*
X23801505Y38878599D01*
X23968599Y38711505D01*
X24047984Y38655919D01*
X24162165Y38575968D01*
X24162167Y38575967D01*
X24162170Y38575965D01*
X24376337Y38476097D01*
X24604592Y38414937D01*
X24781034Y38399500D01*
X24839999Y38394341D01*
X24840000Y38394341D01*
X24840001Y38394341D01*
X24898966Y38399500D01*
X25075408Y38414937D01*
X25303663Y38476097D01*
X25517830Y38575965D01*
X25711401Y38711505D01*
X25878495Y38878599D01*
X26008425Y39064158D01*
X26063002Y39107783D01*
X26132500Y39114977D01*
X26194855Y39083454D01*
X26211575Y39064158D01*
X26341500Y38878605D01*
X26341505Y38878599D01*
X26508599Y38711505D01*
X26587984Y38655919D01*
X26702165Y38575968D01*
X26702167Y38575967D01*
X26702170Y38575965D01*
X26916337Y38476097D01*
X27144592Y38414937D01*
X27321034Y38399500D01*
X27379999Y38394341D01*
X27380000Y38394341D01*
X27380001Y38394341D01*
X27438966Y38399500D01*
X27615408Y38414937D01*
X27843663Y38476097D01*
X28057830Y38575965D01*
X28251401Y38711505D01*
X28418495Y38878599D01*
X28548425Y39064158D01*
X28603002Y39107783D01*
X28672500Y39114977D01*
X28734855Y39083454D01*
X28751575Y39064158D01*
X28881500Y38878605D01*
X28881505Y38878599D01*
X29048599Y38711505D01*
X29127984Y38655919D01*
X29242165Y38575968D01*
X29242167Y38575967D01*
X29242170Y38575965D01*
X29456337Y38476097D01*
X29684592Y38414937D01*
X29861034Y38399500D01*
X29919999Y38394341D01*
X29920000Y38394341D01*
X29920001Y38394341D01*
X29978966Y38399500D01*
X30155408Y38414937D01*
X30383663Y38476097D01*
X30597830Y38575965D01*
X30791401Y38711505D01*
X30958495Y38878599D01*
X31088425Y39064158D01*
X31143002Y39107783D01*
X31212500Y39114977D01*
X31274855Y39083454D01*
X31291575Y39064158D01*
X31421500Y38878605D01*
X31421505Y38878599D01*
X31588599Y38711505D01*
X31667984Y38655919D01*
X31782165Y38575968D01*
X31782167Y38575967D01*
X31782170Y38575965D01*
X31996337Y38476097D01*
X32224592Y38414937D01*
X32401034Y38399500D01*
X32459999Y38394341D01*
X32460000Y38394341D01*
X32460001Y38394341D01*
X32518966Y38399500D01*
X32695408Y38414937D01*
X32923663Y38476097D01*
X33137830Y38575965D01*
X33331401Y38711505D01*
X33498495Y38878599D01*
X33628730Y39064595D01*
X33683307Y39108219D01*
X33752805Y39115413D01*
X33815160Y39083890D01*
X33831879Y39064595D01*
X33961890Y38878922D01*
X34128917Y38711895D01*
X34322421Y38576400D01*
X34536507Y38476571D01*
X34536516Y38476567D01*
X34750000Y38419366D01*
X34750000Y39316988D01*
X34807007Y39284075D01*
X34934174Y39250000D01*
X35065826Y39250000D01*
X35192993Y39284075D01*
X35250000Y39316988D01*
X35250000Y38419367D01*
X35463483Y38476567D01*
X35463492Y38476571D01*
X35677578Y38576400D01*
X35871082Y38711895D01*
X36038105Y38878918D01*
X36168119Y39064595D01*
X36222696Y39108219D01*
X36292195Y39115412D01*
X36354549Y39083890D01*
X36371269Y39064595D01*
X36501505Y38878599D01*
X36668599Y38711505D01*
X36747984Y38655919D01*
X36862165Y38575968D01*
X36862167Y38575967D01*
X36862170Y38575965D01*
X37076337Y38476097D01*
X37304592Y38414937D01*
X37481034Y38399500D01*
X37539999Y38394341D01*
X37540000Y38394341D01*
X37540001Y38394341D01*
X37598966Y38399500D01*
X37775408Y38414937D01*
X38003663Y38476097D01*
X38217830Y38575965D01*
X38411401Y38711505D01*
X38578495Y38878599D01*
X38714035Y39072170D01*
X38813903Y39286337D01*
X38875063Y39514592D01*
X38895659Y39750000D01*
X38875063Y39985408D01*
X38828626Y40158715D01*
X38813905Y40213656D01*
X38813904Y40213657D01*
X38813903Y40213663D01*
X38714035Y40427829D01*
X38708731Y40435405D01*
X38578494Y40621403D01*
X38411402Y40788494D01*
X38411395Y40788499D01*
X38217834Y40924033D01*
X38217830Y40924035D01*
X38182598Y40940464D01*
X38003663Y41023903D01*
X38003659Y41023904D01*
X38003655Y41023906D01*
X37775413Y41085062D01*
X37775403Y41085064D01*
X37540001Y41105659D01*
X37539999Y41105659D01*
X37304596Y41085064D01*
X37304586Y41085062D01*
X37076344Y41023906D01*
X37076335Y41023902D01*
X36862171Y40924036D01*
X36862169Y40924035D01*
X36668597Y40788495D01*
X36501508Y40621406D01*
X36371269Y40435405D01*
X36316692Y40391781D01*
X36247193Y40384588D01*
X36184839Y40416110D01*
X36168119Y40435406D01*
X36038113Y40621074D01*
X36038108Y40621080D01*
X35871082Y40788106D01*
X35677578Y40923601D01*
X35463492Y41023430D01*
X35463486Y41023433D01*
X35250000Y41080636D01*
X35250000Y40183012D01*
X35192993Y40215925D01*
X35065826Y40250000D01*
X34934174Y40250000D01*
X34807007Y40215925D01*
X34750000Y40183012D01*
X34750000Y41080636D01*
X34749999Y41080636D01*
X34536513Y41023433D01*
X34536507Y41023430D01*
X34322422Y40923601D01*
X34322420Y40923600D01*
X34128926Y40788114D01*
X34128920Y40788109D01*
X33961891Y40621080D01*
X33961890Y40621078D01*
X33831880Y40435405D01*
X33777303Y40391781D01*
X33707804Y40384588D01*
X33645450Y40416110D01*
X33628730Y40435406D01*
X33498494Y40621403D01*
X33331402Y40788494D01*
X33331395Y40788499D01*
X33137834Y40924033D01*
X33137830Y40924035D01*
X33102598Y40940464D01*
X32923663Y41023903D01*
X32923659Y41023904D01*
X32923655Y41023906D01*
X32695413Y41085062D01*
X32695403Y41085064D01*
X32460001Y41105659D01*
X32459999Y41105659D01*
X32224596Y41085064D01*
X32224586Y41085062D01*
X31996344Y41023906D01*
X31996335Y41023902D01*
X31782171Y40924036D01*
X31782169Y40924035D01*
X31588597Y40788495D01*
X31421505Y40621403D01*
X31291575Y40435842D01*
X31236998Y40392217D01*
X31167500Y40385023D01*
X31105145Y40416546D01*
X31088425Y40435842D01*
X30958494Y40621403D01*
X30791402Y40788494D01*
X30791395Y40788499D01*
X30597834Y40924033D01*
X30597830Y40924035D01*
X30562598Y40940464D01*
X30383663Y41023903D01*
X30383659Y41023904D01*
X30383655Y41023906D01*
X30155413Y41085062D01*
X30155403Y41085064D01*
X29920001Y41105659D01*
X29919999Y41105659D01*
X29684596Y41085064D01*
X29684586Y41085062D01*
X29456344Y41023906D01*
X29456335Y41023902D01*
X29242171Y40924036D01*
X29242169Y40924035D01*
X29048597Y40788495D01*
X28881505Y40621403D01*
X28751575Y40435842D01*
X28696998Y40392217D01*
X28627500Y40385023D01*
X28565145Y40416546D01*
X28548425Y40435842D01*
X28418494Y40621403D01*
X28251402Y40788494D01*
X28251395Y40788499D01*
X28057834Y40924033D01*
X28057830Y40924035D01*
X28022598Y40940464D01*
X27843663Y41023903D01*
X27843659Y41023904D01*
X27843655Y41023906D01*
X27615413Y41085062D01*
X27615403Y41085064D01*
X27380001Y41105659D01*
X27379999Y41105659D01*
X27144596Y41085064D01*
X27144586Y41085062D01*
X26916344Y41023906D01*
X26916335Y41023902D01*
X26702171Y40924036D01*
X26702169Y40924035D01*
X26508597Y40788495D01*
X26341505Y40621403D01*
X26211575Y40435842D01*
X26156998Y40392217D01*
X26087500Y40385023D01*
X26025145Y40416546D01*
X26008425Y40435842D01*
X25878494Y40621403D01*
X25711402Y40788494D01*
X25711395Y40788499D01*
X25517834Y40924033D01*
X25517830Y40924035D01*
X25482598Y40940464D01*
X25303663Y41023903D01*
X25303659Y41023904D01*
X25303655Y41023906D01*
X25075413Y41085062D01*
X25075403Y41085064D01*
X24840001Y41105659D01*
X24839999Y41105659D01*
X24604596Y41085064D01*
X24604586Y41085062D01*
X24376344Y41023906D01*
X24376335Y41023902D01*
X24162171Y40924036D01*
X24162169Y40924035D01*
X23968597Y40788495D01*
X23801505Y40621403D01*
X23671575Y40435842D01*
X23616998Y40392217D01*
X23547500Y40385023D01*
X23485145Y40416546D01*
X23468425Y40435842D01*
X23338494Y40621403D01*
X23171402Y40788494D01*
X23171395Y40788499D01*
X22977834Y40924033D01*
X22977830Y40924035D01*
X22942598Y40940464D01*
X22763663Y41023903D01*
X22763659Y41023904D01*
X22763655Y41023906D01*
X22535413Y41085062D01*
X22535403Y41085064D01*
X22300001Y41105659D01*
X22299999Y41105659D01*
X22064596Y41085064D01*
X22064586Y41085062D01*
X21836344Y41023906D01*
X21836335Y41023902D01*
X21622171Y40924036D01*
X21622169Y40924035D01*
X21428597Y40788495D01*
X21261505Y40621403D01*
X21131575Y40435842D01*
X21076998Y40392217D01*
X21007500Y40385023D01*
X20945145Y40416546D01*
X20928425Y40435842D01*
X20798494Y40621403D01*
X20631402Y40788494D01*
X20631395Y40788499D01*
X20437834Y40924033D01*
X20437830Y40924035D01*
X20402598Y40940464D01*
X20223663Y41023903D01*
X20223659Y41023904D01*
X20223655Y41023906D01*
X19995413Y41085062D01*
X19995403Y41085064D01*
X19760001Y41105659D01*
X19759999Y41105659D01*
X19524596Y41085064D01*
X19524586Y41085062D01*
X19296344Y41023906D01*
X19296335Y41023902D01*
X19082171Y40924036D01*
X19082169Y40924035D01*
X18888597Y40788495D01*
X18721505Y40621403D01*
X18591575Y40435842D01*
X18536998Y40392217D01*
X18467500Y40385023D01*
X18405145Y40416546D01*
X18388425Y40435842D01*
X18258494Y40621403D01*
X18091402Y40788494D01*
X18091395Y40788499D01*
X17897834Y40924033D01*
X17897830Y40924035D01*
X17862598Y40940464D01*
X17683663Y41023903D01*
X17683659Y41023904D01*
X17683655Y41023906D01*
X17455413Y41085062D01*
X17455403Y41085064D01*
X17220001Y41105659D01*
X17219999Y41105659D01*
X16984596Y41085064D01*
X16984586Y41085062D01*
X16756344Y41023906D01*
X16756335Y41023902D01*
X16542171Y40924036D01*
X16542169Y40924035D01*
X16348597Y40788495D01*
X16181505Y40621403D01*
X16051575Y40435842D01*
X15996998Y40392217D01*
X15927500Y40385023D01*
X15865145Y40416546D01*
X15848425Y40435842D01*
X15718494Y40621403D01*
X15551402Y40788494D01*
X15551395Y40788499D01*
X15357834Y40924033D01*
X15357830Y40924035D01*
X15322598Y40940464D01*
X15143663Y41023903D01*
X15143659Y41023904D01*
X15143655Y41023906D01*
X14915413Y41085062D01*
X14915403Y41085064D01*
X14680001Y41105659D01*
X14679999Y41105659D01*
X14444596Y41085064D01*
X14444586Y41085062D01*
X14216344Y41023906D01*
X14216335Y41023902D01*
X14002171Y40924036D01*
X14002169Y40924035D01*
X13808597Y40788495D01*
X13641505Y40621403D01*
X13511575Y40435842D01*
X13456998Y40392217D01*
X13387500Y40385023D01*
X13325145Y40416546D01*
X13308425Y40435842D01*
X13178494Y40621403D01*
X13011402Y40788494D01*
X13011395Y40788499D01*
X12817834Y40924033D01*
X12817830Y40924035D01*
X12782598Y40940464D01*
X12603663Y41023903D01*
X12603659Y41023904D01*
X12603655Y41023906D01*
X12375413Y41085062D01*
X12375403Y41085064D01*
X12140001Y41105659D01*
X12139999Y41105659D01*
X11904596Y41085064D01*
X11904586Y41085062D01*
X11676344Y41023906D01*
X11676335Y41023902D01*
X11462171Y40924036D01*
X11462169Y40924035D01*
X11268597Y40788495D01*
X11101505Y40621403D01*
X10971575Y40435842D01*
X10916998Y40392217D01*
X10847500Y40385023D01*
X10785145Y40416546D01*
X10768425Y40435842D01*
X10638494Y40621403D01*
X10471402Y40788494D01*
X10471395Y40788499D01*
X10277834Y40924033D01*
X10277830Y40924035D01*
X10242598Y40940464D01*
X10063663Y41023903D01*
X10063659Y41023904D01*
X10063655Y41023906D01*
X9835413Y41085062D01*
X9835403Y41085064D01*
X9600001Y41105659D01*
X9599999Y41105659D01*
X9364596Y41085064D01*
X9364586Y41085062D01*
X9136344Y41023906D01*
X9136335Y41023902D01*
X8922171Y40924036D01*
X8922169Y40924035D01*
X8728597Y40788495D01*
X8561505Y40621403D01*
X8431575Y40435842D01*
X8376998Y40392217D01*
X8307500Y40385023D01*
X8245145Y40416546D01*
X8228425Y40435842D01*
X8098494Y40621403D01*
X7931402Y40788494D01*
X7931395Y40788499D01*
X7737834Y40924033D01*
X7737830Y40924035D01*
X7702598Y40940464D01*
X7523663Y41023903D01*
X7523659Y41023904D01*
X7523655Y41023906D01*
X7295413Y41085062D01*
X7295403Y41085064D01*
X7060001Y41105659D01*
X7059999Y41105659D01*
X6824596Y41085064D01*
X6824586Y41085062D01*
X6596344Y41023906D01*
X6596335Y41023902D01*
X6382171Y40924036D01*
X6382169Y40924035D01*
X6188597Y40788495D01*
X6021505Y40621403D01*
X5891575Y40435842D01*
X5836998Y40392217D01*
X5767500Y40385023D01*
X5705145Y40416546D01*
X5688425Y40435842D01*
X5558494Y40621403D01*
X5391402Y40788494D01*
X5391395Y40788499D01*
X5197834Y40924033D01*
X5197830Y40924035D01*
X5162598Y40940464D01*
X4983663Y41023903D01*
X4983659Y41023904D01*
X4983655Y41023906D01*
X4755413Y41085062D01*
X4755403Y41085064D01*
X4520001Y41105659D01*
X4519999Y41105659D01*
X4284596Y41085064D01*
X4284586Y41085062D01*
X4056344Y41023906D01*
X4056335Y41023902D01*
X3842171Y40924036D01*
X3842169Y40924035D01*
X3648600Y40788497D01*
X3526673Y40666570D01*
X3465350Y40633086D01*
X3395658Y40638070D01*
X3339725Y40679942D01*
X3322810Y40710919D01*
X3273797Y40842329D01*
X3273793Y40842336D01*
X3187547Y40957545D01*
X3187544Y40957548D01*
X3072335Y41043794D01*
X3072328Y41043798D01*
X2937482Y41094092D01*
X2937483Y41094092D01*
X2877883Y41100499D01*
X2877881Y41100500D01*
X2877873Y41100500D01*
X2877864Y41100500D01*
X1082129Y41100500D01*
X1082123Y41100499D01*
X1022516Y41094092D01*
X887671Y41043798D01*
X887664Y41043794D01*
X772455Y40957548D01*
X723766Y40892508D01*
X667832Y40850638D01*
X598140Y40845654D01*
X536817Y40879140D01*
X503333Y40940464D01*
X500500Y40966820D01*
X500500Y48997294D01*
X500559Y49000001D01*
X1294922Y49000001D01*
X1294922Y49000000D01*
X1315219Y48612713D01*
X1375886Y48229677D01*
X1375887Y48229670D01*
X1476262Y47855064D01*
X1615244Y47493006D01*
X1791310Y47147457D01*
X2002531Y46822207D01*
X2211095Y46564650D01*
X2211096Y46564650D01*
X3705748Y48059302D01*
X3779588Y47957670D01*
X3957670Y47779588D01*
X4059300Y47705749D01*
X2564648Y46211097D01*
X2564649Y46211096D01*
X2822206Y46002532D01*
X3147456Y45791311D01*
X3493005Y45615245D01*
X3855063Y45476263D01*
X4229669Y45375888D01*
X4229676Y45375887D01*
X4612712Y45315220D01*
X4999999Y45294922D01*
X5000001Y45294922D01*
X5387287Y45315220D01*
X5770323Y45375887D01*
X5770330Y45375888D01*
X6144936Y45476263D01*
X6506994Y45615245D01*
X6852543Y45791311D01*
X7177783Y46002524D01*
X7177785Y46002525D01*
X7435349Y46211098D01*
X5940698Y47705749D01*
X6042330Y47779588D01*
X6220412Y47957670D01*
X6294251Y48059302D01*
X7788902Y46564651D01*
X7997475Y46822215D01*
X7997476Y46822217D01*
X8208689Y47147457D01*
X8384755Y47493006D01*
X8523737Y47855064D01*
X8624112Y48229670D01*
X8624113Y48229677D01*
X8684780Y48612713D01*
X8705078Y49000000D01*
X8705078Y49000001D01*
X11644341Y49000001D01*
X11644341Y49000000D01*
X11664936Y48764597D01*
X11664938Y48764587D01*
X11726094Y48536345D01*
X11726096Y48536341D01*
X11726097Y48536337D01*
X11805801Y48365412D01*
X11825965Y48322170D01*
X11825967Y48322166D01*
X11841491Y48299996D01*
X11961505Y48128599D01*
X12128599Y47961505D01*
X12225384Y47893735D01*
X12322165Y47825968D01*
X12322167Y47825967D01*
X12322170Y47825965D01*
X12536337Y47726097D01*
X12764592Y47664937D01*
X12941034Y47649500D01*
X12999999Y47644341D01*
X13000000Y47644341D01*
X13000001Y47644341D01*
X13058966Y47649500D01*
X13235408Y47664937D01*
X13463663Y47726097D01*
X13677830Y47825965D01*
X13871401Y47961505D01*
X14038495Y48128599D01*
X14168730Y48314595D01*
X14223307Y48358219D01*
X14292805Y48365413D01*
X14355160Y48333890D01*
X14371879Y48314595D01*
X14501890Y48128922D01*
X14668917Y47961895D01*
X14862421Y47826400D01*
X15076507Y47726571D01*
X15076516Y47726567D01*
X15290000Y47669366D01*
X15290000Y48566988D01*
X15347007Y48534075D01*
X15474174Y48500000D01*
X15605826Y48500000D01*
X15732993Y48534075D01*
X15790000Y48566988D01*
X15790000Y47669367D01*
X16003483Y47726567D01*
X16003492Y47726571D01*
X16217578Y47826400D01*
X16411078Y47961892D01*
X16533133Y48083947D01*
X16594456Y48117432D01*
X16664148Y48112448D01*
X16720082Y48070577D01*
X16736997Y48039599D01*
X16786202Y47907672D01*
X16786206Y47907665D01*
X16872452Y47792456D01*
X16872455Y47792453D01*
X16987664Y47706207D01*
X16987671Y47706203D01*
X17122517Y47655909D01*
X17122516Y47655909D01*
X17129444Y47655165D01*
X17182127Y47649500D01*
X18977872Y47649501D01*
X19037483Y47655909D01*
X19172331Y47706204D01*
X19287546Y47792454D01*
X19373796Y47907669D01*
X19424091Y48042517D01*
X19430500Y48102127D01*
X19430499Y49250001D01*
X24129364Y49250001D01*
X24129364Y49250000D01*
X25026988Y49250000D01*
X24994075Y49192993D01*
X24960000Y49065826D01*
X24960000Y48934174D01*
X24994075Y48807007D01*
X25026988Y48750000D01*
X24129364Y48750000D01*
X24186567Y48536514D01*
X24186570Y48536508D01*
X24286399Y48322422D01*
X24421894Y48128918D01*
X24588917Y47961895D01*
X24782421Y47826400D01*
X24996507Y47726571D01*
X24996516Y47726567D01*
X25210000Y47669366D01*
X25210000Y48566988D01*
X25267007Y48534075D01*
X25394174Y48500000D01*
X25525826Y48500000D01*
X25652993Y48534075D01*
X25710000Y48566988D01*
X25710000Y47669367D01*
X25923483Y47726567D01*
X25923492Y47726571D01*
X26137578Y47826400D01*
X26331082Y47961895D01*
X26498105Y48128918D01*
X26628119Y48314595D01*
X26682696Y48358219D01*
X26752195Y48365412D01*
X26814549Y48333890D01*
X26831269Y48314595D01*
X26961505Y48128599D01*
X27128599Y47961505D01*
X27225384Y47893735D01*
X27322165Y47825968D01*
X27322167Y47825967D01*
X27322170Y47825965D01*
X27536337Y47726097D01*
X27764592Y47664937D01*
X27941034Y47649500D01*
X27999999Y47644341D01*
X28000000Y47644341D01*
X28000001Y47644341D01*
X28058966Y47649500D01*
X28235408Y47664937D01*
X28463663Y47726097D01*
X28677830Y47825965D01*
X28871401Y47961505D01*
X29038495Y48128599D01*
X29168425Y48314158D01*
X29223002Y48357783D01*
X29292500Y48364977D01*
X29354855Y48333454D01*
X29371575Y48314158D01*
X29501500Y48128605D01*
X29501505Y48128599D01*
X29668599Y47961505D01*
X29765384Y47893735D01*
X29862165Y47825968D01*
X29862167Y47825967D01*
X29862170Y47825965D01*
X30076337Y47726097D01*
X30304592Y47664937D01*
X30481034Y47649500D01*
X30539999Y47644341D01*
X30540000Y47644341D01*
X30540001Y47644341D01*
X30598966Y47649500D01*
X30775408Y47664937D01*
X31003663Y47726097D01*
X31217830Y47825965D01*
X31411401Y47961505D01*
X31533329Y48083434D01*
X31594648Y48116916D01*
X31664340Y48111932D01*
X31720274Y48070061D01*
X31737189Y48039083D01*
X31786202Y47907672D01*
X31786206Y47907665D01*
X31872452Y47792456D01*
X31872455Y47792453D01*
X31987664Y47706207D01*
X31987671Y47706203D01*
X32122517Y47655909D01*
X32122516Y47655909D01*
X32129444Y47655165D01*
X32182127Y47649500D01*
X33977872Y47649501D01*
X34037483Y47655909D01*
X34172331Y47706204D01*
X34287546Y47792454D01*
X34373796Y47907669D01*
X34424091Y48042517D01*
X34430500Y48102127D01*
X34430499Y49000001D01*
X38644341Y49000001D01*
X38644341Y49000000D01*
X38664936Y48764597D01*
X38664938Y48764587D01*
X38726094Y48536345D01*
X38726096Y48536341D01*
X38726097Y48536337D01*
X38805801Y48365412D01*
X38825965Y48322170D01*
X38825967Y48322166D01*
X38841491Y48299996D01*
X38961505Y48128599D01*
X39128599Y47961505D01*
X39225384Y47893735D01*
X39322165Y47825968D01*
X39322167Y47825967D01*
X39322170Y47825965D01*
X39536337Y47726097D01*
X39764592Y47664937D01*
X39941034Y47649500D01*
X39999999Y47644341D01*
X40000000Y47644341D01*
X40000001Y47644341D01*
X40058966Y47649500D01*
X40235408Y47664937D01*
X40463663Y47726097D01*
X40677830Y47825965D01*
X40871401Y47961505D01*
X41038495Y48128599D01*
X41168425Y48314158D01*
X41223002Y48357783D01*
X41292500Y48364977D01*
X41354855Y48333454D01*
X41371575Y48314158D01*
X41501500Y48128605D01*
X41501505Y48128599D01*
X41668599Y47961505D01*
X41765384Y47893735D01*
X41862165Y47825968D01*
X41862167Y47825967D01*
X41862170Y47825965D01*
X42076337Y47726097D01*
X42304592Y47664937D01*
X42481034Y47649500D01*
X42539999Y47644341D01*
X42540000Y47644341D01*
X42540001Y47644341D01*
X42598966Y47649500D01*
X42775408Y47664937D01*
X43003663Y47726097D01*
X43217830Y47825965D01*
X43411401Y47961505D01*
X43578495Y48128599D01*
X43708425Y48314158D01*
X43763002Y48357783D01*
X43832500Y48364977D01*
X43894855Y48333454D01*
X43911575Y48314158D01*
X44041500Y48128605D01*
X44041505Y48128599D01*
X44208599Y47961505D01*
X44305384Y47893735D01*
X44402165Y47825968D01*
X44402167Y47825967D01*
X44402170Y47825965D01*
X44616337Y47726097D01*
X44844592Y47664937D01*
X45021034Y47649500D01*
X45079999Y47644341D01*
X45080000Y47644341D01*
X45080001Y47644341D01*
X45138966Y47649500D01*
X45315408Y47664937D01*
X45543663Y47726097D01*
X45757830Y47825965D01*
X45951401Y47961505D01*
X46118495Y48128599D01*
X46248425Y48314158D01*
X46303002Y48357783D01*
X46372500Y48364977D01*
X46434855Y48333454D01*
X46451575Y48314158D01*
X46581500Y48128605D01*
X46581505Y48128599D01*
X46748599Y47961505D01*
X46845384Y47893735D01*
X46942165Y47825968D01*
X46942167Y47825967D01*
X46942170Y47825965D01*
X47156337Y47726097D01*
X47384592Y47664937D01*
X47561034Y47649500D01*
X47619999Y47644341D01*
X47620000Y47644341D01*
X47620001Y47644341D01*
X47678966Y47649500D01*
X47855408Y47664937D01*
X48083663Y47726097D01*
X48297830Y47825965D01*
X48491401Y47961505D01*
X48658495Y48128599D01*
X48788425Y48314158D01*
X48843002Y48357783D01*
X48912500Y48364977D01*
X48974855Y48333454D01*
X48991575Y48314158D01*
X49121500Y48128605D01*
X49121505Y48128599D01*
X49288599Y47961505D01*
X49385384Y47893735D01*
X49482165Y47825968D01*
X49482167Y47825967D01*
X49482170Y47825965D01*
X49696337Y47726097D01*
X49924592Y47664937D01*
X50101034Y47649500D01*
X50159999Y47644341D01*
X50160000Y47644341D01*
X50160001Y47644341D01*
X50218966Y47649500D01*
X50395408Y47664937D01*
X50623663Y47726097D01*
X50837830Y47825965D01*
X51031401Y47961505D01*
X51198495Y48128599D01*
X51328425Y48314158D01*
X51383002Y48357783D01*
X51452500Y48364977D01*
X51514855Y48333454D01*
X51531575Y48314158D01*
X51661500Y48128605D01*
X51661505Y48128599D01*
X51828599Y47961505D01*
X51925384Y47893735D01*
X52022165Y47825968D01*
X52022167Y47825967D01*
X52022170Y47825965D01*
X52236337Y47726097D01*
X52464592Y47664937D01*
X52641034Y47649500D01*
X52699999Y47644341D01*
X52700000Y47644341D01*
X52700001Y47644341D01*
X52758966Y47649500D01*
X52935408Y47664937D01*
X53163663Y47726097D01*
X53377830Y47825965D01*
X53571401Y47961505D01*
X53738495Y48128599D01*
X53868730Y48314595D01*
X53923307Y48358219D01*
X53992805Y48365413D01*
X54055160Y48333890D01*
X54071879Y48314595D01*
X54201890Y48128922D01*
X54368917Y47961895D01*
X54562421Y47826400D01*
X54776507Y47726571D01*
X54776516Y47726567D01*
X54990000Y47669366D01*
X54990000Y48566988D01*
X55047007Y48534075D01*
X55174174Y48500000D01*
X55305826Y48500000D01*
X55432993Y48534075D01*
X55490000Y48566988D01*
X55490000Y47669367D01*
X55703483Y47726567D01*
X55703492Y47726571D01*
X55917578Y47826400D01*
X56111078Y47961892D01*
X56233133Y48083947D01*
X56294456Y48117432D01*
X56364148Y48112448D01*
X56420082Y48070577D01*
X56436997Y48039599D01*
X56486202Y47907672D01*
X56486206Y47907665D01*
X56572452Y47792456D01*
X56572455Y47792453D01*
X56687664Y47706207D01*
X56687671Y47706203D01*
X56822517Y47655909D01*
X56822516Y47655909D01*
X56829444Y47655165D01*
X56882127Y47649500D01*
X58677872Y47649501D01*
X58737483Y47655909D01*
X58872331Y47706204D01*
X58987546Y47792454D01*
X59073796Y47907669D01*
X59124091Y48042517D01*
X59130500Y48102127D01*
X59130500Y48300005D01*
X63894732Y48300005D01*
X63894732Y48299996D01*
X63913777Y48045846D01*
X63963963Y47825965D01*
X63970492Y47797363D01*
X64063607Y47560112D01*
X64191041Y47339388D01*
X64349950Y47140123D01*
X64536783Y46966768D01*
X64747366Y46823195D01*
X64747371Y46823193D01*
X64747372Y46823192D01*
X64747373Y46823191D01*
X64869328Y46764462D01*
X64976992Y46712613D01*
X64976993Y46712613D01*
X64976996Y46712611D01*
X65220542Y46637487D01*
X65472565Y46599500D01*
X65727435Y46599500D01*
X65979458Y46637487D01*
X66223004Y46712611D01*
X66404458Y46799995D01*
X66452626Y46823191D01*
X66452626Y46823192D01*
X66452634Y46823195D01*
X66663217Y46966768D01*
X66850050Y47140123D01*
X67008959Y47339388D01*
X67136393Y47560112D01*
X67160074Y47620451D01*
X67202887Y47675660D01*
X67268756Y47698961D01*
X67336767Y47682952D01*
X67385326Y47632714D01*
X67399500Y47575145D01*
X67399500Y47052130D01*
X67399501Y47052124D01*
X67405908Y46992517D01*
X67456202Y46857672D01*
X67456206Y46857665D01*
X67542452Y46742456D01*
X67542455Y46742453D01*
X67657664Y46656207D01*
X67657671Y46656203D01*
X67792517Y46605909D01*
X67792516Y46605909D01*
X67799444Y46605165D01*
X67852127Y46599500D01*
X70347872Y46599501D01*
X70407483Y46605909D01*
X70542331Y46656204D01*
X70657546Y46742454D01*
X70743796Y46857669D01*
X70794091Y46992517D01*
X70800500Y47052127D01*
X70800499Y49000001D01*
X91294922Y49000001D01*
X91294922Y49000000D01*
X91315219Y48612713D01*
X91375886Y48229677D01*
X91375887Y48229670D01*
X91476262Y47855064D01*
X91615244Y47493006D01*
X91791310Y47147457D01*
X92002531Y46822207D01*
X92211095Y46564650D01*
X92211096Y46564650D01*
X93705748Y48059302D01*
X93779588Y47957670D01*
X93957670Y47779588D01*
X94059300Y47705749D01*
X92564648Y46211097D01*
X92564649Y46211096D01*
X92822206Y46002532D01*
X93147456Y45791311D01*
X93493005Y45615245D01*
X93855063Y45476263D01*
X94229669Y45375888D01*
X94229676Y45375887D01*
X94612712Y45315220D01*
X94999999Y45294922D01*
X95000001Y45294922D01*
X95387287Y45315220D01*
X95770323Y45375887D01*
X95770330Y45375888D01*
X96144936Y45476263D01*
X96506994Y45615245D01*
X96852543Y45791311D01*
X97177783Y46002524D01*
X97177785Y46002525D01*
X97435349Y46211098D01*
X95940698Y47705749D01*
X96042330Y47779588D01*
X96220412Y47957670D01*
X96294251Y48059302D01*
X97788902Y46564651D01*
X97997475Y46822215D01*
X97997476Y46822217D01*
X98208689Y47147457D01*
X98384755Y47493006D01*
X98523737Y47855064D01*
X98624112Y48229670D01*
X98624113Y48229677D01*
X98684780Y48612713D01*
X98705078Y49000000D01*
X98705078Y49000001D01*
X98684780Y49387288D01*
X98624113Y49770324D01*
X98624112Y49770331D01*
X98523737Y50144937D01*
X98384755Y50506995D01*
X98208689Y50852544D01*
X97997468Y51177794D01*
X97788904Y51435351D01*
X97788903Y51435352D01*
X96294251Y49940700D01*
X96220412Y50042330D01*
X96042330Y50220412D01*
X95940698Y50294252D01*
X97435350Y51788904D01*
X97435350Y51788905D01*
X97177793Y51997469D01*
X96852543Y52208690D01*
X96506994Y52384756D01*
X96144936Y52523738D01*
X95770330Y52624113D01*
X95770323Y52624114D01*
X95387287Y52684781D01*
X95000001Y52705078D01*
X94999999Y52705078D01*
X94612712Y52684781D01*
X94229676Y52624114D01*
X94229669Y52624113D01*
X93855063Y52523738D01*
X93493005Y52384756D01*
X93147456Y52208690D01*
X92822206Y51997469D01*
X92564648Y51788905D01*
X92564648Y51788904D01*
X94059301Y50294252D01*
X93957670Y50220412D01*
X93779588Y50042330D01*
X93705748Y49940700D01*
X92211096Y51435352D01*
X92211095Y51435352D01*
X92002531Y51177794D01*
X91791310Y50852544D01*
X91615244Y50506995D01*
X91476262Y50144937D01*
X91375887Y49770331D01*
X91375886Y49770324D01*
X91315219Y49387288D01*
X91294922Y49000001D01*
X70800499Y49000001D01*
X70800499Y49547872D01*
X70794091Y49607483D01*
X70784487Y49633232D01*
X70743797Y49742329D01*
X70743793Y49742336D01*
X70657547Y49857545D01*
X70657544Y49857548D01*
X70542335Y49943794D01*
X70542328Y49943798D01*
X70407482Y49994092D01*
X70407483Y49994092D01*
X70347883Y50000499D01*
X70347881Y50000500D01*
X70347873Y50000500D01*
X70347864Y50000500D01*
X67852129Y50000500D01*
X67852123Y50000499D01*
X67792516Y49994092D01*
X67657671Y49943798D01*
X67657664Y49943794D01*
X67542455Y49857548D01*
X67542452Y49857545D01*
X67456206Y49742336D01*
X67456202Y49742329D01*
X67405908Y49607483D01*
X67399501Y49547884D01*
X67399501Y49547877D01*
X67399500Y49547865D01*
X67399500Y49024858D01*
X67379815Y48957819D01*
X67327011Y48912064D01*
X67257853Y48902120D01*
X67194297Y48931145D01*
X67160072Y48979555D01*
X67152048Y49000000D01*
X67136393Y49039888D01*
X67008959Y49260612D01*
X66850050Y49459877D01*
X66663217Y49633232D01*
X66452634Y49776805D01*
X66452630Y49776807D01*
X66452627Y49776809D01*
X66452626Y49776810D01*
X66223006Y49887388D01*
X66223008Y49887388D01*
X65979466Y49962511D01*
X65979462Y49962512D01*
X65979458Y49962513D01*
X65858231Y49980786D01*
X65727440Y50000500D01*
X65727435Y50000500D01*
X65472565Y50000500D01*
X65472559Y50000500D01*
X65315609Y49976843D01*
X65220542Y49962513D01*
X65220539Y49962512D01*
X65220533Y49962511D01*
X64976992Y49887388D01*
X64747373Y49776810D01*
X64747372Y49776809D01*
X64536782Y49633232D01*
X64349952Y49459879D01*
X64349950Y49459877D01*
X64191041Y49260612D01*
X64063608Y49039891D01*
X63970492Y48802638D01*
X63970490Y48802631D01*
X63913777Y48554155D01*
X63894732Y48300005D01*
X59130500Y48300005D01*
X59130499Y49897872D01*
X59124091Y49957483D01*
X59123002Y49960402D01*
X59073797Y50092329D01*
X59073793Y50092336D01*
X58987547Y50207545D01*
X58987544Y50207548D01*
X58872335Y50293794D01*
X58872328Y50293798D01*
X58737482Y50344092D01*
X58737483Y50344092D01*
X58677883Y50350499D01*
X58677881Y50350500D01*
X58677873Y50350500D01*
X58677864Y50350500D01*
X56882129Y50350500D01*
X56882123Y50350499D01*
X56822516Y50344092D01*
X56687671Y50293798D01*
X56687664Y50293794D01*
X56572455Y50207548D01*
X56572452Y50207545D01*
X56486206Y50092336D01*
X56486202Y50092329D01*
X56436997Y49960402D01*
X56395126Y49904468D01*
X56329661Y49880051D01*
X56261388Y49894903D01*
X56233134Y49916054D01*
X56111082Y50038106D01*
X55917578Y50173601D01*
X55703492Y50273430D01*
X55703486Y50273433D01*
X55490000Y50330636D01*
X55490000Y49433012D01*
X55432993Y49465925D01*
X55305826Y49500000D01*
X55174174Y49500000D01*
X55047007Y49465925D01*
X54990000Y49433012D01*
X54990000Y50330636D01*
X54989999Y50330636D01*
X54776513Y50273433D01*
X54776507Y50273430D01*
X54562422Y50173601D01*
X54562420Y50173600D01*
X54368926Y50038114D01*
X54368920Y50038109D01*
X54201891Y49871080D01*
X54201890Y49871078D01*
X54071880Y49685405D01*
X54017303Y49641781D01*
X53947804Y49634588D01*
X53885450Y49666110D01*
X53868730Y49685406D01*
X53738494Y49871403D01*
X53571402Y50038494D01*
X53571395Y50038499D01*
X53377834Y50174033D01*
X53377830Y50174035D01*
X53377828Y50174036D01*
X53163663Y50273903D01*
X53163659Y50273904D01*
X53163655Y50273906D01*
X52935413Y50335062D01*
X52935403Y50335064D01*
X52700001Y50355659D01*
X52699999Y50355659D01*
X52464596Y50335064D01*
X52464586Y50335062D01*
X52236344Y50273906D01*
X52236335Y50273902D01*
X52022171Y50174036D01*
X52022169Y50174035D01*
X51828597Y50038495D01*
X51661505Y49871403D01*
X51531575Y49685842D01*
X51476998Y49642217D01*
X51407500Y49635023D01*
X51345145Y49666546D01*
X51328425Y49685842D01*
X51198494Y49871403D01*
X51031402Y50038494D01*
X51031395Y50038499D01*
X50837834Y50174033D01*
X50837830Y50174035D01*
X50837828Y50174036D01*
X50623663Y50273903D01*
X50623659Y50273904D01*
X50623655Y50273906D01*
X50395413Y50335062D01*
X50395403Y50335064D01*
X50160001Y50355659D01*
X50159999Y50355659D01*
X49924596Y50335064D01*
X49924586Y50335062D01*
X49696344Y50273906D01*
X49696335Y50273902D01*
X49482171Y50174036D01*
X49482169Y50174035D01*
X49288597Y50038495D01*
X49121505Y49871403D01*
X48991575Y49685842D01*
X48936998Y49642217D01*
X48867500Y49635023D01*
X48805145Y49666546D01*
X48788425Y49685842D01*
X48658494Y49871403D01*
X48491402Y50038494D01*
X48491395Y50038499D01*
X48297834Y50174033D01*
X48297830Y50174035D01*
X48297828Y50174036D01*
X48083663Y50273903D01*
X48083659Y50273904D01*
X48083655Y50273906D01*
X47855413Y50335062D01*
X47855403Y50335064D01*
X47620001Y50355659D01*
X47619999Y50355659D01*
X47384596Y50335064D01*
X47384586Y50335062D01*
X47156344Y50273906D01*
X47156335Y50273902D01*
X46942171Y50174036D01*
X46942169Y50174035D01*
X46748597Y50038495D01*
X46581505Y49871403D01*
X46451575Y49685842D01*
X46396998Y49642217D01*
X46327500Y49635023D01*
X46265145Y49666546D01*
X46248425Y49685842D01*
X46118494Y49871403D01*
X45951402Y50038494D01*
X45951395Y50038499D01*
X45757834Y50174033D01*
X45757830Y50174035D01*
X45757828Y50174036D01*
X45543663Y50273903D01*
X45543659Y50273904D01*
X45543655Y50273906D01*
X45315413Y50335062D01*
X45315403Y50335064D01*
X45080001Y50355659D01*
X45079999Y50355659D01*
X44844596Y50335064D01*
X44844586Y50335062D01*
X44616344Y50273906D01*
X44616335Y50273902D01*
X44402171Y50174036D01*
X44402169Y50174035D01*
X44208597Y50038495D01*
X44041505Y49871403D01*
X43911575Y49685842D01*
X43856998Y49642217D01*
X43787500Y49635023D01*
X43725145Y49666546D01*
X43708425Y49685842D01*
X43578494Y49871403D01*
X43411402Y50038494D01*
X43411395Y50038499D01*
X43217834Y50174033D01*
X43217830Y50174035D01*
X43217828Y50174036D01*
X43003663Y50273903D01*
X43003659Y50273904D01*
X43003655Y50273906D01*
X42775413Y50335062D01*
X42775403Y50335064D01*
X42540001Y50355659D01*
X42539999Y50355659D01*
X42304596Y50335064D01*
X42304586Y50335062D01*
X42076344Y50273906D01*
X42076335Y50273902D01*
X41862171Y50174036D01*
X41862169Y50174035D01*
X41668597Y50038495D01*
X41501505Y49871403D01*
X41371575Y49685842D01*
X41316998Y49642217D01*
X41247500Y49635023D01*
X41185145Y49666546D01*
X41168425Y49685842D01*
X41038494Y49871403D01*
X40871402Y50038494D01*
X40871395Y50038499D01*
X40677834Y50174033D01*
X40677830Y50174035D01*
X40677828Y50174036D01*
X40463663Y50273903D01*
X40463659Y50273904D01*
X40463655Y50273906D01*
X40235413Y50335062D01*
X40235403Y50335064D01*
X40000001Y50355659D01*
X39999999Y50355659D01*
X39764596Y50335064D01*
X39764586Y50335062D01*
X39536344Y50273906D01*
X39536335Y50273902D01*
X39322171Y50174036D01*
X39322169Y50174035D01*
X39128597Y50038495D01*
X38961505Y49871403D01*
X38825965Y49677831D01*
X38825964Y49677829D01*
X38726098Y49463665D01*
X38726094Y49463656D01*
X38664938Y49235414D01*
X38664936Y49235404D01*
X38644341Y49000001D01*
X34430499Y49000001D01*
X34430499Y49897872D01*
X34424091Y49957483D01*
X34423002Y49960402D01*
X34373797Y50092329D01*
X34373793Y50092336D01*
X34287547Y50207545D01*
X34287544Y50207548D01*
X34172335Y50293794D01*
X34172328Y50293798D01*
X34037482Y50344092D01*
X34037483Y50344092D01*
X33977883Y50350499D01*
X33977881Y50350500D01*
X33977873Y50350500D01*
X33977864Y50350500D01*
X32182129Y50350500D01*
X32182123Y50350499D01*
X32122516Y50344092D01*
X31987671Y50293798D01*
X31987664Y50293794D01*
X31872455Y50207548D01*
X31872452Y50207545D01*
X31786206Y50092336D01*
X31786203Y50092331D01*
X31737189Y49960917D01*
X31695317Y49904984D01*
X31629853Y49880567D01*
X31561580Y49895419D01*
X31533326Y49916570D01*
X31411402Y50038494D01*
X31411395Y50038499D01*
X31217834Y50174033D01*
X31217830Y50174035D01*
X31217828Y50174036D01*
X31003663Y50273903D01*
X31003659Y50273904D01*
X31003655Y50273906D01*
X30775413Y50335062D01*
X30775403Y50335064D01*
X30540001Y50355659D01*
X30539999Y50355659D01*
X30304596Y50335064D01*
X30304586Y50335062D01*
X30076344Y50273906D01*
X30076335Y50273902D01*
X29862171Y50174036D01*
X29862169Y50174035D01*
X29668597Y50038495D01*
X29501505Y49871403D01*
X29371575Y49685842D01*
X29316998Y49642217D01*
X29247500Y49635023D01*
X29185145Y49666546D01*
X29168425Y49685842D01*
X29038494Y49871403D01*
X28871402Y50038494D01*
X28871395Y50038499D01*
X28677834Y50174033D01*
X28677830Y50174035D01*
X28677828Y50174036D01*
X28463663Y50273903D01*
X28463659Y50273904D01*
X28463655Y50273906D01*
X28235413Y50335062D01*
X28235403Y50335064D01*
X28000001Y50355659D01*
X27999999Y50355659D01*
X27764596Y50335064D01*
X27764586Y50335062D01*
X27536344Y50273906D01*
X27536335Y50273902D01*
X27322171Y50174036D01*
X27322169Y50174035D01*
X27128597Y50038495D01*
X26961508Y49871406D01*
X26831269Y49685405D01*
X26776692Y49641781D01*
X26707193Y49634588D01*
X26644839Y49666110D01*
X26628119Y49685406D01*
X26498113Y49871074D01*
X26498108Y49871080D01*
X26331082Y50038106D01*
X26137578Y50173601D01*
X25923492Y50273430D01*
X25923486Y50273433D01*
X25710000Y50330636D01*
X25710000Y49433012D01*
X25652993Y49465925D01*
X25525826Y49500000D01*
X25394174Y49500000D01*
X25267007Y49465925D01*
X25210000Y49433012D01*
X25210000Y50330636D01*
X25209999Y50330636D01*
X24996513Y50273433D01*
X24996507Y50273430D01*
X24782422Y50173601D01*
X24782420Y50173600D01*
X24588926Y50038114D01*
X24588920Y50038109D01*
X24421891Y49871080D01*
X24421886Y49871074D01*
X24286400Y49677580D01*
X24286399Y49677578D01*
X24186570Y49463493D01*
X24186567Y49463487D01*
X24129364Y49250001D01*
X19430499Y49250001D01*
X19430499Y49897872D01*
X19424091Y49957483D01*
X19423002Y49960402D01*
X19373797Y50092329D01*
X19373793Y50092336D01*
X19287547Y50207545D01*
X19287544Y50207548D01*
X19172335Y50293794D01*
X19172328Y50293798D01*
X19037482Y50344092D01*
X19037483Y50344092D01*
X18977883Y50350499D01*
X18977881Y50350500D01*
X18977873Y50350500D01*
X18977864Y50350500D01*
X17182129Y50350500D01*
X17182123Y50350499D01*
X17122516Y50344092D01*
X16987671Y50293798D01*
X16987664Y50293794D01*
X16872455Y50207548D01*
X16872452Y50207545D01*
X16786206Y50092336D01*
X16786202Y50092329D01*
X16736997Y49960402D01*
X16695126Y49904468D01*
X16629661Y49880051D01*
X16561388Y49894903D01*
X16533134Y49916054D01*
X16411082Y50038106D01*
X16217578Y50173601D01*
X16003492Y50273430D01*
X16003486Y50273433D01*
X15790000Y50330636D01*
X15790000Y49433012D01*
X15732993Y49465925D01*
X15605826Y49500000D01*
X15474174Y49500000D01*
X15347007Y49465925D01*
X15290000Y49433012D01*
X15290000Y50330636D01*
X15289999Y50330636D01*
X15076513Y50273433D01*
X15076507Y50273430D01*
X14862422Y50173601D01*
X14862420Y50173600D01*
X14668926Y50038114D01*
X14668920Y50038109D01*
X14501891Y49871080D01*
X14501890Y49871078D01*
X14371880Y49685405D01*
X14317303Y49641781D01*
X14247804Y49634588D01*
X14185450Y49666110D01*
X14168730Y49685406D01*
X14038494Y49871403D01*
X13871402Y50038494D01*
X13871395Y50038499D01*
X13677834Y50174033D01*
X13677830Y50174035D01*
X13677828Y50174036D01*
X13463663Y50273903D01*
X13463659Y50273904D01*
X13463655Y50273906D01*
X13235413Y50335062D01*
X13235403Y50335064D01*
X13000001Y50355659D01*
X12999999Y50355659D01*
X12764596Y50335064D01*
X12764586Y50335062D01*
X12536344Y50273906D01*
X12536335Y50273902D01*
X12322171Y50174036D01*
X12322169Y50174035D01*
X12128597Y50038495D01*
X11961505Y49871403D01*
X11825965Y49677831D01*
X11825964Y49677829D01*
X11726098Y49463665D01*
X11726094Y49463656D01*
X11664938Y49235414D01*
X11664936Y49235404D01*
X11644341Y49000001D01*
X8705078Y49000001D01*
X8684780Y49387288D01*
X8624113Y49770324D01*
X8624112Y49770331D01*
X8523737Y50144937D01*
X8384755Y50506995D01*
X8208689Y50852544D01*
X7997468Y51177794D01*
X7788904Y51435351D01*
X7788903Y51435352D01*
X6294251Y49940700D01*
X6220412Y50042330D01*
X6042330Y50220412D01*
X5940698Y50294252D01*
X7435350Y51788904D01*
X7435350Y51788905D01*
X7177793Y51997469D01*
X6852543Y52208690D01*
X6506994Y52384756D01*
X6144936Y52523738D01*
X5770330Y52624113D01*
X5770323Y52624114D01*
X5387287Y52684781D01*
X5000001Y52705078D01*
X4999999Y52705078D01*
X4612712Y52684781D01*
X4229676Y52624114D01*
X4229669Y52624113D01*
X3855063Y52523738D01*
X3493005Y52384756D01*
X3147456Y52208690D01*
X2822206Y51997469D01*
X2564648Y51788905D01*
X2564648Y51788904D01*
X4059301Y50294252D01*
X3957670Y50220412D01*
X3779588Y50042330D01*
X3705748Y49940700D01*
X2211096Y51435352D01*
X2211095Y51435352D01*
X2002531Y51177794D01*
X1791310Y50852544D01*
X1615244Y50506995D01*
X1476262Y50144937D01*
X1375887Y49770331D01*
X1375886Y49770324D01*
X1315219Y49387288D01*
X1294922Y49000001D01*
X500559Y49000001D01*
X500618Y49002703D01*
X501585Y49024858D01*
X517386Y49386774D01*
X518326Y49397505D01*
X568152Y49775975D01*
X570025Y49786595D01*
X652649Y50159291D01*
X655440Y50169705D01*
X770230Y50533773D01*
X773917Y50543905D01*
X920003Y50896588D01*
X924561Y50906362D01*
X1100822Y51244955D01*
X1106217Y51254300D01*
X1311325Y51576256D01*
X1317515Y51585095D01*
X1549896Y51887940D01*
X1556834Y51896209D01*
X1814726Y52177648D01*
X1822352Y52185274D01*
X2103791Y52443166D01*
X2112060Y52450104D01*
X2414905Y52682485D01*
X2423744Y52688675D01*
X2745700Y52893783D01*
X2755045Y52899178D01*
X3093638Y53075439D01*
X3103412Y53079997D01*
X3456095Y53226083D01*
X3466227Y53229770D01*
X3830295Y53344560D01*
X3840709Y53347351D01*
X4213405Y53429975D01*
X4224025Y53431848D01*
X4602495Y53481674D01*
X4613226Y53482614D01*
X4997297Y53499383D01*
X5002706Y53499500D01*
X5065892Y53499500D01*
X94934108Y53499500D01*
X94997294Y53499500D01*
X95002702Y53499383D01*
G37*
%TD.AperFunction*%
%TD*%
M02*
