%TF.GenerationSoftware,KiCad,Pcbnew,8.0.2*%
%TF.CreationDate,2024-05-31T22:22:53+03:00*%
%TF.ProjectId,mobrob,6d6f6272-6f62-42e6-9b69-6361645f7063,rev?*%
%TF.SameCoordinates,PX7bfa480PY6422c40*%
%TF.FileFunction,Copper,L1,Top*%
%TF.FilePolarity,Positive*%
%FSLAX46Y46*%
G04 Gerber Fmt 4.6, Leading zero omitted, Abs format (unit mm)*
G04 Created by KiCad (PCBNEW 8.0.2) date 2024-05-31 22:22:53*
%MOMM*%
%LPD*%
G01*
G04 APERTURE LIST*
G04 Aperture macros list*
%AMRoundRect*
0 Rectangle with rounded corners*
0 $1 Rounding radius*
0 $2 $3 $4 $5 $6 $7 $8 $9 X,Y pos of 4 corners*
0 Add a 4 corners polygon primitive as box body*
4,1,4,$2,$3,$4,$5,$6,$7,$8,$9,$2,$3,0*
0 Add four circle primitives for the rounded corners*
1,1,$1+$1,$2,$3*
1,1,$1+$1,$4,$5*
1,1,$1+$1,$6,$7*
1,1,$1+$1,$8,$9*
0 Add four rect primitives between the rounded corners*
20,1,$1+$1,$2,$3,$4,$5,0*
20,1,$1+$1,$4,$5,$6,$7,0*
20,1,$1+$1,$6,$7,$8,$9,0*
20,1,$1+$1,$8,$9,$2,$3,0*%
G04 Aperture macros list end*
%TA.AperFunction,ComponentPad*%
%ADD10R,2.400000X2.400000*%
%TD*%
%TA.AperFunction,ComponentPad*%
%ADD11C,2.400000*%
%TD*%
%TA.AperFunction,ComponentPad*%
%ADD12C,0.800000*%
%TD*%
%TA.AperFunction,ComponentPad*%
%ADD13C,6.400000*%
%TD*%
%TA.AperFunction,ComponentPad*%
%ADD14R,2.000000X2.000000*%
%TD*%
%TA.AperFunction,ComponentPad*%
%ADD15C,2.000000*%
%TD*%
%TA.AperFunction,SMDPad,CuDef*%
%ADD16RoundRect,0.250000X-1.500000X-0.650000X1.500000X-0.650000X1.500000X0.650000X-1.500000X0.650000X0*%
%TD*%
%TA.AperFunction,SMDPad,CuDef*%
%ADD17RoundRect,0.250000X0.412500X0.650000X-0.412500X0.650000X-0.412500X-0.650000X0.412500X-0.650000X0*%
%TD*%
%TA.AperFunction,ComponentPad*%
%ADD18R,1.800000X1.800000*%
%TD*%
%TA.AperFunction,ComponentPad*%
%ADD19C,1.800000*%
%TD*%
%TA.AperFunction,SMDPad,CuDef*%
%ADD20RoundRect,0.250000X0.350000X0.450000X-0.350000X0.450000X-0.350000X-0.450000X0.350000X-0.450000X0*%
%TD*%
%TA.AperFunction,SMDPad,CuDef*%
%ADD21RoundRect,0.250000X-0.412500X-0.650000X0.412500X-0.650000X0.412500X0.650000X-0.412500X0.650000X0*%
%TD*%
%TA.AperFunction,ComponentPad*%
%ADD22R,1.700000X1.700000*%
%TD*%
%TA.AperFunction,ComponentPad*%
%ADD23O,1.700000X1.700000*%
%TD*%
%TA.AperFunction,ComponentPad*%
%ADD24R,2.000000X1.905000*%
%TD*%
%TA.AperFunction,ComponentPad*%
%ADD25O,2.000000X1.905000*%
%TD*%
%TA.AperFunction,SMDPad,CuDef*%
%ADD26RoundRect,0.250000X1.500000X0.650000X-1.500000X0.650000X-1.500000X-0.650000X1.500000X-0.650000X0*%
%TD*%
%TA.AperFunction,SMDPad,CuDef*%
%ADD27RoundRect,0.250001X0.462499X0.624999X-0.462499X0.624999X-0.462499X-0.624999X0.462499X-0.624999X0*%
%TD*%
%TA.AperFunction,ComponentPad*%
%ADD28R,1.600000X1.600000*%
%TD*%
%TA.AperFunction,ComponentPad*%
%ADD29O,1.600000X1.600000*%
%TD*%
%TA.AperFunction,ViaPad*%
%ADD30C,0.800000*%
%TD*%
%TA.AperFunction,ViaPad*%
%ADD31C,1.200000*%
%TD*%
%TA.AperFunction,Conductor*%
%ADD32C,0.300000*%
%TD*%
%TA.AperFunction,Conductor*%
%ADD33C,1.500000*%
%TD*%
%TA.AperFunction,Conductor*%
%ADD34C,0.750000*%
%TD*%
%TA.AperFunction,Conductor*%
%ADD35C,1.000000*%
%TD*%
G04 APERTURE END LIST*
D10*
%TO.P,J2,1,Pin_1*%
%TO.N,Net-(D1-A)*%
X65600000Y5700000D03*
D11*
%TO.P,J2,2,Pin_2*%
%TO.N,Net-(D3-A)*%
X69100000Y5700000D03*
%TD*%
D12*
%TO.P,H3,1,1*%
%TO.N,GND*%
X92600000Y49000000D03*
X93302944Y50697056D03*
X93302944Y47302944D03*
X95000000Y51400000D03*
D13*
X95000000Y49000000D03*
D12*
X95000000Y46600000D03*
X96697056Y50697056D03*
X96697056Y47302944D03*
X97400000Y49000000D03*
%TD*%
D14*
%TO.P,C1,1*%
%TO.N,+12V*%
X86632323Y14000000D03*
D15*
%TO.P,C1,2*%
%TO.N,GND*%
X91632323Y14000000D03*
%TD*%
D12*
%TO.P,H2,1,1*%
%TO.N,GND*%
X92600000Y5000000D03*
X93302944Y6697056D03*
X93302944Y3302944D03*
X95000000Y7400000D03*
D13*
X95000000Y5000000D03*
D12*
X95000000Y2600000D03*
X96697056Y6697056D03*
X96697056Y3302944D03*
X97400000Y5000000D03*
%TD*%
D16*
%TO.P,D4,1,K*%
%TO.N,Net-(D3-A)*%
X72250000Y13000000D03*
%TO.P,D4,2,A*%
%TO.N,GND*%
X77250000Y13000000D03*
%TD*%
D17*
%TO.P,C4,1*%
%TO.N,+12V*%
X76875000Y20250000D03*
%TO.P,C4,2*%
%TO.N,GND*%
X73750000Y20250000D03*
%TD*%
D16*
%TO.P,D1,1,K*%
%TO.N,+12V*%
X57500000Y17000000D03*
%TO.P,D1,2,A*%
%TO.N,Net-(D1-A)*%
X62500000Y17000000D03*
%TD*%
D18*
%TO.P,D9,1,K*%
%TO.N,Net-(D9-K)*%
X45000000Y5000000D03*
D19*
%TO.P,D9,2,A*%
%TO.N,STATUS_LED*%
X47540000Y5000000D03*
%TD*%
D10*
%TO.P,J3,1,Pin_1*%
%TO.N,+12V*%
X94300000Y25250000D03*
D11*
%TO.P,J3,2,Pin_2*%
%TO.N,GND*%
X94300000Y28750000D03*
%TD*%
D20*
%TO.P,R2,1*%
%TO.N,Net-(D9-K)*%
X41000000Y5000000D03*
%TO.P,R2,2*%
%TO.N,GND*%
X39000000Y5000000D03*
%TD*%
D21*
%TO.P,C3,1*%
%TO.N,+5V*%
X57750000Y33250000D03*
%TO.P,C3,2*%
%TO.N,GND*%
X60875000Y33250000D03*
%TD*%
D22*
%TO.P,J8,1,VCC*%
%TO.N,+5V*%
X57780000Y49000000D03*
D23*
%TO.P,J8,2,GND*%
%TO.N,GND*%
X55240000Y49000000D03*
%TO.P,J8,3,SCL*%
%TO.N,IMU_SCL*%
X52700000Y49000000D03*
%TO.P,J8,4,SDA*%
%TO.N,IMU_SDA*%
X50160000Y49000000D03*
%TO.P,J8,5,XDA*%
%TO.N,unconnected-(J8-XDA-Pad5)*%
X47620000Y49000000D03*
%TO.P,J8,6,XCL*%
%TO.N,unconnected-(J8-XCL-Pad6)*%
X45080000Y49000000D03*
%TO.P,J8,7,AD0*%
%TO.N,unconnected-(J8-AD0-Pad7)*%
X42540000Y49000000D03*
%TO.P,J8,8,INT*%
%TO.N,unconnected-(J8-INT-Pad8)*%
X40000000Y49000000D03*
%TD*%
D10*
%TO.P,J1,1,Pin_1*%
%TO.N,Net-(D5-A)*%
X69100000Y48300000D03*
D11*
%TO.P,J1,2,Pin_2*%
%TO.N,Net-(D7-A)*%
X65600000Y48300000D03*
%TD*%
D24*
%TO.P,U2,1,IN*%
%TO.N,+12V*%
X87000000Y24460000D03*
D25*
%TO.P,U2,2,GND*%
%TO.N,GND*%
X87000000Y27000000D03*
%TO.P,U2,3,OUT*%
%TO.N,+5V*%
X87000000Y29540000D03*
%TD*%
D22*
%TO.P,J5,1,D23*%
%TO.N,IMU_SCL*%
X1980000Y39750000D03*
D23*
%TO.P,J5,2,D22*%
%TO.N,IMU_SDA*%
X4520000Y39750000D03*
%TO.P,J5,3,TX0*%
%TO.N,unconnected-(J5-TX0-Pad3)*%
X7060000Y39750000D03*
%TO.P,J5,4,RX0*%
%TO.N,unconnected-(J5-RX0-Pad4)*%
X9600000Y39750000D03*
%TO.P,J5,5,D21*%
%TO.N,UT_TRIG*%
X12140000Y39750000D03*
%TO.P,J5,6,D19*%
%TO.N,unconnected-(J5-D19-Pad6)*%
X14680000Y39750000D03*
%TO.P,J5,7,D18*%
%TO.N,unconnected-(J5-D18-Pad7)*%
X17220000Y39750000D03*
%TO.P,J5,8,D5*%
%TO.N,unconnected-(J5-D5-Pad8)*%
X19760000Y39750000D03*
%TO.P,J5,9,TX2*%
%TO.N,unconnected-(J5-TX2-Pad9)*%
X22300000Y39750000D03*
%TO.P,J5,10,RX2*%
%TO.N,unconnected-(J5-RX2-Pad10)*%
X24840000Y39750000D03*
%TO.P,J5,11,D4*%
%TO.N,UT_ECHO*%
X27380000Y39750000D03*
%TO.P,J5,12,D2*%
%TO.N,unconnected-(J5-D2-Pad12)*%
X29920000Y39750000D03*
%TO.P,J5,13,D15*%
%TO.N,unconnected-(J5-D15-Pad13)*%
X32460000Y39750000D03*
%TO.P,J5,14,GND*%
%TO.N,GND*%
X35000000Y39750000D03*
%TO.P,J5,15,3V3*%
%TO.N,+3.3V*%
X37540000Y39750000D03*
%TD*%
D26*
%TO.P,D3,1,K*%
%TO.N,+12V*%
X77250000Y17000000D03*
%TO.P,D3,2,A*%
%TO.N,Net-(D3-A)*%
X72250000Y17000000D03*
%TD*%
D12*
%TO.P,H4,1,1*%
%TO.N,GND*%
X2600000Y49000000D03*
X3302944Y50697056D03*
X3302944Y47302944D03*
X5000000Y51400000D03*
D13*
X5000000Y49000000D03*
D12*
X5000000Y46600000D03*
X6697056Y50697056D03*
X6697056Y47302944D03*
X7400000Y49000000D03*
%TD*%
D26*
%TO.P,D2,1,K*%
%TO.N,Net-(D1-A)*%
X62500000Y13000000D03*
%TO.P,D2,2,A*%
%TO.N,GND*%
X57500000Y13000000D03*
%TD*%
%TO.P,D8,1,K*%
%TO.N,Net-(D7-A)*%
X62500000Y40840000D03*
%TO.P,D8,2,A*%
%TO.N,GND*%
X57500000Y40840000D03*
%TD*%
D27*
%TO.P,D10,1,K*%
%TO.N,Net-(D10-K)*%
X81987500Y5000000D03*
%TO.P,D10,2,A*%
%TO.N,+5V*%
X79012500Y5000000D03*
%TD*%
D28*
%TO.P,U1,1,EN1\u002C2*%
%TO.N,EN1\u002C2*%
X58460000Y23130000D03*
D29*
%TO.P,U1,2,1A*%
%TO.N,1A*%
X61000000Y23130000D03*
%TO.P,U1,3,1Y*%
%TO.N,Net-(D1-A)*%
X63540000Y23130000D03*
%TO.P,U1,4,GND*%
%TO.N,GND*%
X66080000Y23130000D03*
%TO.P,U1,5,GND*%
X68620000Y23130000D03*
%TO.P,U1,6,2Y*%
%TO.N,Net-(D3-A)*%
X71160000Y23130000D03*
%TO.P,U1,7,2A*%
%TO.N,2A*%
X73700000Y23130000D03*
%TO.P,U1,8,VCC2*%
%TO.N,+12V*%
X76240000Y23130000D03*
%TO.P,U1,9,EN3\u002C4*%
%TO.N,EN3\u002C4*%
X76240000Y30750000D03*
%TO.P,U1,10,3A*%
%TO.N,3A*%
X73700000Y30750000D03*
%TO.P,U1,11,3Y*%
%TO.N,Net-(D5-A)*%
X71160000Y30750000D03*
%TO.P,U1,12,GND*%
%TO.N,GND*%
X68620000Y30750000D03*
%TO.P,U1,13,GND*%
X66080000Y30750000D03*
%TO.P,U1,14,4Y*%
%TO.N,Net-(D7-A)*%
X63540000Y30750000D03*
%TO.P,U1,15,4A*%
%TO.N,4A*%
X61000000Y30750000D03*
%TO.P,U1,16,VCC1*%
%TO.N,+5V*%
X58460000Y30750000D03*
%TD*%
D22*
%TO.P,J6,1,VCC*%
%TO.N,+3.3V*%
X18080000Y5000000D03*
D23*
%TO.P,J6,2,GND*%
%TO.N,GND*%
X15540000Y5000000D03*
%TO.P,J6,3,OUT*%
%TO.N,LHALL*%
X13000000Y5000000D03*
%TD*%
D14*
%TO.P,C2,1*%
%TO.N,+5V*%
X86632323Y40000000D03*
D15*
%TO.P,C2,2*%
%TO.N,GND*%
X91632323Y40000000D03*
%TD*%
D12*
%TO.P,H1,1,1*%
%TO.N,GND*%
X2600000Y5000000D03*
X3302944Y6697056D03*
X3302944Y3302944D03*
X5000000Y7400000D03*
D13*
X5000000Y5000000D03*
D12*
X5000000Y2600000D03*
X6697056Y6697056D03*
X6697056Y3302944D03*
X7400000Y5000000D03*
%TD*%
D23*
%TO.P,J4,15,VIN*%
%TO.N,+5V*%
X37560000Y14250000D03*
%TO.P,J4,14,GND*%
%TO.N,GND*%
X35020000Y14250000D03*
%TO.P,J4,13,D13*%
%TO.N,STATUS_LED*%
X32480000Y14250000D03*
%TO.P,J4,12,D12*%
%TO.N,unconnected-(J4-D12-Pad12)*%
X29940000Y14250000D03*
%TO.P,J4,11,D14*%
%TO.N,EN1\u002C2*%
X27400000Y14250000D03*
%TO.P,J4,10,D27*%
%TO.N,1A*%
X24860000Y14250000D03*
%TO.P,J4,9,D26*%
%TO.N,2A*%
X22320000Y14250000D03*
%TO.P,J4,8,D25*%
%TO.N,EN3\u002C4*%
X19780000Y14250000D03*
%TO.P,J4,7,D33*%
%TO.N,3A*%
X17240000Y14250000D03*
%TO.P,J4,6,D32*%
%TO.N,4A*%
X14700000Y14250000D03*
%TO.P,J4,5,D35*%
%TO.N,unconnected-(J4-D35-Pad5)*%
X12160000Y14250000D03*
%TO.P,J4,4,D34*%
%TO.N,unconnected-(J4-D34-Pad4)*%
X9620000Y14250000D03*
%TO.P,J4,3,VN*%
%TO.N,RHALL*%
X7080000Y14250000D03*
%TO.P,J4,2,VP*%
%TO.N,LHALL*%
X4540000Y14250000D03*
D22*
%TO.P,J4,1,EN*%
%TO.N,unconnected-(J4-EN-Pad1)*%
X2000000Y14250000D03*
%TD*%
%TO.P,J7,1,VCC*%
%TO.N,+3.3V*%
X18080000Y49000000D03*
D23*
%TO.P,J7,2,GND*%
%TO.N,GND*%
X15540000Y49000000D03*
%TO.P,J7,3,OUT*%
%TO.N,RHALL*%
X13000000Y49000000D03*
%TD*%
D16*
%TO.P,D6,1,K*%
%TO.N,Net-(D5-A)*%
X72250000Y40840000D03*
%TO.P,D6,2,A*%
%TO.N,GND*%
X77250000Y40840000D03*
%TD*%
%TO.P,D7,1,K*%
%TO.N,+12V*%
X57500000Y36840000D03*
%TO.P,D7,2,A*%
%TO.N,Net-(D7-A)*%
X62500000Y36840000D03*
%TD*%
D20*
%TO.P,R1,1*%
%TO.N,Net-(D10-K)*%
X81987500Y8000000D03*
%TO.P,R1,2*%
%TO.N,GND*%
X79987500Y8000000D03*
%TD*%
D22*
%TO.P,J9,1,VCC*%
%TO.N,+5V*%
X33080000Y49000000D03*
D23*
%TO.P,J9,2,TRIG*%
%TO.N,UT_TRIG*%
X30540000Y49000000D03*
%TO.P,J9,3,ECHO*%
%TO.N,UT_ECHO*%
X28000000Y49000000D03*
%TO.P,J9,4,GND*%
%TO.N,GND*%
X25460000Y49000000D03*
%TD*%
D26*
%TO.P,D5,1,K*%
%TO.N,+12V*%
X77250000Y36840000D03*
%TO.P,D5,2,A*%
%TO.N,Net-(D5-A)*%
X72250000Y36840000D03*
%TD*%
D30*
%TO.N,GND*%
X62250000Y33250000D03*
X85250000Y27000000D03*
X55000000Y13500000D03*
X92000000Y28750000D03*
X66750000Y25000000D03*
X79750000Y13500000D03*
X68000000Y28750000D03*
X69250000Y20250000D03*
X79750000Y12500000D03*
X65500000Y32500000D03*
X55000000Y40340000D03*
X66750000Y40250000D03*
X92000000Y27750000D03*
X88750000Y27000000D03*
X69250000Y21500000D03*
X55000000Y41340000D03*
X72500000Y20250000D03*
X69250000Y28750000D03*
X69250000Y32500000D03*
X79750000Y41340000D03*
X65500000Y28750000D03*
X66750000Y21500000D03*
X65500000Y25000000D03*
X92000000Y29750000D03*
X68000000Y20250000D03*
X66750000Y28750000D03*
X68000000Y21500000D03*
X69250000Y25000000D03*
X68000000Y13500000D03*
X55000000Y12500000D03*
X68000000Y25000000D03*
X68000000Y40250000D03*
X37750000Y5000000D03*
X66750000Y32500000D03*
X65500000Y33750000D03*
X68000000Y32500000D03*
X79750000Y40340000D03*
X68000000Y33750000D03*
X78737500Y8000000D03*
X65500000Y21500000D03*
X69250000Y33750000D03*
X65500000Y20250000D03*
X66750000Y13500000D03*
X66750000Y20250000D03*
X66750000Y33750000D03*
%TO.N,+5V*%
X87250000Y37250000D03*
X84250000Y29000000D03*
X87500000Y31250000D03*
X87500000Y32250000D03*
X84250000Y30000000D03*
X85250000Y29000000D03*
X87250000Y38250000D03*
X86000000Y37250000D03*
X85250000Y30000000D03*
X86000000Y38250000D03*
X86500000Y31250000D03*
X86500000Y32250000D03*
X77737500Y5000000D03*
D31*
%TO.N,+12V*%
X54250000Y17000000D03*
X80500000Y17000000D03*
%TD*%
D32*
%TO.N,UT_ECHO*%
X27380000Y48130000D02*
X27380000Y39750000D01*
X28000000Y48750000D02*
X27380000Y48130000D01*
X28000000Y49000000D02*
X28000000Y48750000D01*
%TO.N,IMU_SCL*%
X7980000Y33750000D02*
X1980000Y39750000D01*
X41500000Y33750000D02*
X7980000Y33750000D01*
X52700000Y49000000D02*
X52700000Y44950000D01*
X52700000Y44950000D02*
X41500000Y33750000D01*
%TO.N,IMU_SDA*%
X40500000Y35500000D02*
X8770000Y35500000D01*
X50160000Y45160000D02*
X40500000Y35500000D01*
X8770000Y35500000D02*
X4520000Y39750000D01*
X50160000Y49000000D02*
X50160000Y45160000D01*
%TO.N,LHALL*%
X4540000Y13460000D02*
X4540000Y14250000D01*
X13000000Y5000000D02*
X4540000Y13460000D01*
D33*
%TO.N,+12V*%
X76875000Y22495000D02*
X76240000Y23130000D01*
X76875000Y20250000D02*
X76875000Y22495000D01*
X77250000Y19875000D02*
X76875000Y20250000D01*
X77250000Y17000000D02*
X77250000Y19875000D01*
X80500000Y17000000D02*
X77250000Y17000000D01*
X77570000Y24460000D02*
X76240000Y23130000D01*
X87000000Y24460000D02*
X77570000Y24460000D01*
D34*
%TO.N,GND*%
X72500000Y20250000D02*
X73750000Y20250000D01*
X77750000Y40340000D02*
X77250000Y40840000D01*
X57000000Y12500000D02*
X57500000Y13000000D01*
X55000000Y12500000D02*
X57000000Y12500000D01*
X57000000Y41340000D02*
X57500000Y40840000D01*
X79750000Y40340000D02*
X79750000Y41340000D01*
X55000000Y13500000D02*
X57000000Y13500000D01*
X77750000Y41340000D02*
X77250000Y40840000D01*
X55000000Y40340000D02*
X57000000Y40340000D01*
X77750000Y12500000D02*
X77250000Y13000000D01*
X79750000Y12500000D02*
X77750000Y12500000D01*
X62250000Y33250000D02*
X60875000Y33250000D01*
X37750000Y5000000D02*
X39000000Y5000000D01*
X79750000Y12500000D02*
X79750000Y13500000D01*
X79750000Y13500000D02*
X77750000Y13500000D01*
X57000000Y40340000D02*
X57500000Y40840000D01*
X55000000Y12500000D02*
X55000000Y13500000D01*
X78737500Y8000000D02*
X79987500Y8000000D01*
X77750000Y13500000D02*
X77250000Y13000000D01*
X55000000Y40340000D02*
X55000000Y41340000D01*
X55000000Y41340000D02*
X57000000Y41340000D01*
X79750000Y41340000D02*
X77750000Y41340000D01*
X57000000Y13500000D02*
X57500000Y13000000D01*
X79750000Y40340000D02*
X77750000Y40340000D01*
%TO.N,+5V*%
X57750000Y33250000D02*
X57750000Y31460000D01*
X57750000Y31460000D02*
X58460000Y30750000D01*
X77737500Y5000000D02*
X79012500Y5000000D01*
D33*
%TO.N,+12V*%
X77250000Y36840000D02*
X80500000Y33590000D01*
X54250000Y33590000D02*
X54250000Y17000000D01*
X57500000Y36840000D02*
X54250000Y33590000D01*
X86632323Y14000000D02*
X86632323Y24092323D01*
X87000000Y24460000D02*
X93510000Y24460000D01*
X86632323Y24092323D02*
X87000000Y24460000D01*
X57500000Y17000000D02*
X54250000Y17000000D01*
X93510000Y24460000D02*
X94300000Y25250000D01*
X80500000Y33590000D02*
X80500000Y17000000D01*
D35*
%TO.N,Net-(D1-A)*%
X62500000Y13000000D02*
X62500000Y8800000D01*
X63540000Y18040000D02*
X62500000Y17000000D01*
X62500000Y8800000D02*
X65600000Y5700000D01*
X63540000Y23130000D02*
X63540000Y18040000D01*
X62500000Y17000000D02*
X62500000Y13000000D01*
%TO.N,Net-(D3-A)*%
X72250000Y13000000D02*
X72250000Y8850000D01*
X71160000Y23130000D02*
X71160000Y18090000D01*
X72250000Y8850000D02*
X69100000Y5700000D01*
X72250000Y17000000D02*
X72250000Y13000000D01*
X71160000Y18090000D02*
X72250000Y17000000D01*
%TO.N,Net-(D5-A)*%
X71160000Y30750000D02*
X71160000Y35750000D01*
X72250000Y40000000D02*
X72250000Y45150000D01*
X72250000Y36840000D02*
X72250000Y40840000D01*
X71160000Y35750000D02*
X72250000Y36840000D01*
X72250000Y45150000D02*
X69100000Y48300000D01*
%TO.N,Net-(D7-A)*%
X63540000Y35800000D02*
X63540000Y30750000D01*
X62500000Y45200000D02*
X65600000Y48300000D01*
X62500000Y40000000D02*
X62500000Y45200000D01*
X62500000Y36840000D02*
X63540000Y35800000D01*
X62500000Y36840000D02*
X62500000Y40840000D01*
D34*
%TO.N,STATUS_LED*%
X35980000Y11000000D02*
X43500000Y11000000D01*
X47540000Y6960000D02*
X47540000Y5000000D01*
X32480000Y14500000D02*
X35980000Y11000000D01*
X43500000Y11000000D02*
X47540000Y6960000D01*
%TO.N,Net-(D9-K)*%
X45000000Y5000000D02*
X41000000Y5000000D01*
%TO.N,Net-(D10-K)*%
X81987500Y5000000D02*
X81987500Y8000000D01*
D32*
%TO.N,UT_TRIG*%
X28790000Y50750000D02*
X30540000Y49000000D01*
X25000000Y50750000D02*
X28790000Y50750000D01*
X16750000Y42500000D02*
X25000000Y50750000D01*
X15160000Y42500000D02*
X16750000Y42500000D01*
X12160000Y39500000D02*
X15160000Y42500000D01*
%TD*%
%TA.AperFunction,Conductor*%
%TO.N,+5V*%
G36*
X88693039Y41980315D02*
G01*
X88738794Y41927511D01*
X88750000Y41876000D01*
X88750000Y28374000D01*
X88730315Y28306961D01*
X88677511Y28261206D01*
X88626000Y28250000D01*
X88111007Y28250000D01*
X88043968Y28269685D01*
X87998213Y28322489D01*
X87988269Y28391647D01*
X88017294Y28455203D01*
X88023326Y28461681D01*
X88155402Y28593758D01*
X88289788Y28778724D01*
X88393582Y28982430D01*
X88464234Y29199872D01*
X88478509Y29290000D01*
X87490748Y29290000D01*
X87512518Y29327708D01*
X87550000Y29467591D01*
X87550000Y29612409D01*
X87512518Y29752292D01*
X87490748Y29790000D01*
X88478509Y29790000D01*
X88464234Y29880129D01*
X88393582Y30097571D01*
X88289788Y30301277D01*
X88155402Y30486243D01*
X87993742Y30647903D01*
X87808776Y30782289D01*
X87605068Y30886083D01*
X87387625Y30956735D01*
X87387626Y30956735D01*
X87250000Y30978533D01*
X87250000Y30030748D01*
X87212292Y30052518D01*
X87072409Y30090000D01*
X86927591Y30090000D01*
X86787708Y30052518D01*
X86750000Y30030748D01*
X86750000Y30978533D01*
X86612374Y30956735D01*
X86394931Y30886083D01*
X86191223Y30782289D01*
X86006257Y30647903D01*
X85844597Y30486243D01*
X85710211Y30301277D01*
X85606417Y30097571D01*
X85535765Y29880129D01*
X85521491Y29790000D01*
X86509252Y29790000D01*
X86487482Y29752292D01*
X86450000Y29612409D01*
X86450000Y29467591D01*
X86487482Y29327708D01*
X86509252Y29290000D01*
X85521491Y29290000D01*
X85535765Y29199872D01*
X85606417Y28982430D01*
X85710211Y28778724D01*
X85844597Y28593758D01*
X85976674Y28461681D01*
X86010159Y28400358D01*
X86005175Y28330666D01*
X85963303Y28274733D01*
X85897839Y28250316D01*
X85888993Y28250000D01*
X82551362Y28250000D01*
X82484323Y28269685D01*
X82463681Y28286319D01*
X81786819Y28963181D01*
X81753334Y29024504D01*
X81750500Y29050862D01*
X81750500Y33457128D01*
X81770185Y33524167D01*
X81777672Y33534590D01*
X84750000Y37250000D01*
X84750000Y41047845D01*
X85132323Y41047845D01*
X85132323Y40250000D01*
X86199311Y40250000D01*
X86166398Y40192993D01*
X86132323Y40065826D01*
X86132323Y39934174D01*
X86166398Y39807007D01*
X86199311Y39750000D01*
X85132323Y39750000D01*
X85132323Y38952156D01*
X85138724Y38892628D01*
X85138726Y38892621D01*
X85188968Y38757914D01*
X85188972Y38757907D01*
X85275132Y38642813D01*
X85275135Y38642810D01*
X85390229Y38556650D01*
X85390236Y38556646D01*
X85524943Y38506404D01*
X85524950Y38506402D01*
X85584478Y38500001D01*
X85584495Y38500000D01*
X86382323Y38500000D01*
X86382323Y39566988D01*
X86439330Y39534075D01*
X86566497Y39500000D01*
X86698149Y39500000D01*
X86825316Y39534075D01*
X86882323Y39566988D01*
X86882323Y38500000D01*
X87680151Y38500000D01*
X87680167Y38500001D01*
X87739695Y38506402D01*
X87739702Y38506404D01*
X87874409Y38556646D01*
X87874416Y38556650D01*
X87989510Y38642810D01*
X87989513Y38642813D01*
X88075673Y38757907D01*
X88075677Y38757914D01*
X88125919Y38892621D01*
X88125921Y38892628D01*
X88132322Y38952156D01*
X88132323Y38952173D01*
X88132323Y39750000D01*
X87065335Y39750000D01*
X87098248Y39807007D01*
X87132323Y39934174D01*
X87132323Y40065826D01*
X87098248Y40192993D01*
X87065335Y40250000D01*
X88132323Y40250000D01*
X88132323Y41047828D01*
X88132322Y41047845D01*
X88125921Y41107373D01*
X88125919Y41107380D01*
X88075677Y41242087D01*
X88075673Y41242094D01*
X87989513Y41357188D01*
X87989510Y41357191D01*
X87874416Y41443351D01*
X87874409Y41443355D01*
X87739702Y41493597D01*
X87739695Y41493599D01*
X87680167Y41500000D01*
X86882323Y41500000D01*
X86882323Y40433012D01*
X86825316Y40465925D01*
X86698149Y40500000D01*
X86566497Y40500000D01*
X86439330Y40465925D01*
X86382323Y40433012D01*
X86382323Y41500000D01*
X85584478Y41500000D01*
X85524950Y41493599D01*
X85524943Y41493597D01*
X85390236Y41443355D01*
X85390229Y41443351D01*
X85275135Y41357191D01*
X85275132Y41357188D01*
X85188972Y41242094D01*
X85188968Y41242087D01*
X85138726Y41107380D01*
X85138724Y41107373D01*
X85132323Y41047845D01*
X84750000Y41047845D01*
X84750000Y41876000D01*
X84769685Y41943039D01*
X84822489Y41988794D01*
X84874000Y42000000D01*
X88626000Y42000000D01*
X88693039Y41980315D01*
G37*
%TD.AperFunction*%
%TD*%
%TA.AperFunction,Conductor*%
%TO.N,GND*%
G36*
X68870000Y21851128D02*
G01*
X69066317Y21903731D01*
X69066326Y21903735D01*
X69272482Y21999866D01*
X69458820Y22130343D01*
X69619657Y22291180D01*
X69750132Y22477516D01*
X69763617Y22506434D01*
X69809789Y22558873D01*
X69876983Y22578026D01*
X69943864Y22557811D01*
X69989199Y22504646D01*
X70000000Y22454030D01*
X70000000Y18301362D01*
X69980315Y18234323D01*
X69963681Y18213681D01*
X69000000Y17250001D01*
X69000000Y12801362D01*
X68980315Y12734323D01*
X68963681Y12713681D01*
X68036319Y11786319D01*
X67974996Y11752834D01*
X67948638Y11750000D01*
X66801362Y11750000D01*
X66734323Y11769685D01*
X66713681Y11786319D01*
X65786319Y12713681D01*
X65752834Y12775004D01*
X65750000Y12801362D01*
X65750000Y17250000D01*
X64786319Y18213681D01*
X64752834Y18275004D01*
X64750000Y18301362D01*
X64750000Y22369678D01*
X64769685Y22436717D01*
X64822489Y22482472D01*
X64891647Y22492416D01*
X64955203Y22463391D01*
X64975575Y22440802D01*
X65080342Y22291180D01*
X65241179Y22130343D01*
X65427517Y21999866D01*
X65633673Y21903735D01*
X65633682Y21903731D01*
X65829999Y21851128D01*
X65830000Y21851129D01*
X65830000Y22814314D01*
X65834394Y22809920D01*
X65925606Y22757259D01*
X66027339Y22730000D01*
X66132661Y22730000D01*
X66234394Y22757259D01*
X66325606Y22809920D01*
X66330000Y22814314D01*
X66330000Y21851128D01*
X66526317Y21903731D01*
X66526326Y21903735D01*
X66732482Y21999866D01*
X66918820Y22130343D01*
X67079657Y22291180D01*
X67210134Y22477519D01*
X67210135Y22477521D01*
X67237618Y22536457D01*
X67283790Y22588897D01*
X67350983Y22608049D01*
X67417864Y22587834D01*
X67462382Y22536457D01*
X67489864Y22477521D01*
X67489865Y22477519D01*
X67620342Y22291180D01*
X67781179Y22130343D01*
X67967517Y21999866D01*
X68173673Y21903735D01*
X68173682Y21903731D01*
X68369999Y21851128D01*
X68370000Y21851129D01*
X68370000Y22814314D01*
X68374394Y22809920D01*
X68465606Y22757259D01*
X68567339Y22730000D01*
X68672661Y22730000D01*
X68774394Y22757259D01*
X68865606Y22809920D01*
X68870000Y22814314D01*
X68870000Y21851128D01*
G37*
%TD.AperFunction*%
%TA.AperFunction,Conductor*%
G36*
X68299920Y23375606D02*
G01*
X68247259Y23284394D01*
X68220000Y23182661D01*
X68220000Y23077339D01*
X68247259Y22975606D01*
X68299920Y22884394D01*
X68304314Y22880000D01*
X66395686Y22880000D01*
X66400080Y22884394D01*
X66452741Y22975606D01*
X66480000Y23077339D01*
X66480000Y23182661D01*
X66452741Y23284394D01*
X66400080Y23375606D01*
X66395686Y23380000D01*
X68304314Y23380000D01*
X68299920Y23375606D01*
G37*
%TD.AperFunction*%
%TA.AperFunction,Conductor*%
G36*
X68870000Y29471128D02*
G01*
X69066317Y29523731D01*
X69066326Y29523735D01*
X69272482Y29619866D01*
X69458820Y29750343D01*
X69619657Y29911180D01*
X69750132Y30097516D01*
X69763617Y30126434D01*
X69809789Y30178873D01*
X69876983Y30198026D01*
X69943864Y30177811D01*
X69989199Y30124646D01*
X70000000Y30074030D01*
X70000000Y23805971D01*
X69980315Y23738932D01*
X69927511Y23693177D01*
X69858353Y23683233D01*
X69794797Y23712258D01*
X69763618Y23753566D01*
X69750134Y23782483D01*
X69619657Y23968821D01*
X69458820Y24129658D01*
X69272482Y24260135D01*
X69066328Y24356266D01*
X68870000Y24408873D01*
X68870000Y23445686D01*
X68865606Y23450080D01*
X68774394Y23502741D01*
X68672661Y23530000D01*
X68567339Y23530000D01*
X68465606Y23502741D01*
X68374394Y23450080D01*
X68370000Y23445686D01*
X68370000Y24408873D01*
X68173671Y24356266D01*
X67967517Y24260135D01*
X67781179Y24129658D01*
X67620342Y23968821D01*
X67489865Y23782483D01*
X67462382Y23723543D01*
X67416210Y23671104D01*
X67349016Y23651952D01*
X67282135Y23672168D01*
X67237618Y23723543D01*
X67210134Y23782483D01*
X67079657Y23968821D01*
X66918820Y24129658D01*
X66732482Y24260135D01*
X66526328Y24356266D01*
X66330000Y24408873D01*
X66330000Y23445686D01*
X66325606Y23450080D01*
X66234394Y23502741D01*
X66132661Y23530000D01*
X66027339Y23530000D01*
X65925606Y23502741D01*
X65834394Y23450080D01*
X65830000Y23445686D01*
X65830000Y24408873D01*
X65633671Y24356266D01*
X65427517Y24260135D01*
X65241179Y24129658D01*
X65080338Y23968817D01*
X64975574Y23819199D01*
X64920997Y23775574D01*
X64851499Y23768382D01*
X64789144Y23799904D01*
X64753731Y23860135D01*
X64750000Y23890323D01*
X64750000Y29989678D01*
X64769685Y30056717D01*
X64822489Y30102472D01*
X64891647Y30112416D01*
X64955203Y30083391D01*
X64975575Y30060802D01*
X65080342Y29911180D01*
X65241179Y29750343D01*
X65427517Y29619866D01*
X65633673Y29523735D01*
X65633682Y29523731D01*
X65829999Y29471128D01*
X65830000Y29471129D01*
X65830000Y30434314D01*
X65834394Y30429920D01*
X65925606Y30377259D01*
X66027339Y30350000D01*
X66132661Y30350000D01*
X66234394Y30377259D01*
X66325606Y30429920D01*
X66330000Y30434314D01*
X66330000Y29471128D01*
X66526317Y29523731D01*
X66526326Y29523735D01*
X66732482Y29619866D01*
X66918820Y29750343D01*
X67079657Y29911180D01*
X67210134Y30097519D01*
X67210135Y30097521D01*
X67237618Y30156457D01*
X67283790Y30208897D01*
X67350983Y30228049D01*
X67417864Y30207834D01*
X67462382Y30156457D01*
X67489864Y30097521D01*
X67489865Y30097519D01*
X67620342Y29911180D01*
X67781179Y29750343D01*
X67967517Y29619866D01*
X68173673Y29523735D01*
X68173682Y29523731D01*
X68369999Y29471128D01*
X68370000Y29471129D01*
X68370000Y30434314D01*
X68374394Y30429920D01*
X68465606Y30377259D01*
X68567339Y30350000D01*
X68672661Y30350000D01*
X68774394Y30377259D01*
X68865606Y30429920D01*
X68870000Y30434314D01*
X68870000Y29471128D01*
G37*
%TD.AperFunction*%
%TA.AperFunction,Conductor*%
G36*
X68299920Y30995606D02*
G01*
X68247259Y30904394D01*
X68220000Y30802661D01*
X68220000Y30697339D01*
X68247259Y30595606D01*
X68299920Y30504394D01*
X68304314Y30500000D01*
X66395686Y30500000D01*
X66400080Y30504394D01*
X66452741Y30595606D01*
X66480000Y30697339D01*
X66480000Y30802661D01*
X66452741Y30904394D01*
X66400080Y30995606D01*
X66395686Y31000000D01*
X68304314Y31000000D01*
X68299920Y30995606D01*
G37*
%TD.AperFunction*%
%TA.AperFunction,Conductor*%
G36*
X68015677Y41980315D02*
G01*
X68036319Y41963681D01*
X68963681Y41036319D01*
X68997166Y40974996D01*
X69000000Y40948638D01*
X69000000Y36000000D01*
X69963681Y35036319D01*
X69997166Y34974996D01*
X70000000Y34948638D01*
X70000000Y31425971D01*
X69980315Y31358932D01*
X69927511Y31313177D01*
X69858353Y31303233D01*
X69794797Y31332258D01*
X69763618Y31373566D01*
X69750134Y31402483D01*
X69619657Y31588821D01*
X69458820Y31749658D01*
X69272482Y31880135D01*
X69066328Y31976266D01*
X68870000Y32028873D01*
X68870000Y31065686D01*
X68865606Y31070080D01*
X68774394Y31122741D01*
X68672661Y31150000D01*
X68567339Y31150000D01*
X68465606Y31122741D01*
X68374394Y31070080D01*
X68370000Y31065686D01*
X68370000Y32028873D01*
X68173671Y31976266D01*
X67967517Y31880135D01*
X67781179Y31749658D01*
X67620342Y31588821D01*
X67489865Y31402483D01*
X67462382Y31343543D01*
X67416210Y31291104D01*
X67349016Y31271952D01*
X67282135Y31292168D01*
X67237618Y31343543D01*
X67210134Y31402483D01*
X67079657Y31588821D01*
X66918820Y31749658D01*
X66732482Y31880135D01*
X66526328Y31976266D01*
X66330000Y32028873D01*
X66330000Y31065686D01*
X66325606Y31070080D01*
X66234394Y31122741D01*
X66132661Y31150000D01*
X66027339Y31150000D01*
X65925606Y31122741D01*
X65834394Y31070080D01*
X65830000Y31065686D01*
X65830000Y32028873D01*
X65633671Y31976266D01*
X65427517Y31880135D01*
X65241179Y31749658D01*
X65080338Y31588817D01*
X64975574Y31439199D01*
X64920997Y31395574D01*
X64851499Y31388382D01*
X64789144Y31419904D01*
X64753731Y31480135D01*
X64750000Y31510323D01*
X64750000Y34948638D01*
X64769685Y35015677D01*
X64786319Y35036319D01*
X65750000Y36000000D01*
X65750000Y40948638D01*
X65769685Y41015677D01*
X65786319Y41036319D01*
X66713681Y41963681D01*
X66775004Y41997166D01*
X66801362Y42000000D01*
X67948638Y42000000D01*
X68015677Y41980315D01*
G37*
%TD.AperFunction*%
%TD*%
%TA.AperFunction,Conductor*%
%TO.N,GND*%
G36*
X85569155Y27730315D02*
G01*
X85614910Y27677511D01*
X85624854Y27608353D01*
X85612601Y27569705D01*
X85606417Y27557571D01*
X85535765Y27340129D01*
X85521491Y27250000D01*
X86509252Y27250000D01*
X86487482Y27212292D01*
X86450000Y27072409D01*
X86450000Y26927591D01*
X86487482Y26787708D01*
X86509252Y26750000D01*
X85521491Y26750000D01*
X85535765Y26659872D01*
X85606417Y26442430D01*
X85612601Y26430295D01*
X85625497Y26361626D01*
X85599221Y26296885D01*
X85542114Y26256628D01*
X85502116Y26250000D01*
X84624000Y26250000D01*
X84556961Y26269685D01*
X84511206Y26322489D01*
X84500000Y26374000D01*
X84500000Y27626000D01*
X84519685Y27693039D01*
X84572489Y27738794D01*
X84624000Y27750000D01*
X85502116Y27750000D01*
X85569155Y27730315D01*
G37*
%TD.AperFunction*%
%TA.AperFunction,Conductor*%
G36*
X93539571Y30480315D02*
G01*
X93585326Y30427511D01*
X93595270Y30358353D01*
X93566245Y30294797D01*
X93526333Y30264280D01*
X93447622Y30226375D01*
X93447609Y30226368D01*
X93286813Y30116741D01*
X94088941Y29314613D01*
X94068409Y29309111D01*
X93931592Y29230119D01*
X93819881Y29118408D01*
X93740889Y28981591D01*
X93735387Y28961059D01*
X92933452Y29762994D01*
X92891457Y29710333D01*
X92764058Y29489672D01*
X92670973Y29252495D01*
X92670968Y29252478D01*
X92614273Y29004080D01*
X92595233Y28750005D01*
X92595233Y28749996D01*
X92614273Y28495921D01*
X92670968Y28247523D01*
X92670973Y28247506D01*
X92764058Y28010329D01*
X92764057Y28010329D01*
X92891454Y27789673D01*
X92891461Y27789662D01*
X92933452Y27737009D01*
X92933453Y27737008D01*
X93735387Y28538942D01*
X93740889Y28518409D01*
X93819881Y28381592D01*
X93931592Y28269881D01*
X94068409Y28190889D01*
X94088940Y28185388D01*
X93285984Y27382433D01*
X93273257Y27316992D01*
X93224955Y27266507D01*
X93163138Y27250000D01*
X92000000Y27250000D01*
X92000000Y26374000D01*
X91980315Y26306961D01*
X91927511Y26261206D01*
X91876000Y26250000D01*
X88497884Y26250000D01*
X88430845Y26269685D01*
X88385090Y26322489D01*
X88375146Y26391647D01*
X88387399Y26430295D01*
X88393582Y26442430D01*
X88464234Y26659872D01*
X88478509Y26750000D01*
X87490748Y26750000D01*
X87512518Y26787708D01*
X87550000Y26927591D01*
X87550000Y27072409D01*
X87512518Y27212292D01*
X87490748Y27250000D01*
X88478509Y27250000D01*
X88464234Y27340129D01*
X88393582Y27557571D01*
X88387399Y27569705D01*
X88374503Y27638374D01*
X88400779Y27703115D01*
X88457886Y27743372D01*
X88497884Y27750000D01*
X89500000Y27750000D01*
X89500000Y29698638D01*
X89519685Y29765677D01*
X89536319Y29786319D01*
X90213681Y30463681D01*
X90275004Y30497166D01*
X90301362Y30500000D01*
X93472532Y30500000D01*
X93539571Y30480315D01*
G37*
%TD.AperFunction*%
%TA.AperFunction,Conductor*%
G36*
X95666544Y27737008D02*
G01*
X95666546Y27737009D01*
X95708544Y27789670D01*
X95768613Y27893712D01*
X95819180Y27941927D01*
X95887787Y27955151D01*
X95952651Y27929183D01*
X95993180Y27872269D01*
X96000000Y27831712D01*
X96000000Y27374000D01*
X95980315Y27306961D01*
X95927511Y27261206D01*
X95876000Y27250000D01*
X95436861Y27250000D01*
X95369822Y27269685D01*
X95324067Y27322489D01*
X95313918Y27382529D01*
X94511060Y28185388D01*
X94531591Y28190889D01*
X94668408Y28269881D01*
X94780119Y28381592D01*
X94859111Y28518409D01*
X94864612Y28538941D01*
X95666544Y27737008D01*
G37*
%TD.AperFunction*%
%TA.AperFunction,Conductor*%
G36*
X95943039Y30480315D02*
G01*
X95988794Y30427511D01*
X96000000Y30376000D01*
X96000000Y29668289D01*
X95980315Y29601250D01*
X95927511Y29555495D01*
X95858353Y29545551D01*
X95794797Y29574576D01*
X95768613Y29606288D01*
X95708543Y29710331D01*
X95666545Y29762994D01*
X94864612Y28961061D01*
X94859111Y28981591D01*
X94780119Y29118408D01*
X94668408Y29230119D01*
X94531591Y29309111D01*
X94511059Y29314613D01*
X95313185Y30116740D01*
X95152384Y30226372D01*
X95152376Y30226377D01*
X95073667Y30264280D01*
X95021807Y30311102D01*
X95003494Y30378529D01*
X95024541Y30445153D01*
X95078267Y30489821D01*
X95127468Y30500000D01*
X95876000Y30500000D01*
X95943039Y30480315D01*
G37*
%TD.AperFunction*%
%TD*%
M02*
